<svg width="176" height="60" viewBox="0 0 176 60" fill="none" xmlns="http://www.w3.org/2000/svg">
<g clip-path="url(#clip0_1016_1582)">
<path d="M129.083 58.2815H128.768C128.72 58.0916 128.644 57.9193 128.538 57.7647C128.369 57.9414 128.174 58.0916 127.952 58.2197C127.731 58.3477 127.438 58.4096 127.061 58.4096C126.653 58.4096 126.272 58.3124 125.921 58.1137C125.571 57.9149 125.292 57.6366 125.083 57.2833C124.875 56.9299 124.773 56.528 124.773 56.0818C124.773 55.7638 124.831 55.4635 124.941 55.1764C125.052 54.8893 125.216 54.6375 125.425 54.4167C125.633 54.2002 125.886 54.028 126.174 53.8999C126.462 53.7762 126.782 53.7144 127.128 53.7144C127.695 53.7144 128.165 53.8999 128.538 54.2709C128.587 54.1737 128.635 54.0368 128.684 53.8513H128.986L129.039 55.5209H128.715C128.658 55.2382 128.551 54.9864 128.4 54.7656C128.25 54.5447 128.068 54.3769 127.859 54.2576C127.651 54.1428 127.434 54.081 127.203 54.081C126.95 54.081 126.72 54.1516 126.516 54.2886C126.312 54.4255 126.152 54.6419 126.037 54.9246C125.921 55.2117 125.864 55.5651 125.864 55.9891C125.864 56.4131 125.913 56.7488 126.01 57.0227C126.108 57.2965 126.223 57.5041 126.365 57.6454C126.507 57.7868 126.649 57.8796 126.791 57.9326C126.933 57.9811 127.07 58.0076 127.194 58.0076C127.469 58.0076 127.717 57.9326 127.939 57.7868C128.161 57.641 128.338 57.4555 128.48 57.2303C128.622 57.005 128.715 56.7841 128.764 56.5633H129.088V58.2771L129.083 58.2815Z" fill="#2F4466"/>
<path d="M132.023 58.3302H130.201V58.021H130.298C130.427 58.021 130.524 58.0034 130.582 57.968C130.64 57.9327 130.675 57.8841 130.693 57.8179C130.711 57.7516 130.715 57.6589 130.715 57.5352V56.5414C130.715 56.4044 130.706 56.3028 130.688 56.2454C130.671 56.188 130.626 56.1438 130.56 56.1173C130.489 56.0908 130.369 56.0776 130.205 56.0732V55.764L131.58 55.4769V57.5308C131.58 57.7163 131.602 57.8444 131.651 57.915C131.7 57.9857 131.824 58.0166 132.028 58.0166V58.3258L132.023 58.3302ZM131.642 54.1739C131.642 54.3064 131.593 54.4212 131.5 54.5184C131.407 54.6156 131.292 54.6597 131.154 54.6597C131.017 54.6597 130.906 54.6112 130.808 54.514C130.711 54.4168 130.662 54.302 130.662 54.1739C130.662 54.0458 130.711 53.9265 130.808 53.8294C130.906 53.7322 131.021 53.6836 131.154 53.6836C131.287 53.6836 131.407 53.7322 131.5 53.8249C131.593 53.9177 131.642 54.0325 131.642 54.1739Z" fill="#2F4466"/>
<path d="M135.73 56.0115C135.73 56.1396 135.691 56.2412 135.611 56.3163C135.531 56.3913 135.438 56.4267 135.331 56.4267C135.203 56.4267 135.092 56.3648 134.994 56.2412C134.95 56.1837 134.915 56.144 134.884 56.1219C134.852 56.0998 134.813 56.0866 134.759 56.0866C134.586 56.0866 134.449 56.1793 134.351 56.3693C134.254 56.5592 134.205 56.7535 134.205 56.9567V57.5398C134.205 57.7253 134.227 57.8534 134.276 57.924C134.325 57.9947 134.449 58.0256 134.657 58.0256H134.835V58.3348H132.751V58.0256H132.923C133.11 58.0256 133.225 57.9903 133.269 57.9196C133.314 57.8489 133.331 57.7208 133.331 57.5398V56.5636C133.331 56.4134 133.318 56.3074 133.287 56.2412C133.256 56.1749 133.203 56.1352 133.123 56.1131C133.043 56.091 132.919 56.0822 132.746 56.0822V55.773L134.054 55.4859C134.09 55.6007 134.121 55.8392 134.147 56.2102C134.209 56.0777 134.294 55.9585 134.396 55.8481C134.498 55.7376 134.613 55.6493 134.737 55.583C134.866 55.5168 134.994 55.4814 135.123 55.4814C135.305 55.4814 135.451 55.5344 135.558 55.636C135.664 55.7376 135.717 55.8613 135.717 56.0115H135.73Z" fill="#2F4466"/>
<path d="M141.699 58.3302H139.172V58.021H139.376C139.549 58.021 139.668 58.0122 139.735 57.9901C139.797 57.968 139.832 57.9327 139.832 57.8797C139.832 57.8001 139.739 57.6367 139.557 57.3761L138.582 56.0024L138.005 56.506V57.4865C138.005 57.6853 138.05 57.8222 138.143 57.9017C138.236 57.9812 138.409 58.021 138.666 58.021V58.3302H136.391V58.021C136.586 58.021 136.728 57.9989 136.821 57.9592C136.915 57.9194 136.977 57.862 137.003 57.7869C137.03 57.7118 137.048 57.6102 137.048 57.4821V54.6332C137.048 54.5051 137.034 54.4035 137.008 54.3284C136.981 54.2577 136.923 54.2003 136.826 54.1606C136.733 54.1208 136.586 54.0987 136.391 54.0987V53.7896H138.666V54.0987C138.387 54.0987 138.205 54.1385 138.125 54.218C138.045 54.2975 138.005 54.4388 138.005 54.6332V55.998L139.42 54.7657C139.518 54.6818 139.588 54.6067 139.633 54.5449C139.677 54.483 139.699 54.4168 139.699 54.3417C139.699 54.1827 139.544 54.1032 139.238 54.1032V53.794H141.314V54.1032C141.154 54.1164 141.021 54.1341 140.919 54.1606C140.817 54.1827 140.719 54.2268 140.622 54.2798C140.524 54.3328 140.422 54.4079 140.307 54.5007C140.192 54.5934 140.014 54.7436 139.766 54.96L139.291 55.3708L140.635 57.2745C140.777 57.4777 140.897 57.6279 140.985 57.7295C141.074 57.8311 141.176 57.9017 141.282 57.9459C141.389 57.9901 141.526 58.0166 141.699 58.021V58.3302Z" fill="#2F4466"/>
<path d="M144.174 58.3302H142.351V58.021H142.449C142.577 58.021 142.675 58.0034 142.733 57.968C142.79 57.9327 142.83 57.8841 142.843 57.8179C142.857 57.7516 142.866 57.6589 142.866 57.5352V56.5414C142.866 56.4044 142.857 56.3028 142.839 56.2454C142.821 56.188 142.777 56.1438 142.71 56.1173C142.639 56.0908 142.524 56.0776 142.356 56.0732V55.764L143.73 55.4769V57.5308C143.73 57.7163 143.752 57.8444 143.801 57.915C143.85 57.9857 143.974 58.0166 144.178 58.0166V58.3258L144.174 58.3302ZM143.792 54.1739C143.792 54.3064 143.744 54.4212 143.65 54.5184C143.557 54.6112 143.442 54.6597 143.305 54.6597C143.167 54.6597 143.056 54.6112 142.959 54.514C142.861 54.4168 142.812 54.302 142.812 54.1739C142.812 54.0458 142.861 53.9265 142.959 53.8294C143.056 53.7322 143.172 53.6836 143.305 53.6836C143.438 53.6836 143.557 53.7322 143.65 53.8249C143.744 53.9177 143.792 54.0325 143.792 54.1739Z" fill="#2F4466"/>
<path d="M147.3 57.7341C147.18 57.9858 147.039 58.1669 146.879 58.2774C146.719 58.3878 146.529 58.4408 146.311 58.4408C146.05 58.4408 145.855 58.3878 145.726 58.2818C145.597 58.1758 145.522 58.0565 145.495 57.924C145.464 57.7915 145.451 57.6413 145.451 57.4779V55.9054H144.945V55.5963C145.158 55.5963 145.345 55.5565 145.5 55.477C145.655 55.3975 145.779 55.2871 145.872 55.1546C145.961 55.0176 146.019 54.8719 146.045 54.7173H146.32V55.6007H147.269V55.9099H146.32V57.5044C146.32 57.6987 146.333 57.8401 146.36 57.924C146.387 58.0079 146.449 58.0521 146.551 58.0521C146.657 58.0521 146.746 58.0079 146.817 57.9284C146.888 57.8445 146.954 57.7429 147.016 57.6148L147.305 57.7429L147.3 57.7341Z" fill="#2F4466"/>
<path d="M154.355 55.0045C154.355 55.3755 154.24 55.6582 154.009 55.8525C153.779 56.0469 153.508 56.1706 153.198 56.2236C152.883 56.2766 152.555 56.3075 152.214 56.3075H151.912V57.4912C151.912 57.6237 151.925 57.7297 151.956 57.8004C151.987 57.8755 152.049 57.9285 152.143 57.9683C152.24 58.008 152.386 58.0257 152.582 58.0257V58.3349H150.293V58.0257C150.488 58.0257 150.63 58.0036 150.724 57.9638C150.817 57.9241 150.879 57.8667 150.905 57.7916C150.932 57.7165 150.945 57.6149 150.945 57.4868V54.6246C150.945 54.4965 150.932 54.3949 150.905 54.3243C150.879 54.2536 150.817 54.1962 150.724 54.152C150.63 54.1123 150.484 54.0902 150.289 54.0902V53.7766L151.588 53.7412C151.655 53.7412 151.73 53.7412 151.81 53.7368C151.89 53.7368 151.952 53.7368 152.001 53.7368C152.049 53.7368 152.116 53.7368 152.209 53.7368C152.324 53.7368 152.409 53.7368 152.466 53.7368C152.732 53.7501 152.99 53.7722 153.233 53.8119C153.477 53.8517 153.73 53.9665 153.978 54.152C154.231 54.3375 154.355 54.6202 154.355 55.0045ZM153.322 55.0089C153.322 54.6467 153.216 54.4082 153.007 54.2845C152.794 54.1653 152.519 54.1034 152.174 54.1034C152.112 54.1034 152.023 54.1034 151.912 54.1123V55.932H152.222C152.551 55.932 152.817 55.8746 153.021 55.7642C153.225 55.6538 153.327 55.402 153.327 55.0089H153.322Z" fill="#2F4466"/>
<path d="M158.098 56.0115C158.098 56.1396 158.058 56.2412 157.978 56.3163C157.898 56.3913 157.805 56.4267 157.699 56.4267C157.57 56.4267 157.459 56.3648 157.362 56.2412C157.318 56.1837 157.282 56.144 157.251 56.1219C157.22 56.0998 157.18 56.0866 157.127 56.0866C156.954 56.0866 156.816 56.1793 156.719 56.3693C156.621 56.5592 156.573 56.7535 156.573 56.9567V57.5398C156.573 57.7253 156.595 57.8534 156.644 57.924C156.692 57.9947 156.816 58.0256 157.025 58.0256H157.202V58.3348H155.118V58.0256H155.291C155.477 58.0256 155.593 57.9903 155.637 57.9196C155.681 57.8489 155.699 57.7208 155.699 57.5398V56.5636C155.699 56.4134 155.686 56.3074 155.655 56.2412C155.624 56.1749 155.57 56.1352 155.491 56.1131C155.411 56.091 155.287 56.0822 155.114 56.0822V55.773L156.422 55.4859C156.457 55.6007 156.488 55.8392 156.515 56.2102C156.577 56.0777 156.661 55.9585 156.763 55.8481C156.865 55.7376 156.981 55.6493 157.105 55.583C157.233 55.5168 157.362 55.4814 157.491 55.4814C157.672 55.4814 157.819 55.5344 157.925 55.636C158.032 55.7376 158.085 55.8613 158.085 56.0115H158.098Z" fill="#2F4466"/>
<path d="M162.182 56.9523C162.182 57.257 162.107 57.5176 161.961 57.7429C161.814 57.9682 161.615 58.1404 161.362 58.2597C161.109 58.3789 160.834 58.4408 160.533 58.4408C160.249 58.4408 159.983 58.3878 159.734 58.2774C159.482 58.1669 159.278 58.0035 159.118 57.7782C158.958 57.5574 158.879 57.2835 158.879 56.9611C158.879 56.4797 159.043 56.1086 159.375 55.8613C159.708 55.6095 160.098 55.4858 160.555 55.4858C160.896 55.4858 161.189 55.5521 161.433 55.6846C161.677 55.8171 161.867 55.9982 161.992 56.2235C162.116 56.4487 162.182 56.6917 162.182 56.9567V56.9523ZM161.255 56.9302C161.255 56.5503 161.207 56.2676 161.105 56.0733C161.003 55.8834 160.808 55.7862 160.519 55.7862C160.333 55.7862 160.187 55.8259 160.085 55.9099C159.983 55.9938 159.907 56.1219 159.867 56.2986C159.828 56.4752 159.805 56.7005 159.805 56.9788C159.805 57.3233 159.85 57.6016 159.943 57.8092C160.036 58.0212 160.235 58.1272 160.546 58.1272C160.75 58.1272 160.905 58.0698 161.012 57.9505C161.118 57.8312 161.184 57.6899 161.216 57.5176C161.247 57.3454 161.26 57.1466 161.26 56.9258L161.255 56.9302Z" fill="#2F4466"/>
<path d="M164.595 58.4142C164.595 58.635 164.586 58.8205 164.568 58.9663C164.55 59.112 164.506 59.249 164.43 59.3771C164.293 59.62 164.116 59.7834 163.907 59.8718C163.699 59.9601 163.486 59.9998 163.277 59.9998C162.963 59.9998 162.732 59.9424 162.581 59.8276C162.43 59.7127 162.355 59.5758 162.355 59.4212C162.355 59.3108 162.395 59.2225 162.479 59.1474C162.564 59.0723 162.657 59.037 162.763 59.037C162.887 59.037 162.976 59.0723 163.038 59.1474C163.1 59.2225 163.144 59.3152 163.184 59.4256C163.22 59.5051 163.251 59.567 163.286 59.6023C163.322 59.6421 163.371 59.6597 163.437 59.6597C163.526 59.6597 163.592 59.6288 163.637 59.567C163.681 59.5051 163.708 59.4168 163.716 59.3064C163.725 59.196 163.73 59.0237 163.73 58.7896V56.4707C163.73 56.347 163.716 56.2587 163.69 56.2101C163.663 56.1571 163.615 56.1218 163.539 56.1041C163.464 56.0864 163.344 56.0776 163.18 56.0776V55.7684L164.595 55.4813V58.4142ZM164.705 54.1739C164.705 54.3064 164.657 54.4212 164.563 54.5184C164.47 54.6112 164.355 54.6597 164.218 54.6597C164.08 54.6597 163.969 54.6112 163.872 54.514C163.774 54.4168 163.725 54.302 163.725 54.1739C163.725 54.0458 163.774 53.9265 163.872 53.8294C163.969 53.7322 164.085 53.6836 164.218 53.6836C164.351 53.6836 164.47 53.7322 164.563 53.8249C164.657 53.9177 164.705 54.0325 164.705 54.1739Z" fill="#2F4466"/>
<path d="M168.914 56.8596H166.852C166.852 56.9037 166.861 56.9921 166.869 57.129C166.878 57.2659 166.909 57.4073 166.963 57.553C167.016 57.6988 167.104 57.818 167.233 57.9196C167.362 58.0168 167.535 58.0698 167.752 58.0698C167.872 58.0698 168.014 58.0389 168.182 57.977C168.351 57.9152 168.497 57.8004 168.617 57.6281L168.878 57.8048C168.617 58.2244 168.195 58.4364 167.619 58.4364C167.362 58.4364 167.127 58.4011 166.918 58.326C166.705 58.2509 166.528 58.1493 166.382 58.0168C166.235 57.8843 166.12 57.7297 166.045 57.553C165.965 57.3763 165.929 57.182 165.929 56.9788C165.929 56.7094 165.996 56.4576 166.124 56.2279C166.253 55.9983 166.444 55.8172 166.688 55.6802C166.932 55.5433 167.211 55.4771 167.521 55.4771C167.832 55.4771 168.089 55.5433 168.297 55.6758C168.51 55.8083 168.665 55.9762 168.767 56.1882C168.869 56.3958 168.918 56.621 168.918 56.8551L168.914 56.8596ZM168.08 56.5504C168.08 56.0424 167.881 55.7862 167.477 55.7862C167.282 55.7862 167.131 55.8569 167.029 55.9983C166.927 56.1396 166.869 56.3207 166.856 56.5504H168.08Z" fill="#2F4466"/>
<path d="M172.869 57.6502C172.599 58.1758 172.164 58.4408 171.566 58.4408C171.286 58.4408 171.02 58.3834 170.772 58.2686C170.524 58.1537 170.324 57.9903 170.173 57.7739C170.022 57.5574 169.947 57.3057 169.947 57.0142C169.947 56.8154 169.987 56.621 170.071 56.4399C170.151 56.2589 170.271 56.091 170.426 55.9453C170.581 55.7995 170.763 55.6846 170.976 55.6007C171.189 55.5168 171.415 55.4771 171.654 55.4771C171.965 55.4771 172.235 55.5389 172.47 55.6581C172.705 55.7774 172.821 55.9453 172.821 56.1617C172.821 56.2589 172.785 56.3428 172.71 56.4134C172.634 56.4841 172.55 56.515 172.453 56.515C172.355 56.515 172.288 56.493 172.24 56.4532C172.191 56.409 172.16 56.3693 172.142 56.3251C172.124 56.2809 172.102 56.2014 172.076 56.0866C172.045 55.9762 172 55.9011 171.929 55.8525C171.863 55.8083 171.77 55.7818 171.65 55.7818C171.446 55.7818 171.264 55.8569 171.109 56.0071C170.954 56.1573 170.874 56.44 170.874 56.8507C170.874 57.0716 170.905 57.2748 170.967 57.4603C171.029 57.6458 171.131 57.7915 171.269 57.902C171.406 58.008 171.574 58.0654 171.774 58.0654C171.996 58.0654 172.164 58.0124 172.28 57.902C172.395 57.7915 172.501 57.6634 172.59 57.5177L172.869 57.6502Z" fill="#2F4466"/>
<path d="M176 57.7341C175.88 57.9858 175.738 58.1669 175.579 58.2774C175.419 58.3878 175.229 58.4408 175.011 58.4408C174.745 58.4408 174.55 58.3878 174.426 58.2818C174.302 58.1758 174.222 58.0565 174.195 57.924C174.164 57.7915 174.151 57.6413 174.151 57.4779V55.9054H173.645V55.5963C173.858 55.5963 174.044 55.5565 174.2 55.477C174.355 55.3975 174.479 55.2871 174.572 55.1546C174.665 55.0176 174.719 54.8719 174.745 54.7173H175.02V55.6007H175.969V55.9099H175.02V57.5044C175.02 57.6987 175.033 57.8401 175.06 57.924C175.087 58.0079 175.149 58.0521 175.251 58.0521C175.357 58.0521 175.446 58.0079 175.517 57.9284C175.588 57.8445 175.654 57.7429 175.716 57.6148L176.005 57.7429L176 57.7341Z" fill="#2F4466"/>
<path d="M8.88226 0.976148V4.26678C8.88226 5.66254 7.73373 6.70936 6.42999 6.70936C5.57857 6.70936 4.78924 6.26767 4.78924 5.58746C4.78924 5.12367 5.1706 4.75265 5.64066 4.75265C6.11071 4.75265 6.49208 5.12367 6.49208 5.58746C6.49208 5.62279 6.49208 5.65813 6.47877 5.69346C6.76701 5.40636 6.90892 5.0265 6.90892 4.59806V2.33216H4.89566C4.66951 3.29947 4.36796 4.54947 4.33249 4.68198C3.95112 6.13516 3.02875 6.70936 1.91569 6.70936C0.46562 6.70936 0 5.71996 0 5.24293C0 4.7659 0.381365 4.39488 0.85142 4.39488C1.32147 4.39488 1.70284 4.77474 1.70284 5.24293C1.70284 5.37544 1.66736 5.50353 1.60528 5.61396C1.71171 5.66254 1.89352 5.64929 2.03543 5.56537C2.16846 5.48145 2.39462 5.18551 2.61191 4.31537C2.74494 3.76767 2.92232 3.02562 3.09083 2.33657H1.05541V0.976148H3.41455C3.55645 0.39311 3.65401 0 3.65401 0H5.88012C5.88012 0.167845 5.79586 0.287102 5.68944 0.344523C5.54753 0.428445 5.35242 0.605124 5.23268 0.976148H8.88226Z" fill="#2F4466"/>
<path d="M19.525 0.189941C19.525 0.189941 18.6159 3.5645 18.4962 4.04153C17.933 6.10425 16.137 6.71379 14.8954 6.71379C13.9021 6.71379 13.0285 6.23676 12.7402 5.5433C12.7269 5.5433 12.7269 5.53005 12.7269 5.53005C12.6915 5.42404 12.6693 5.31362 12.6693 5.20761C12.6693 4.74383 13.0506 4.35955 13.5207 4.35955C13.9908 4.35955 14.3721 4.73941 14.3721 5.20761C14.3721 5.34895 14.3366 5.46821 14.2746 5.57863C14.4076 5.62722 14.6205 5.67581 14.8023 5.67581C15.534 5.67581 16.177 5.18552 16.4652 4.10337C16.5361 3.84277 16.882 2.5751 17.1614 1.55037H11.7646V0.189941H19.5339H19.525Z" fill="#2F4466"/>
<path d="M29.068 6.55939H23.108V5.47281H25.5381V2.76522H23.7776V1.69189H29.2853C29.2853 2.28818 28.6999 2.76522 27.9815 2.76522H27.1212V5.47281H27.8174C28.2742 5.47281 28.5004 5.81734 28.6777 5.81734C28.7753 5.81734 28.8462 5.74667 28.8462 5.64949C28.8462 5.59207 28.7975 5.53023 28.7975 5.37564C28.7975 5.00462 29.0946 4.69543 29.4804 4.69543C29.8174 4.69543 30.079 4.93394 30.15 5.25638C30.283 5.95868 29.7198 6.55497 29.0724 6.55497L29.068 6.55939Z" fill="#2F4466"/>
<path d="M2.31036 50.3006C1.03323 50.3006 0 49.2715 0 47.9994V15.9013C0 14.6292 1.03323 13.6001 2.31036 13.6001H43.7683C45.0454 13.6001 46.0787 14.6292 46.0787 15.9013V34.9429C46.0787 43.4102 39.1609 50.3006 30.66 50.3006H2.31036ZM26.1501 41.8156C30.4693 41.8156 33.9814 38.3174 33.9814 34.0153V26.533C33.9814 24.1169 31.977 22.1558 29.5159 22.1558H12.0973V41.8156H26.1501Z" fill="#2F4466"/>
<path d="M66.9872 50.3005C65.7101 50.3005 64.6769 49.2713 64.6769 47.9992V44.1874C64.6769 42.9153 65.7101 41.8862 66.9872 41.8862H90.3969C92.6629 41.8862 95.0087 40.1415 95.0087 37.2219V22.0143H66.9872C65.7101 22.0143 64.6769 20.9851 64.6769 19.713V15.9012C64.6769 14.6291 65.7101 13.6 66.9872 13.6H104.867C106.144 13.6 107.177 14.6291 107.177 15.9012V38.7192C107.177 46.2413 101.408 50.3005 95.9799 50.3005H66.9917H66.9872ZM103.918 12.3588C102.162 12.3588 100.729 10.9012 100.729 9.11232C100.729 7.32345 102.157 5.93652 103.918 5.93652C105.678 5.93652 107.177 7.35878 107.177 9.11232C107.177 10.8659 105.745 12.3588 103.918 12.3588ZM96.1927 12.3588C94.4367 12.3588 93.0043 10.9012 93.0043 9.11232C93.0043 7.32345 94.4322 5.93652 96.1927 5.93652C97.9532 5.93652 99.4521 7.35878 99.4521 9.11232C99.4521 10.8659 98.0197 12.3588 96.1927 12.3588Z" fill="#2F4466"/>
<path d="M168.235 51.0162C166.08 51.0162 164.027 50.4199 161.779 49.139C158.227 47.1425 154.577 43.6663 153.836 42.942C148.48 46.4314 142.577 48.7238 135.806 49.9428C135.668 49.9693 135.531 49.9782 135.393 49.9782C134.436 49.9782 133.562 49.3863 133.225 48.4632C132.839 47.4075 133.274 46.2326 134.254 45.6805C135.704 44.8589 137.123 43.9932 138.471 43.1054C148.431 36.5595 154.976 28.631 157.415 20.1637H129.38C128.103 20.1637 127.07 19.1345 127.07 17.8625V13.9799C127.07 12.7079 128.103 11.6787 129.38 11.6787H169.517C170.195 11.6787 170.843 11.9791 171.282 12.4958C171.721 13.0126 171.907 13.6973 171.796 14.3642C170.452 22.2971 166.923 30.2565 162.59 35.1372C161.309 36.5683 160.958 38.2246 161.619 39.6999C162.209 41.0162 163.526 41.8642 164.976 41.8642C165.845 41.8642 166.741 41.5639 167.574 40.9941C168.63 40.2211 169.579 39.8943 170.754 39.8943C173.654 39.8943 176.013 42.2441 176.013 45.1328C176.013 47.381 174.559 48.9711 173.202 49.7087C171.672 50.6231 170.191 51.0117 168.249 51.0117L168.235 51.0162Z" fill="#2F4466"/>
</g>
<defs>
<clipPath id="clip0_1016_1582">
<rect width="176" height="60" fill="white"/>
</clipPath>
</defs>
</svg>
