<svg width="156" height="35" viewBox="0 0 156 35" fill="none" xmlns="http://www.w3.org/2000/svg">
<path d="M5.62689 7.98C7.65489 7.98 9.14989 9.384 9.14989 11.529C9.14989 13.687 7.65489 15.091 5.62689 15.091C4.74289 15.091 3.96289 14.792 3.40389 14.155V17.522H1.77889V8.058H3.32589V8.968C3.87189 8.305 4.67789 7.98 5.62689 7.98ZM5.44489 13.7C6.61489 13.7 7.49889 12.855 7.49889 11.529C7.49889 10.203 6.61489 9.358 5.44489 9.358C4.27489 9.358 3.37789 10.203 3.37789 11.529C3.37789 12.855 4.27489 13.7 5.44489 13.7ZM13.811 15.091C11.679 15.091 10.119 13.609 10.119 11.529C10.119 9.449 11.679 7.98 13.811 7.98C15.969 7.98 17.516 9.449 17.516 11.529C17.516 13.609 15.969 15.091 13.811 15.091ZM13.811 13.7C14.994 13.7 15.878 12.855 15.878 11.529C15.878 10.203 14.994 9.358 13.811 9.358C12.641 9.358 11.757 10.203 11.757 11.529C11.757 12.855 12.641 13.7 13.811 13.7ZM28.2655 8.058H29.7085L27.1475 15H25.5875L23.7935 10.216L21.9735 15H20.4135L17.8655 8.058H19.3995L21.2325 13.18L23.1435 8.058H24.5085L26.3805 13.206L28.2655 8.058ZM37.1613 11.568C37.1613 11.698 37.1483 11.893 37.1353 12.049H31.6883C31.8833 13.063 32.7283 13.713 33.9373 13.713C34.7173 13.713 35.3283 13.466 35.8223 12.959L36.6933 13.96C36.0693 14.701 35.0943 15.091 33.8983 15.091C31.5713 15.091 30.0633 13.596 30.0633 11.529C30.0633 9.462 31.5843 7.98 33.6513 7.98C35.6793 7.98 37.1613 9.397 37.1613 11.568ZM33.6513 9.28C32.5983 9.28 31.8313 9.956 31.6753 10.97H35.6143C35.4843 9.969 34.7173 9.28 33.6513 9.28ZM40.2693 9.072C40.7373 8.344 41.5823 7.98 42.7393 7.98V9.527C42.5963 9.501 42.4793 9.488 42.3623 9.488C41.1273 9.488 40.3473 10.216 40.3473 11.633V15H38.7223V8.058H40.2693V9.072ZM50.5803 11.568C50.5803 11.698 50.5673 11.893 50.5543 12.049H45.1073C45.3023 13.063 46.1473 13.713 47.3563 13.713C48.1363 13.713 48.7473 13.466 49.2413 12.959L50.1123 13.96C49.4883 14.701 48.5133 15.091 47.3173 15.091C44.9903 15.091 43.4823 13.596 43.4823 11.529C43.4823 9.462 45.0033 7.98 47.0703 7.98C49.0983 7.98 50.5803 9.397 50.5803 11.568ZM47.0703 9.28C46.0173 9.28 45.2503 9.956 45.0943 10.97H49.0333C48.9033 9.969 48.1363 9.28 47.0703 9.28ZM57.3152 5.354H58.9402V15H57.3802V14.103C56.8342 14.766 56.0282 15.091 55.0792 15.091C53.0642 15.091 51.5692 13.687 51.5692 11.529C51.5692 9.371 53.0642 7.98 55.0792 7.98C55.9762 7.98 56.7692 8.279 57.3152 8.916V5.354ZM55.2742 13.7C56.4442 13.7 57.3412 12.855 57.3412 11.529C57.3412 10.203 56.4442 9.358 55.2742 9.358C54.1042 9.358 53.2072 10.203 53.2072 11.529C53.2072 12.855 54.1042 13.7 55.2742 13.7ZM48.6767 19.98C50.7047 19.98 52.1997 21.371 52.1997 23.529C52.1997 25.687 50.7047 27.091 48.6767 27.091C47.7277 27.091 46.9217 26.766 46.3757 26.103V27H44.8287V17.354H46.4537V20.903C47.0127 20.279 47.7927 19.98 48.6767 19.98ZM48.4947 25.7C49.6647 25.7 50.5487 24.855 50.5487 23.529C50.5487 22.203 49.6647 21.358 48.4947 21.358C47.3247 21.358 46.4277 22.203 46.4277 23.529C46.4277 24.855 47.3247 25.7 48.4947 25.7ZM58.4904 20.058H60.0504L56.8004 27.559C56.1634 29.132 55.2794 29.613 54.1224 29.613C53.4334 29.613 52.7054 29.379 52.2634 28.976L52.9134 27.78C53.2254 28.079 53.6674 28.261 54.1094 28.261C54.6814 28.261 55.0194 27.988 55.3314 27.299L55.4484 27.026L52.4194 20.058H54.1094L56.2934 25.193L58.4904 20.058Z" fill="#4A5568"/>
<path d="M79.5001 0.499681C79.5371 0.458093 79.5765 0.418599 79.6179 0.381395C79.8819 0.14412 80.2296 0 80.6106 0C81.0203 0 81.3915 0.16667 81.6615 0.436625C81.6659 0.440937 81.6701 0.445276 81.6744 0.449641L89.554 8.42241C89.8291 8.69662 89.9996 9.07783 89.9996 9.49932C89.9996 9.9352 89.8173 10.328 89.5255 10.6039L85.6963 14.4856L85.6962 14.4915C85.6864 14.5004 85.6768 14.5096 85.6673 14.5188L85.6677 14.5215C85.4023 14.7944 85.2386 15.1687 85.2386 15.5817C85.2386 15.9956 85.403 16.3707 85.6695 16.6437L85.6644 16.6455L86.7501 17.7485C88.041 19.1187 89.2163 20.8555 89.2163 22.9623C89.2163 24.7878 88.4941 26.4426 87.3228 27.6504C87.281 27.6936 87.2386 27.7362 87.1956 27.7782L80.4996 34.5003C80.4625 34.5419 80.4231 34.5814 80.3817 34.6186C80.1177 34.8559 79.77 35 79.389 35C78.9793 35 78.6081 34.8333 78.3381 34.5634C78.3338 34.5591 78.3295 34.5547 78.3252 34.5504L70.4456 26.5776C70.1705 26.3034 70 25.9222 70 25.5007C70 25.0648 70.1824 24.672 70.4742 24.3961L74.3033 20.5144L74.3035 20.5085C74.3132 20.4996 74.3228 20.4904 74.3323 20.4812L74.332 20.4785C74.5973 20.2056 74.7611 19.8313 74.7611 19.4183C74.7611 19.0044 74.5966 18.6293 74.3301 18.3563L74.3352 18.3545L73.2495 17.2515C71.7454 16.0241 70.7833 14.1445 70.7833 12.0377C70.7833 10.2123 71.5056 8.55744 72.6768 7.34957C72.7186 7.30641 72.7611 7.26382 72.8041 7.22182L79.5001 0.499681Z" fill="url(#paint0_linear_1016_1632)"/>
<path d="M97.3608 17.5V4.60228H99.6409V15.5604H105.43V17.5H97.3608Z" fill="#3A3E45"/>
<path d="M112.155 17.7235C108.426 17.7235 106.101 15.1582 106.101 11.0556V11.0377C106.101 6.94407 108.443 4.37882 112.155 4.37882C115.876 4.37882 118.2 6.94407 118.2 11.0377V11.0556C118.2 15.1582 115.885 17.7235 112.155 17.7235ZM112.155 15.7213C114.462 15.7213 115.885 13.8979 115.885 11.0556V11.0377C115.885 8.17753 114.436 6.38097 112.155 6.38097C109.884 6.38097 108.426 8.16859 108.426 11.0377V11.0556C108.426 13.9248 109.875 15.7213 112.155 15.7213Z" fill="#3A3E45"/>
<path d="M125.624 17.7235C121.904 17.7235 119.588 15.1672 119.588 11.002V10.993C119.588 6.89938 121.904 4.37882 125.58 4.37882C128.603 4.37882 130.565 6.14857 131.051 8.52612L131.086 8.66913H128.771L128.744 8.57081C128.258 7.1854 127.153 6.38097 125.589 6.38097C123.291 6.38097 121.912 8.07921 121.912 10.9752V10.9841C121.912 13.9426 123.353 15.7213 125.651 15.7213C127.577 15.7213 128.903 14.5236 128.947 12.7181L128.956 12.5215H125.792V10.7249H131.183V12.1192C131.183 15.623 129.115 17.7235 125.624 17.7235Z" fill="#3A3E45"/>
<path d="M138.669 17.7235C134.939 17.7235 132.615 15.1582 132.615 11.0556V11.0377C132.615 6.94407 134.957 4.37882 138.669 4.37882C142.39 4.37882 144.714 6.94407 144.714 11.0377V11.0556C144.714 15.1582 142.399 17.7235 138.669 17.7235ZM138.669 15.7213C140.976 15.7213 142.399 13.8979 142.399 11.0556V11.0377C142.399 8.17753 140.949 6.38097 138.669 6.38097C136.398 6.38097 134.939 8.16859 134.939 11.0377V11.0556C134.939 13.9248 136.389 15.7213 138.669 15.7213Z" fill="#3A3E45"/>
<path d="M151.015 17.7235C148.09 17.7235 146.163 16.3291 146.013 14.0141L146.004 13.8801H148.187L148.205 13.9873C148.373 15.0956 149.495 15.7839 151.095 15.7839C152.703 15.7839 153.711 15.0599 153.711 13.9516V13.9426C153.711 12.9773 153.048 12.4589 151.404 12.1103L150.034 11.8243C147.524 11.2969 146.287 10.1171 146.287 8.19541V8.18647C146.296 5.91618 148.267 4.37882 151.015 4.37882C153.799 4.37882 155.62 5.86255 155.753 8.07027L155.761 8.22222H153.578L153.561 8.11496C153.411 6.98876 152.43 6.3184 150.998 6.3184C149.504 6.32734 148.576 7.03345 148.576 8.06133V8.07027C148.576 8.98196 149.274 9.51825 150.812 9.84002L152.191 10.126C154.842 10.6802 156 11.7707 156 13.7817V13.7907C156 16.195 154.126 17.7235 151.015 17.7235Z" fill="#3A3E45"/>
<path d="M100.804 29.8578C98.7441 29.8578 97.3836 28.8677 97.2692 27.2347L97.2629 27.1383H98.6487L98.6614 27.2219C98.7886 28.077 99.634 28.6106 100.861 28.6106C102.088 28.6106 102.863 28.0512 102.863 27.1833V27.1769C102.863 26.4311 102.361 26.026 101.147 25.756L100.149 25.5439C98.3499 25.1581 97.479 24.3223 97.479 22.9465V22.94C97.4854 21.3585 98.8648 20.2719 100.804 20.2719C102.717 20.2719 104.027 21.3263 104.122 22.8822L104.128 22.9915H102.743L102.736 22.9015C102.609 22.0399 101.872 21.5192 100.785 21.5192C99.6468 21.5256 98.9221 22.0721 98.9221 22.8822V22.8886C98.9221 23.583 99.4433 24.0073 100.588 24.258L101.592 24.4702C103.486 24.8752 104.3 25.6532 104.3 27.0869V27.0933C104.3 28.7842 102.978 29.8578 100.804 29.8578Z" fill="url(#paint1_linear_1016_1632)"/>
<path d="M106.207 31.9602C105.94 31.9602 105.654 31.928 105.489 31.8959V30.8094C105.597 30.8351 105.756 30.8608 105.94 30.8608C106.589 30.8608 106.945 30.6872 107.174 30.0314L107.288 29.71L104.853 22.94H106.341L108.025 28.4434H108.07L109.754 22.94H111.204L108.712 30.0186C108.216 31.4201 107.517 31.9602 106.207 31.9602Z" fill="url(#paint2_linear_1016_1632)"/>
<path d="M114.497 29.8386C112.825 29.8386 111.846 29.0028 111.706 27.7684L111.7 27.7105H113.06L113.073 27.7748C113.2 28.3984 113.658 28.7649 114.503 28.7649C115.33 28.7649 115.825 28.4177 115.825 27.8712V27.8648C115.825 27.4276 115.584 27.1769 114.866 27.0033L113.772 26.7525C112.501 26.4568 111.871 25.8396 111.871 24.8559V24.8495C111.871 23.6408 112.914 22.8115 114.452 22.8115C116.035 22.8115 116.989 23.7051 117.059 24.8559L117.065 24.9331H115.775L115.768 24.8881C115.686 24.2966 115.228 23.8851 114.452 23.8851C113.715 23.8851 113.251 24.2387 113.251 24.7788V24.7852C113.251 25.2031 113.524 25.486 114.243 25.6596L115.33 25.9103C116.696 26.2318 117.218 26.7783 117.218 27.7491V27.7555C117.218 28.9899 116.073 29.8386 114.497 29.8386Z" fill="url(#paint3_linear_1016_1632)"/>
<path d="M120.631 29.8386C119.309 29.8386 118.673 29.2728 118.673 27.9227V24.0459H117.714V22.94H118.673V21.1784H120.078V22.94H121.331V24.0459H120.078V27.8391C120.078 28.527 120.383 28.7327 120.962 28.7327C121.108 28.7327 121.229 28.7199 121.331 28.707V29.7807C121.172 29.8064 120.911 29.8386 120.631 29.8386Z" fill="url(#paint4_linear_1016_1632)"/>
<path d="M125.158 29.8386C123.193 29.8386 122.005 28.482 122.005 26.3475V26.3411C122.005 24.2259 123.212 22.8115 125.088 22.8115C126.963 22.8115 128.114 24.1744 128.114 26.2061V26.6754H123.378C123.403 27.9548 124.096 28.7006 125.189 28.7006C126.003 28.7006 126.543 28.2763 126.715 27.7684L126.734 27.7169H128.037L128.025 27.7876C127.809 28.8613 126.779 29.8386 125.158 29.8386ZM125.094 23.9494C124.204 23.9494 123.518 24.5602 123.397 25.6917H126.753C126.639 24.5216 125.99 23.9494 125.094 23.9494Z" fill="url(#paint5_linear_1016_1632)"/>
<path d="M129.182 29.7035V22.94H130.555V23.988H130.587C130.873 23.2808 131.553 22.8115 132.43 22.8115C133.352 22.8115 134.026 23.2936 134.293 24.1423H134.325C134.668 23.3194 135.456 22.8115 136.41 22.8115C137.732 22.8115 138.596 23.6987 138.596 25.0552V29.7035H137.217V25.3896C137.217 24.5088 136.753 24.0009 135.939 24.0009C135.126 24.0009 134.56 24.6181 134.56 25.4731V29.7035H133.212V25.2867C133.212 24.5023 132.723 24.0009 131.947 24.0009C131.133 24.0009 130.555 24.6502 130.555 25.5246V29.7035H129.182Z" fill="url(#paint6_linear_1016_1632)"/>
<path d="M142.43 29.8386C140.758 29.8386 139.779 29.0028 139.639 27.7684L139.633 27.7105H140.993L141.006 27.7748C141.133 28.3984 141.591 28.7649 142.436 28.7649C143.263 28.7649 143.758 28.4177 143.758 27.8712V27.8648C143.758 27.4276 143.517 27.1769 142.798 27.0033L141.705 26.7525C140.434 26.4568 139.804 25.8396 139.804 24.8559V24.8495C139.804 23.6408 140.847 22.8115 142.385 22.8115C143.968 22.8115 144.922 23.7051 144.992 24.8559L144.998 24.9331H143.708L143.701 24.8881C143.619 24.2966 143.161 23.8851 142.385 23.8851C141.648 23.8851 141.184 24.2387 141.184 24.7788V24.7852C141.184 25.2031 141.457 25.486 142.175 25.6596L143.263 25.9103C144.629 26.2318 145.151 26.7783 145.151 27.7491V27.7555C145.151 28.9899 144.006 29.8386 142.43 29.8386Z" fill="url(#paint7_linear_1016_1632)"/>
<defs>
<linearGradient id="paint0_linear_1016_1632" x1="79.1924" y1="17.5" x2="85.0491" y2="49.2648" gradientUnits="userSpaceOnUse">
<stop stop-color="#79E6EE"/>
<stop offset="0.526042" stop-color="#3298CE"/>
<stop offset="0.866875" stop-color="#086BBB"/>
</linearGradient>
<linearGradient id="paint1_linear_1016_1632" x1="79.1924" y1="17.5" x2="85.0491" y2="49.2648" gradientUnits="userSpaceOnUse">
<stop stop-color="#79E6EE"/>
<stop offset="0.526042" stop-color="#3298CE"/>
<stop offset="0.866875" stop-color="#086BBB"/>
</linearGradient>
<linearGradient id="paint2_linear_1016_1632" x1="79.1924" y1="17.5" x2="85.0491" y2="49.2648" gradientUnits="userSpaceOnUse">
<stop stop-color="#79E6EE"/>
<stop offset="0.526042" stop-color="#3298CE"/>
<stop offset="0.866875" stop-color="#086BBB"/>
</linearGradient>
<linearGradient id="paint3_linear_1016_1632" x1="79.1924" y1="17.5" x2="85.0491" y2="49.2648" gradientUnits="userSpaceOnUse">
<stop stop-color="#79E6EE"/>
<stop offset="0.526042" stop-color="#3298CE"/>
<stop offset="0.866875" stop-color="#086BBB"/>
</linearGradient>
<linearGradient id="paint4_linear_1016_1632" x1="79.1924" y1="17.5" x2="85.0491" y2="49.2648" gradientUnits="userSpaceOnUse">
<stop stop-color="#79E6EE"/>
<stop offset="0.526042" stop-color="#3298CE"/>
<stop offset="0.866875" stop-color="#086BBB"/>
</linearGradient>
<linearGradient id="paint5_linear_1016_1632" x1="79.1924" y1="17.5" x2="85.0491" y2="49.2648" gradientUnits="userSpaceOnUse">
<stop stop-color="#79E6EE"/>
<stop offset="0.526042" stop-color="#3298CE"/>
<stop offset="0.866875" stop-color="#086BBB"/>
</linearGradient>
<linearGradient id="paint6_linear_1016_1632" x1="79.1924" y1="17.5" x2="85.0491" y2="49.2648" gradientUnits="userSpaceOnUse">
<stop stop-color="#79E6EE"/>
<stop offset="0.526042" stop-color="#3298CE"/>
<stop offset="0.866875" stop-color="#086BBB"/>
</linearGradient>
<linearGradient id="paint7_linear_1016_1632" x1="79.1924" y1="17.5" x2="85.0491" y2="49.2648" gradientUnits="userSpaceOnUse">
<stop stop-color="#79E6EE"/>
<stop offset="0.526042" stop-color="#3298CE"/>
<stop offset="0.866875" stop-color="#086BBB"/>
</linearGradient>
</defs>
</svg>
