<svg width="189" height="26" viewBox="0 0 189 26" fill="none" xmlns="http://www.w3.org/2000/svg">
    <path d="M27.8317 20.1603V3.20216H30.6898V17.4954H38.7364V20.1603H27.8317Z" fill="url(#paint0_linear_2158_3721)"/>
    <path d="M44.5763 20.3298C40.9708 20.3298 38.3325 17.5681 38.3325 13.692C38.3325 9.81582 40.9708 7.0783 44.5763 7.0783C48.2259 7.0783 50.8421 9.81582 50.8421 13.692C50.8421 17.5681 48.2259 20.3298 44.5763 20.3298ZM44.5763 17.7377C46.577 17.7377 48.072 16.163 48.072 13.692C48.072 11.2209 46.577 9.64624 44.5763 9.64624C42.5977 9.64624 41.1027 11.2209 41.1027 13.692C41.1027 16.163 42.5977 17.7377 44.5763 17.7377Z" fill="url(#paint1_linear_2158_3721)"/>
    <path d="M61.6266 7.22365H64.2428V18.198C64.2428 22.8978 62.0223 25.0297 57.9111 25.0297C55.7125 25.0297 53.536 24.3998 52.1949 23.1885L53.4261 20.9113C54.4594 21.8561 56.1303 22.4617 57.7572 22.4617C60.3514 22.4617 61.4946 21.1535 61.4946 18.5371V17.8588C60.5273 19.0216 59.1422 19.5788 57.5593 19.5788C54.1956 19.5788 51.6233 17.0594 51.6233 13.3043C51.6233 9.54934 54.1956 7.0783 57.5593 7.0783C59.2082 7.0783 60.6592 7.65972 61.6266 8.94369V7.22365ZM57.977 17.0109C60.0436 17.0109 61.5386 15.5089 61.5386 13.3043C61.5386 11.124 60.0436 9.64624 57.977 9.64624C55.8884 9.64624 54.3934 11.124 54.3934 13.3043C54.3934 15.5089 55.8884 17.0109 57.977 17.0109Z" fill="url(#paint2_linear_2158_3721)"/>
    <path d="M71.2635 20.3298C67.6579 20.3298 65.0197 17.5681 65.0197 13.692C65.0197 9.81582 67.6579 7.0783 71.2635 7.0783C74.913 7.0783 77.5292 9.81582 77.5292 13.692C77.5292 17.5681 74.913 20.3298 71.2635 20.3298ZM71.2635 17.7377C73.2641 17.7377 74.7591 16.163 74.7591 13.692C74.7591 11.2209 73.2641 9.64624 71.2635 9.64624C69.2848 9.64624 67.7898 11.2209 67.7898 13.692C67.7898 16.163 69.2848 17.7377 71.2635 17.7377Z" fill="url(#paint3_linear_2158_3721)"/>
    <path d="M93.5681 20.1603H90.4902L87.3463 15.194C87.1485 15.2182 86.9506 15.2182 86.7527 15.2182H83.2791V20.1603H80.421V3.20216H86.7527C90.798 3.20216 93.3043 5.47939 93.3043 9.2344C93.3043 11.8023 92.1171 13.692 90.0285 14.5883L93.5681 20.1603ZM90.4243 9.2344C90.4243 7.10252 89.1271 5.867 86.6208 5.867H83.2791V12.626H86.6208C89.1271 12.626 90.4243 11.3663 90.4243 9.2344Z" fill="url(#paint4_linear_2158_3721)"/>
    <path d="M97.8211 17.5196H106.505V20.1603H94.963V3.20216H106.197V5.84278H97.8211V10.2519H105.252V12.8441H97.8211V17.5196Z" fill="url(#paint5_linear_2158_3721)"/>
    <path d="M118.597 16.7686V11.4874H121.301V18.2464C119.696 19.6757 117.454 20.4025 115.277 20.4025C110.506 20.4025 106.989 16.7444 106.989 11.6812C106.989 6.61801 110.506 2.9599 115.321 2.9599C117.893 2.9599 120.048 3.90471 121.499 5.72165L119.696 7.65972C118.487 6.32729 117.102 5.72165 115.453 5.72165C112.177 5.72165 109.869 8.16846 109.869 11.6812C109.869 15.1213 112.177 17.6408 115.431 17.6408C116.53 17.6408 117.608 17.3985 118.597 16.7686Z" fill="url(#paint6_linear_2158_3721)"/>
    <path d="M123.532 20.1603V3.20216H126.39V20.1603H123.532Z" fill="url(#paint7_linear_2158_3721)"/>
    <path fill-rule="evenodd" clip-rule="evenodd" d="M4.40525e-06 11.9563C4.27325e-06 5.91668 4.89606 1.02063 10.9356 1.02063H18.2735C20.6114 1.02063 22.5067 2.91587 22.5067 5.25377L22.5067 12.6547C22.5067 14.6379 21.9787 16.4978 21.0558 18.1016L22.7808 19.7114C23.8098 20.6716 23.8655 22.2842 22.9052 23.3131C21.945 24.3421 20.3324 24.3978 19.3034 23.4376L17.5572 21.8079C15.8374 22.935 13.7807 23.5904 11.571 23.5904H4.23316C1.89524 23.5904 0 21.6951 0 19.3572L4.40525e-06 11.9563ZM16.974 14.2924L15.2736 12.7056C14.2447 11.7453 12.6321 11.8011 11.6718 12.83C10.7116 13.859 10.7673 15.4716 11.7963 16.4318L13.4528 17.9776C12.8642 18.1857 12.2308 18.2989 11.571 18.2989H7.05568C6.08443 18.2989 5.29652 17.5139 5.29189 16.5437L5.29189 11.9563H5.29143C5.29143 8.83904 7.81845 6.31206 10.9356 6.31206H15.451C16.4222 6.31206 17.2101 7.09711 17.2148 8.06728V12.6547L17.2152 12.6547C17.2152 13.2243 17.1309 13.7741 16.974 14.2924Z" fill="url(#paint8_linear_2158_3721)"/>
    <path fill-rule="evenodd" clip-rule="evenodd" d="M130.898 8.97028C130.898 6.17001 130.898 4.76988 131.443 3.70032C131.923 2.75951 132.688 1.99461 133.628 1.51524C134.698 0.970276 136.098 0.970276 138.898 0.970276H181C183.8 0.970276 185.2 0.970276 186.27 1.51524C187.211 1.99461 187.976 2.75951 188.455 3.70032C189 4.76988 189 6.17001 189 8.97028V14.385C189 17.1852 189 18.5854 188.455 19.6549C187.976 20.5957 187.211 21.3606 186.27 21.84C185.2 22.385 183.8 22.385 181 22.385H138.898C136.098 22.385 134.698 22.385 133.628 21.84C132.688 21.3606 131.923 20.5957 131.443 19.6549C130.898 18.5854 130.898 17.1852 130.898 14.385V8.97028ZM171.586 18.4381C171.787 18.2057 171.972 17.9687 172.141 17.7271C172.377 18.0942 172.654 18.44 172.973 18.7643C174.211 20.0449 175.747 20.6851 177.58 20.6851C179.43 20.6851 180.99 20.0577 182.263 18.8028C183.526 17.5393 184.158 15.9728 184.158 14.1033C184.158 12.2508 183.531 10.6885 182.275 9.41655C181.003 8.14457 179.455 7.50858 177.63 7.50858C175.814 7.50858 174.274 8.1403 173.01 9.40375C172.435 9.97908 171.99 10.6102 171.677 11.297H166.794C166.632 11.297 166.551 11.297 166.475 11.3088C166.261 11.3418 166.064 11.4433 165.913 11.5978C165.859 11.6528 165.812 11.7187 165.718 11.8504L165.717 11.8505C165.404 12.2882 165.248 12.5071 165.201 12.6796C165.064 13.1798 165.332 13.7014 165.819 13.8812C165.987 13.9432 166.256 13.9432 166.794 13.9432H168.913C169.463 13.9432 169.738 13.9432 169.995 14.1228C170.18 14.251 170.379 14.5714 170.412 14.7932C170.46 15.1037 170.373 15.279 170.2 15.6296C169.895 16.2497 169.448 16.8153 168.862 17.3265C167.78 18.2609 166.559 18.7281 165.201 18.7281C163.606 18.7281 162.125 18.1038 160.759 16.8552C159.298 15.51 158.567 13.7982 158.567 11.7199C158.567 9.7061 159.223 8.03059 160.534 6.6934C161.845 5.33205 163.468 4.65137 165.402 4.65137C167.034 4.65137 168.477 5.23468 169.733 6.40129L169.733 6.40133L169.733 6.40136C170.082 6.72549 170.257 6.88756 170.362 6.94627C170.767 7.17211 171.135 7.13747 171.491 6.83987C171.583 6.7625 171.696 6.60901 171.922 6.30203L171.922 6.30195C172.044 6.13552 172.106 6.05229 172.148 5.96135C172.285 5.66537 172.259 5.27661 172.083 5.00173C172.029 4.91726 171.966 4.85264 171.841 4.7234C171.015 3.86937 170.296 3.3585 169.359 2.88725C168.119 2.29115 166.785 1.9931 165.355 1.9931C162.694 1.9931 160.435 2.93961 158.579 4.83261C157.406 6.02459 156.603 7.38086 156.172 8.90141C154.917 7.6901 153.4 7.08444 151.619 7.08444C149.803 7.08444 148.263 7.71617 146.999 8.97961C145.735 10.2431 145.104 11.7754 145.104 13.5767C145.104 15.4889 145.723 17.0768 146.962 18.3402C148.2 19.6207 149.736 20.261 151.569 20.261C153.419 20.261 154.979 19.6335 156.252 18.3786C156.675 17.9551 157.028 17.4975 157.31 17.0058C157.657 17.5403 158.065 18.0499 158.532 18.5348C160.356 20.4197 162.548 21.3622 165.106 21.3622C167.728 21.3622 169.888 20.3875 171.586 18.4381ZM174.002 14.052C174.002 15.2984 174.328 16.2844 174.981 17.01C175.651 17.7442 176.534 18.1113 177.63 18.1113C178.735 18.1113 179.618 17.7485 180.279 17.0228C180.94 16.2972 181.271 15.3283 181.271 14.1161C181.271 12.9038 180.94 11.9349 180.279 11.2093C179.609 10.4751 178.726 10.108 177.63 10.108C176.55 10.108 175.676 10.4751 175.006 11.2093C174.337 11.9434 174.002 12.891 174.002 14.052ZM148.97 16.5859C148.317 15.8603 147.991 14.8743 147.991 13.6279C147.991 12.4669 148.326 11.5193 148.995 10.7851C149.665 10.051 150.539 9.6839 151.619 9.6839C152.716 9.6839 153.599 10.051 154.268 10.7851C154.929 11.5108 155.26 12.4797 155.26 13.6919C155.26 14.9042 154.929 15.8731 154.268 16.5987C153.607 17.3243 152.724 17.6871 151.619 17.6871C150.523 17.6871 149.64 17.3201 148.97 16.5859ZM143.668 6.63118C143.882 6.52219 144.162 6.52219 144.722 6.52219H146.164C146.539 6.52219 146.726 6.52219 146.877 6.47272C147.18 6.37365 147.418 6.13595 147.517 5.83282C147.567 5.68144 147.567 5.4943 147.567 5.12002C147.567 4.74573 147.567 4.55859 147.517 4.40721C147.418 4.10408 147.18 3.86638 146.877 3.76732C146.726 3.71785 146.539 3.71785 146.164 3.71785H137.143C136.768 3.71785 136.581 3.71785 136.43 3.76732C136.127 3.86638 135.889 4.10408 135.79 4.40721C135.741 4.55859 135.741 4.74573 135.741 5.12002C135.741 5.4943 135.741 5.68144 135.79 5.83282C135.889 6.13595 136.127 6.37365 136.43 6.47272C136.581 6.52219 136.768 6.52219 137.143 6.52219H138.597C139.157 6.52219 139.437 6.52219 139.651 6.63118C139.839 6.72705 139.992 6.88003 140.088 7.0682C140.197 7.28211 140.197 7.56213 140.197 8.12219V18.3802C140.197 18.811 140.197 19.0264 140.263 19.1981C140.364 19.4651 140.575 19.6759 140.842 19.7774C141.014 19.8427 141.229 19.8427 141.66 19.8427C142.091 19.8427 142.306 19.8427 142.478 19.7774C142.745 19.6759 142.956 19.4651 143.057 19.1981C143.122 19.0264 143.122 18.811 143.122 18.3802V8.12219C143.122 7.56213 143.122 7.28211 143.231 7.0682C143.327 6.88003 143.48 6.72705 143.668 6.63118Z" fill="url(#paint9_linear_2158_3721)"/>
    <defs>
        <linearGradient id="paint0_linear_2158_3721" x1="77.1108" y1="2.9599" x2="77.1108" y2="25.0297" gradientUnits="userSpaceOnUse">
            <stop stop-color="#704040"/>
            <stop offset="1" stop-color="#431A1A"/>
        </linearGradient>
        <linearGradient id="paint1_linear_2158_3721" x1="77.1108" y1="2.9599" x2="77.1108" y2="25.0297" gradientUnits="userSpaceOnUse">
            <stop stop-color="#704040"/>
            <stop offset="1" stop-color="#431A1A"/>
        </linearGradient>
        <linearGradient id="paint2_linear_2158_3721" x1="77.1108" y1="2.9599" x2="77.1108" y2="25.0297" gradientUnits="userSpaceOnUse">
            <stop stop-color="#704040"/>
            <stop offset="1" stop-color="#431A1A"/>
        </linearGradient>
        <linearGradient id="paint3_linear_2158_3721" x1="77.1108" y1="2.9599" x2="77.1108" y2="25.0297" gradientUnits="userSpaceOnUse">
            <stop stop-color="#704040"/>
            <stop offset="1" stop-color="#431A1A"/>
        </linearGradient>
        <linearGradient id="paint4_linear_2158_3721" x1="77.1108" y1="2.9599" x2="77.1108" y2="25.0297" gradientUnits="userSpaceOnUse">
            <stop stop-color="#704040"/>
            <stop offset="1" stop-color="#431A1A"/>
        </linearGradient>
        <linearGradient id="paint5_linear_2158_3721" x1="77.1108" y1="2.9599" x2="77.1108" y2="25.0297" gradientUnits="userSpaceOnUse">
            <stop stop-color="#704040"/>
            <stop offset="1" stop-color="#431A1A"/>
        </linearGradient>
        <linearGradient id="paint6_linear_2158_3721" x1="77.1108" y1="2.9599" x2="77.1108" y2="25.0297" gradientUnits="userSpaceOnUse">
            <stop stop-color="#704040"/>
            <stop offset="1" stop-color="#431A1A"/>
        </linearGradient>
        <linearGradient id="paint7_linear_2158_3721" x1="77.1108" y1="2.9599" x2="77.1108" y2="25.0297" gradientUnits="userSpaceOnUse">
            <stop stop-color="#704040"/>
            <stop offset="1" stop-color="#431A1A"/>
        </linearGradient>
        <linearGradient id="paint8_linear_2158_3721" x1="11.7952" y1="1.02063" x2="11.7952" y2="24.1228" gradientUnits="userSpaceOnUse">
            <stop stop-color="#704040"/>
            <stop offset="1" stop-color="#431A1A"/>
        </linearGradient>
        <linearGradient id="paint9_linear_2158_3721" x1="159.949" y1="0.970276" x2="159.949" y2="22.385" gradientUnits="userSpaceOnUse">
            <stop stop-color="#704040"/>
            <stop offset="1" stop-color="#431A1A"/>
        </linearGradient>
    </defs>
</svg>
