<svg width="167" height="36" viewBox="0 0 167 36" fill="none" xmlns="http://www.w3.org/2000/svg">
<path d="M37.1135 17.1076C37.1135 13.6529 38.3799 10.6856 40.9127 8.20576C43.4349 5.72596 46.4658 4.48605 50.0054 4.48605C53.5025 4.48605 56.5016 5.73655 59.0026 8.23756C61.5142 10.7386 62.77 13.7429 62.77 17.2507C62.77 20.7797 61.5089 23.7735 58.9867 26.2321C56.4539 28.7013 53.3965 29.9359 49.8146 29.9359C46.646 29.9359 43.8005 28.8391 41.2783 26.6454C38.5018 24.2186 37.1135 21.0393 37.1135 17.1076ZM40.8491 17.1553C40.8491 19.8683 41.7605 22.0991 43.5833 23.8476C45.3955 25.5962 47.4885 26.4705 49.8623 26.4705C52.4375 26.4705 54.61 25.5803 56.3797 23.8C58.1495 21.9984 59.0344 19.8047 59.0344 17.2189C59.0344 14.6013 58.1601 12.4077 56.4115 10.6379C54.6735 8.85751 52.5223 7.96732 49.9577 7.96732C47.4037 7.96732 45.2471 8.85751 43.4879 10.6379C41.7287 12.3971 40.8491 14.5695 40.8491 17.1553Z" fill="#2C7A7B"/>
<path d="M63.163 14.5246C63.163 14.2392 63.3943 14.0079 63.6797 14.0079H66.3442C66.5626 14.0079 66.7396 14.1849 66.7396 14.4033C66.7396 14.7602 67.1813 14.9401 67.45 14.7054C67.8249 14.3778 68.171 14.1347 68.4882 13.9761C69.0075 13.7112 69.6221 13.5787 70.3322 13.5787C71.1467 13.5787 71.9929 13.8079 72.8707 14.2664C73.1103 14.3915 73.1954 14.6875 73.0745 14.9293L71.9228 17.2328C71.7805 17.5173 71.4186 17.6035 71.139 17.4516C70.6386 17.1799 70.1472 17.0441 69.6645 17.0441C67.7146 17.0441 66.7396 18.5171 66.7396 21.4632V28.974C66.7396 29.2594 66.5083 29.4908 66.2229 29.4908H63.6797C63.3943 29.4908 63.163 29.2594 63.163 28.974V14.5246Z" fill="#2C7A7B"/>
<path d="M85.1252 3.15884C85.1252 2.87345 85.3565 2.64209 85.6419 2.64209H88.201C88.4864 2.64209 88.7177 2.87345 88.7177 3.15884V28.974C88.7177 29.2594 88.4864 29.4908 88.201 29.4908H85.6055C85.3402 29.4908 85.1252 29.2758 85.1252 29.0105C85.1252 28.5852 84.6007 28.358 84.2594 28.6117C83.0719 29.4945 81.7656 29.9359 80.3404 29.9359C78.2209 29.9359 76.4617 29.1623 75.0629 27.615C73.6746 26.036 72.9805 24.0649 72.9805 21.7017C72.9805 19.3914 73.6746 17.4627 75.0629 15.9154C76.4406 14.3576 78.1732 13.5787 80.2609 13.5787C81.6827 13.5787 82.9871 14.0353 84.1741 14.9486C84.5425 15.2321 85.1252 14.9887 85.1252 14.5238V3.15884ZM76.6366 21.7017C76.6366 23.1853 77.034 24.3934 77.8288 25.326C78.6448 26.2692 79.6728 26.7408 80.9127 26.7408C82.2374 26.7408 83.3077 26.2851 84.1237 25.3737C84.9397 24.4305 85.3477 23.233 85.3477 21.7811C85.3477 20.3293 84.9397 19.1318 84.1237 18.1886C83.3077 17.2666 82.248 16.8056 80.9445 16.8056C79.7152 16.8056 78.6872 17.2719 77.8606 18.2045C77.0446 19.1477 76.6366 20.3134 76.6366 21.7017Z" fill="#2C7A7B"/>
<path d="M104.9 22.0848C104.895 22.3664 104.665 22.5918 104.383 22.5918H94.3519C94.0513 22.5918 93.8118 22.8482 93.8591 23.145C94.0211 24.1605 94.413 24.9881 95.0349 25.628C95.7661 26.3698 96.704 26.7408 97.8485 26.7408C98.7387 26.7408 99.4752 26.5288 100.058 26.1049C100.56 25.7333 101.123 25.0848 101.746 24.1594C101.899 23.9327 102.2 23.8562 102.438 23.9894L104.572 25.18C104.826 25.3212 104.914 25.6434 104.759 25.8881C104.375 26.4936 103.974 27.0268 103.555 27.4879C103.036 28.0495 102.48 28.5158 101.886 28.8867C101.293 29.2471 100.652 29.512 99.9627 29.6816C99.2739 29.8511 98.5268 29.9359 97.7213 29.9359C95.4111 29.9359 93.5565 29.1941 92.1577 27.7104C90.7588 26.2162 90.0594 24.2344 90.0594 21.7652C90.0594 19.3172 90.7376 17.3355 92.0941 15.8201C93.4612 14.3258 95.2733 13.5787 97.5306 13.5787C99.8091 13.5787 101.611 14.3046 102.935 15.7565C104.249 17.1977 104.906 19.1953 104.906 21.7493L104.9 22.0848ZM100.55 19.6669C100.888 19.6669 101.137 19.3453 101.012 19.0305C100.426 17.5473 99.2922 16.8056 97.6101 16.8056C97.1756 16.8056 96.7676 16.8745 96.3861 17.0123C96.0046 17.1394 95.6548 17.3302 95.3369 17.5845C95.0296 17.8283 94.7647 18.125 94.5421 18.4747C94.4311 18.6491 94.3333 18.8354 94.2487 19.0336C94.1157 19.3449 94.3644 19.6669 94.7029 19.6669H100.55Z" fill="#2C7A7B"/>
<path d="M106.375 14.5246C106.375 14.2392 106.607 14.0079 106.892 14.0079H109.556C109.775 14.0079 109.952 14.1849 109.952 14.4033C109.952 14.7602 110.394 14.9401 110.662 14.7054C111.037 14.3778 111.383 14.1347 111.7 13.9761C112.22 13.7112 112.834 13.5787 113.544 13.5787C114.359 13.5787 115.205 13.8079 116.083 14.2664C116.323 14.3915 116.408 14.6875 116.287 14.9293L115.135 17.2328C114.993 17.5173 114.631 17.6035 114.351 17.4516C113.851 17.1799 113.359 17.0441 112.877 17.0441C110.927 17.0441 109.952 18.5171 109.952 21.4632V28.974C109.952 29.2594 109.721 29.4908 109.435 29.4908H106.892C106.607 29.4908 106.375 29.2594 106.375 28.974V14.5246Z" fill="#2C7A7B"/>
<path d="M122.422 4.94704C122.708 4.94704 122.939 5.1784 122.939 5.46379V25.4928C122.939 25.7782 123.17 26.0095 123.456 26.0095H129.639C129.925 26.0095 130.156 26.2409 130.156 26.5263V28.974C130.156 29.2594 129.925 29.4908 129.639 29.4908H119.752C119.467 29.4908 119.235 29.2594 119.235 28.974V5.46379C119.235 5.1784 119.467 4.94704 119.752 4.94704H122.422Z" fill="url(#paint0_linear_1016_1611)"/>
<path d="M134.743 14.0079C135.029 14.0079 135.26 14.2392 135.26 14.5246V28.974C135.26 29.2594 135.029 29.4908 134.743 29.4908H132.2C131.915 29.4908 131.683 29.2594 131.683 28.974V14.5246C131.683 14.2392 131.915 14.0079 132.2 14.0079H134.743ZM131.143 7.56992C131.143 6.94467 131.371 6.40419 131.826 5.9485C132.282 5.49281 132.828 5.26497 133.464 5.26497C134.11 5.26497 134.661 5.49281 135.117 5.9485C135.573 6.3936 135.8 6.93937 135.8 7.58581C135.8 8.23226 135.573 8.78333 135.117 9.23902C134.672 9.69471 134.126 9.92256 133.48 9.92256C132.833 9.92256 132.282 9.69471 131.826 9.23902C131.371 8.78333 131.143 8.22696 131.143 7.56992Z" fill="url(#paint1_linear_1016_1611)"/>
<path d="M137.837 14.5246C137.837 14.2392 138.068 14.0079 138.354 14.0079H141.009C141.241 14.0079 141.43 14.1963 141.43 14.4287C141.43 14.8027 141.892 15.0012 142.19 14.7754C143.244 13.9776 144.4 13.5787 145.658 13.5787C147.46 13.5787 148.864 14.1457 149.87 15.2796C150.739 16.244 151.174 17.8177 151.174 20.0008V28.974C151.174 29.2594 150.943 29.4908 150.657 29.4908H148.098C147.813 29.4908 147.581 29.2594 147.581 28.974V20.8433C147.581 19.3172 147.369 18.2628 146.946 17.6799C146.532 17.0865 145.78 16.7897 144.688 16.7897C143.501 16.7897 142.659 17.1818 142.161 17.966C141.673 18.7397 141.43 20.0908 141.43 22.0196V28.974C141.43 29.2594 141.198 29.4908 140.913 29.4908H138.354C138.068 29.4908 137.837 29.2594 137.837 28.974V14.5246Z" fill="url(#paint2_linear_1016_1611)"/>
<path d="M156.485 2.64209C156.771 2.64209 157.002 2.87345 157.002 3.15884V17.7732C157.002 18.2328 157.557 18.4637 157.883 18.1398L161.89 14.1581C161.987 14.0619 162.118 14.0079 162.254 14.0079H165.564C166.029 14.0079 166.257 14.5732 165.923 14.8961L160.457 20.1817C160.265 20.3674 160.246 20.6687 160.413 20.8769L166.659 28.6504C166.931 28.9885 166.69 29.4908 166.257 29.4908H162.945C162.786 29.4908 162.636 29.4178 162.538 29.2927L157.934 23.4166C157.743 23.1725 157.381 23.1506 157.162 23.3699L157.154 23.3784C157.057 23.4753 157.002 23.6067 157.002 23.7438V28.974C157.002 29.2594 156.771 29.4908 156.485 29.4908H153.942C153.657 29.4908 153.426 29.2594 153.426 28.974V3.15884C153.426 2.87345 153.657 2.64209 153.942 2.64209H156.485Z" fill="url(#paint3_linear_1016_1611)"/>
<path d="M0 14.8464C0 10.7827 1.48963 7.29234 4.46889 4.3754C7.43569 1.45847 11.0008 0 15.1643 0C19.2779 0 22.8057 1.47093 25.7476 4.4128C28.7019 7.35466 30.1791 10.8886 30.1791 15.0147C30.1791 19.1658 28.6957 22.6873 25.7289 25.5793C22.7496 28.4837 19.1533 29.936 14.9399 29.936C11.2127 29.936 7.86575 28.6458 4.89895 26.0654C1.63298 23.2108 0 19.4712 0 14.8464ZM4.3941 14.9025C4.3941 18.0937 5.46614 20.7177 7.61021 22.7745C9.74181 24.8313 12.2038 25.8597 14.996 25.8597C18.0252 25.8597 20.5806 24.8126 22.6623 22.7184C24.7441 20.5993 25.785 18.0189 25.785 14.9773C25.785 11.8984 24.7565 9.31799 22.6997 7.23624C20.6554 5.14203 18.1249 4.09493 15.1082 4.09493C12.104 4.09493 9.5673 5.14203 7.49802 7.23624C5.42874 9.30552 4.3941 11.861 4.3941 14.9025Z" fill="url(#paint4_linear_1016_1611)"/>
<path fill-rule="evenodd" clip-rule="evenodd" d="M23.793 35.9998C26.0822 35.9998 28.1329 35.1141 29.9452 33.3427C30.0311 33.2433 30.1209 33.1432 30.2132 33.0402C30.8345 32.347 31.7898 31.1636 32.3082 29.5291C32.6533 28.4413 32.9605 27.0903 32.9605 25.5144C32.9605 24.4357 32.7516 22.9494 32.3462 21.6177C31.861 20.0235 30.8483 18.7078 29.9867 17.8772C29.9728 17.8612 29.959 17.8452 29.9452 17.8293C28.1057 15.9216 26.0209 14.9678 23.6908 14.9678C21.0064 14.9678 18.7785 15.9693 17.0071 17.9723C15.2221 19.9618 14.3296 22.4417 14.3296 25.4122C14.3296 28.4509 15.2221 30.9853 17.0071 33.0156C18.8058 35.0051 21.0677 35.9998 23.793 35.9998ZM20.5636 30.0724C19.5416 28.8733 19.0306 27.3199 19.0306 25.4122C19.0306 23.6272 19.5552 22.1283 20.6044 20.9156C21.6673 19.7165 22.989 19.1169 24.5697 19.1169C26.2457 19.1169 27.6083 19.7097 28.6575 20.8952C29.7067 22.1079 30.2313 23.6476 30.2313 25.5144C30.2313 27.3812 29.7067 28.921 28.6575 30.1337C27.6083 31.3056 26.2321 31.8915 24.5288 31.8915C22.9345 31.8915 21.6128 31.2851 20.5636 30.0724Z" fill="url(#paint5_linear_1016_1611)"/>
<defs>
<linearGradient id="paint0_linear_1016_1611" x1="101.944" y1="2.64209" x2="101.944" y2="29.9359" gradientUnits="userSpaceOnUse">
<stop stop-color="#2BC3C5"/>
<stop offset="1" stop-color="#269E9F"/>
</linearGradient>
<linearGradient id="paint1_linear_1016_1611" x1="101.944" y1="2.64209" x2="101.944" y2="29.9359" gradientUnits="userSpaceOnUse">
<stop stop-color="#2BC3C5"/>
<stop offset="1" stop-color="#269E9F"/>
</linearGradient>
<linearGradient id="paint2_linear_1016_1611" x1="101.944" y1="2.64209" x2="101.944" y2="29.9359" gradientUnits="userSpaceOnUse">
<stop stop-color="#2BC3C5"/>
<stop offset="1" stop-color="#269E9F"/>
</linearGradient>
<linearGradient id="paint3_linear_1016_1611" x1="101.944" y1="2.64209" x2="101.944" y2="29.9359" gradientUnits="userSpaceOnUse">
<stop stop-color="#2BC3C5"/>
<stop offset="1" stop-color="#269E9F"/>
</linearGradient>
<linearGradient id="paint4_linear_1016_1611" x1="15.0895" y1="0" x2="15.0895" y2="29.936" gradientUnits="userSpaceOnUse">
<stop stop-color="#389798"/>
<stop offset="1" stop-color="#256667"/>
</linearGradient>
<linearGradient id="paint5_linear_1016_1611" x1="23.6451" y1="14.9678" x2="23.6451" y2="35.9998" gradientUnits="userSpaceOnUse">
<stop stop-color="#2BC3C5"/>
<stop offset="1" stop-color="#269E9F"/>
</linearGradient>
</defs>
</svg>
