<svg width="477" height="153" viewBox="0 0 477 153" fill="none" xmlns="http://www.w3.org/2000/svg">
<path d="M106.057 48.8879C106.057 39.0153 109.676 30.5358 116.914 23.4494C124.122 16.3629 132.783 12.8197 142.898 12.8197C152.892 12.8197 161.462 16.3932 168.609 23.5402C175.786 30.6872 179.375 39.2727 179.375 49.2967C179.375 59.3813 175.771 67.9365 168.563 74.9624C161.326 82.0185 152.589 85.5466 142.353 85.5466C133.298 85.5466 125.167 82.4122 117.959 76.1434C110.025 69.2084 106.057 60.1232 106.057 48.8879ZM116.732 49.0242C116.732 56.7769 119.337 63.1516 124.546 68.1485C129.724 73.1453 135.705 75.6438 142.489 75.6438C149.848 75.6438 156.056 73.0999 161.114 68.0122C166.171 62.8639 168.7 56.5952 168.7 49.2059C168.7 41.7257 166.201 35.457 161.204 30.3995C156.238 25.3118 150.09 22.768 142.762 22.768C135.463 22.768 129.3 25.3118 124.273 30.3995C119.246 35.4267 116.732 41.6349 116.732 49.0242Z" fill="#2C7A7B"/>
<path d="M180.498 41.5065C180.498 40.691 181.159 40.0298 181.974 40.0298H189.589C190.213 40.0298 190.719 40.5358 190.719 41.1599C190.719 42.1796 191.981 42.6939 192.749 42.023C193.82 41.0869 194.809 40.3922 195.715 39.939C197.199 39.1819 198.956 38.8033 200.985 38.8033C203.313 38.8033 205.731 39.4584 208.239 40.7685C208.924 41.1261 209.167 41.9721 208.822 42.663L205.53 49.2454C205.124 50.0586 204.089 50.3048 203.29 49.8709C201.861 49.0944 200.456 48.7062 199.077 48.7062C193.505 48.7062 190.719 52.9157 190.719 61.3346V82.798C190.719 83.6135 190.057 84.2747 189.242 84.2747H181.974C181.159 84.2747 180.498 83.6135 180.498 82.798V41.5065Z" fill="#2C7A7B"/>
<path d="M243.258 9.027C243.258 8.21144 243.919 7.55029 244.735 7.55029H252.048C252.863 7.55029 253.524 8.21144 253.524 9.027V82.798C253.524 83.6135 252.863 84.2747 252.048 84.2747H244.631C243.873 84.2747 243.258 83.6602 243.258 82.9021C243.258 81.6869 241.759 81.0376 240.784 81.7626C237.391 84.2853 233.658 85.5466 229.585 85.5466C223.528 85.5466 218.501 83.3359 214.504 78.9144C210.536 74.4021 208.553 68.7693 208.553 62.016C208.553 55.4141 210.536 49.9024 214.504 45.4809C218.441 41.0292 223.392 38.8033 229.358 38.8033C233.421 38.8033 237.148 40.1083 240.54 42.7181C241.593 43.5283 243.258 42.8328 243.258 41.5042V9.027ZM219.001 62.016C219.001 66.2557 220.136 69.7081 222.408 72.3731C224.74 75.0684 227.677 76.416 231.22 76.416C235.006 76.416 238.065 75.1138 240.396 72.5094C242.728 69.8141 243.894 66.392 243.894 62.2431C243.894 58.0942 242.728 54.6721 240.396 51.9769C238.065 49.3421 235.036 48.0248 231.311 48.0248C227.798 48.0248 224.861 49.3573 222.499 52.0223C220.167 54.7176 219.001 58.0488 219.001 62.016Z" fill="#2C7A7B"/>
<path d="M299.768 63.111C299.753 63.9156 299.096 64.5598 298.292 64.5598H269.625C268.766 64.5598 268.081 65.2924 268.217 66.1407C268.68 69.0425 269.8 71.4076 271.577 73.2362C273.666 75.3561 276.346 76.416 279.617 76.416C282.161 76.416 284.266 75.8103 285.931 74.599C287.365 73.537 288.973 71.6838 290.756 69.0393C291.193 68.3914 292.051 68.173 292.734 68.5537L298.832 71.9559C299.555 72.3593 299.808 73.2802 299.364 73.9796C298.267 75.7098 297.121 77.2336 295.925 78.551C294.441 80.1561 292.851 81.4886 291.155 82.5485C289.459 83.5782 287.627 84.3353 285.659 84.8198C283.69 85.3043 281.555 85.5466 279.254 85.5466C272.652 85.5466 267.352 83.4267 263.355 79.187C259.357 74.9169 257.358 69.2538 257.358 62.1977C257.358 55.2021 259.297 49.539 263.173 45.2084C267.08 40.9384 272.258 38.8033 278.709 38.8033C285.22 38.8033 290.368 40.8778 294.153 45.0267C297.909 49.1453 299.786 54.8538 299.786 62.1523L299.768 63.111ZM287.336 56.2015C288.303 56.2015 289.014 55.2823 288.658 54.3829C286.983 50.1442 283.743 48.0248 278.936 48.0248C277.694 48.0248 276.528 48.2216 275.438 48.6153C274.348 48.9787 273.348 49.5239 272.44 50.2507C271.562 50.9472 270.805 51.7952 270.169 52.7945C269.851 53.293 269.572 53.8253 269.33 54.3916C268.95 55.2813 269.661 56.2015 270.628 56.2015H287.336Z" fill="#2C7A7B"/>
<path d="M303.984 41.5065C303.984 40.691 304.645 40.0298 305.46 40.0298H313.074C313.699 40.0298 314.204 40.5358 314.204 41.1599C314.204 42.1796 315.467 42.6939 316.235 42.023C317.306 41.0869 318.295 40.3922 319.201 39.939C320.685 39.1819 322.442 38.8033 324.471 38.8033C326.798 38.8033 329.217 39.4584 331.725 40.7685C332.41 41.1261 332.653 41.9721 332.307 42.663L329.016 49.2454C328.61 50.0586 327.575 50.3048 326.776 49.8709C325.346 49.0944 323.942 48.7062 322.563 48.7062C316.991 48.7062 314.204 52.9157 314.204 61.3346V82.798C314.204 83.6135 313.543 84.2747 312.728 84.2747H305.46C304.645 84.2747 303.984 83.6135 303.984 82.798V41.5065Z" fill="#2C7A7B"/>
<path d="M349.841 14.1371C350.656 14.1371 351.317 14.7982 351.317 15.6138V72.8497C351.317 73.6653 351.979 74.3264 352.794 74.3264H370.464C371.28 74.3264 371.941 74.9876 371.941 75.8031V82.798C371.941 83.6135 371.28 84.2747 370.464 84.2747H342.21C341.394 84.2747 340.733 83.6135 340.733 82.798V15.6138C340.733 14.7982 341.394 14.1371 342.21 14.1371H349.841Z" fill="url(#paint0_linear_1012_5438)"/>
<path d="M385.049 40.0298C385.865 40.0298 386.526 40.691 386.526 41.5065V82.798C386.526 83.6135 385.865 84.2747 385.049 84.2747H377.782C376.966 84.2747 376.305 83.6135 376.305 82.798V41.5065C376.305 40.691 376.966 40.0298 377.782 40.0298H385.049ZM374.761 21.6323C374.761 19.8456 375.412 18.3011 376.714 16.9989C378.016 15.6967 379.576 15.0456 381.393 15.0456C383.24 15.0456 384.815 15.6967 386.117 16.9989C387.42 18.2708 388.071 19.8304 388.071 21.6778C388.071 23.5251 387.42 25.0998 386.117 26.4021C384.845 27.7043 383.286 28.3554 381.438 28.3554C379.591 28.3554 378.016 27.7043 376.714 26.4021C375.412 25.0998 374.761 23.5099 374.761 21.6323Z" fill="url(#paint1_linear_1012_5438)"/>
<path d="M393.891 41.5065C393.891 40.691 394.552 40.0298 395.367 40.0298H402.954C403.618 40.0298 404.157 40.5682 404.157 41.2324C404.157 42.3013 405.479 42.8685 406.331 42.2232C409.342 39.9433 412.645 38.8033 416.24 38.8033C421.388 38.8033 425.401 40.4235 428.278 43.6639C430.761 46.4197 432.003 50.9169 432.003 57.1554V82.798C432.003 83.6135 431.342 84.2747 430.526 84.2747H423.213C422.398 84.2747 421.737 83.6135 421.737 82.798V59.563C421.737 55.2021 421.131 52.1888 419.92 50.5232C418.739 48.8273 416.588 47.9794 413.469 47.9794C410.077 47.9794 407.67 49.0999 406.246 51.3409C404.853 53.5516 404.157 57.4128 404.157 62.9245V82.798C404.157 83.6135 403.496 84.2747 402.68 84.2747H395.367C394.552 84.2747 393.891 83.6135 393.891 82.798V41.5065Z" fill="url(#paint2_linear_1012_5438)"/>
<path d="M447.181 7.55029C447.997 7.55029 448.658 8.21144 448.658 9.027V50.7898C448.658 52.1032 450.244 52.763 451.176 51.8373L462.626 40.459C462.903 40.1841 463.277 40.0298 463.667 40.0298H473.125C474.453 40.0298 475.106 41.6453 474.151 42.5681L458.53 57.6726C457.981 58.2031 457.927 59.0643 458.405 59.6592L476.255 81.873C477.031 82.8394 476.344 84.2747 475.104 84.2747H465.639C465.186 84.2747 464.757 84.066 464.477 83.7087L451.321 66.9167C450.775 66.2192 449.741 66.1567 449.115 66.7833L449.09 66.8075C448.814 67.0844 448.658 67.46 448.658 67.8516V82.798C448.658 83.6135 447.997 84.2747 447.181 84.2747H439.914C439.098 84.2747 438.437 83.6135 438.437 82.798V9.027C438.437 8.21144 439.098 7.55029 439.914 7.55029H447.181Z" fill="url(#paint3_linear_1012_5438)"/>
<path d="M0 42.4261C0 30.8132 4.25685 20.839 12.7706 12.5034C21.2487 4.1678 31.4366 0 43.3344 0C55.0898 0 65.1708 4.20342 73.5777 12.6103C82.0202 21.0171 86.2414 31.116 86.2414 42.907C86.2414 54.7692 82.0023 64.8324 73.5243 73.0968C65.0105 81.3968 54.7335 85.5468 42.6932 85.5468C32.0422 85.5468 22.4776 81.8599 13.9995 74.4861C4.66651 66.3286 0 55.6419 0 42.4261ZM12.5568 42.5864C12.5568 51.7056 15.6203 59.2041 21.7474 65.0818C27.8388 70.9595 34.8741 73.8983 42.8535 73.8983C51.5097 73.8983 58.8123 70.906 64.7612 64.9215C70.7101 58.8657 73.6846 51.4919 73.6846 42.8001C73.6846 34.0014 70.7457 26.6276 64.8681 20.6787C59.026 14.6942 51.7947 11.7019 43.1741 11.7019C34.5892 11.7019 27.3401 14.6942 21.4268 20.6787C15.5135 26.592 12.5568 33.8945 12.5568 42.5864Z" fill="url(#paint4_linear_1012_5438)"/>
<path fill-rule="evenodd" clip-rule="evenodd" d="M67.9926 102.876C74.5343 102.876 80.3946 100.345 85.5735 95.2826C85.8191 94.9987 86.0756 94.7126 86.3395 94.4181C88.1149 92.4373 90.8446 89.0556 92.3262 84.3848C93.3123 81.2762 94.1903 77.4153 94.1903 72.9122C94.1903 69.8296 93.5933 65.5821 92.4349 61.7766C91.0482 57.221 88.1543 53.4612 85.6922 51.0877C85.6524 51.0418 85.6129 50.9961 85.5735 50.9506C80.3167 45.4992 74.3591 42.7734 67.7005 42.7734C60.0295 42.7734 53.663 45.6355 48.601 51.3595C43.5 57.0446 40.9495 64.1315 40.9495 72.6201C40.9495 81.3035 43.5 88.5462 48.601 94.3481C53.7409 100.033 60.2048 102.876 67.9926 102.876ZM58.764 85.9373C55.8436 82.5106 54.3834 78.0716 54.3834 72.6201C54.3834 67.5191 55.8826 63.2359 58.8808 59.7703C61.9181 56.3437 65.6952 54.6303 70.2121 54.6303C75.0016 54.6303 78.8955 56.3242 81.8938 59.7119C84.8921 63.1774 86.3912 67.5775 86.3912 72.9122C86.3912 78.2468 84.8921 82.6469 81.8938 86.1125C78.8955 89.4612 74.9626 91.1356 70.0953 91.1356C65.5394 91.1356 61.7623 89.4028 58.764 85.9373Z" fill="url(#paint5_linear_1012_5438)"/>
<path d="M259.791 125.123C258.884 125.123 258.053 124.921 257.297 124.517C256.555 124.099 255.958 123.486 255.504 122.677C255.065 121.868 254.845 120.857 254.845 119.644C254.845 118.431 255.058 117.42 255.484 116.611C255.923 115.803 256.514 115.196 257.256 114.792C258.012 114.387 258.857 114.185 259.791 114.185C260.863 114.185 261.811 114.414 262.635 114.873C263.459 115.331 264.112 115.971 264.593 116.793C265.073 117.602 265.314 118.552 265.314 119.644C265.314 120.736 265.073 121.693 264.593 122.515C264.112 123.337 263.459 123.977 262.635 124.436C261.811 124.894 260.863 125.123 259.791 125.123ZM254 128.924V114.286H255.896V117.177L255.772 119.664L255.978 122.151V128.924H254ZM259.626 123.425C260.327 123.425 260.952 123.27 261.501 122.96C262.065 122.65 262.504 122.212 262.82 121.646C263.15 121.066 263.315 120.399 263.315 119.644C263.315 118.876 263.15 118.215 262.82 117.663C262.504 117.097 262.065 116.659 261.501 116.348C260.952 116.038 260.327 115.883 259.626 115.883C258.939 115.883 258.314 116.038 257.751 116.348C257.201 116.659 256.762 117.097 256.432 117.663C256.116 118.215 255.958 118.876 255.958 119.644C255.958 120.399 256.116 121.066 256.432 121.646C256.762 122.212 257.201 122.65 257.751 122.96C258.314 123.27 258.939 123.425 259.626 123.425Z" fill="black"/>
<path d="M272.107 125.123C271.008 125.123 270.033 124.887 269.181 124.416C268.329 123.944 267.656 123.297 267.161 122.475C266.667 121.639 266.419 120.695 266.419 119.644C266.419 118.579 266.667 117.636 267.161 116.814C267.656 115.991 268.329 115.351 269.181 114.893C270.033 114.421 271.008 114.185 272.107 114.185C273.193 114.185 274.161 114.421 275.013 114.893C275.879 115.351 276.552 115.991 277.033 116.814C277.527 117.622 277.774 118.566 277.774 119.644C277.774 120.709 277.527 121.652 277.033 122.475C276.552 123.297 275.879 123.944 275.013 124.416C274.161 124.887 273.193 125.123 272.107 125.123ZM272.107 123.425C272.808 123.425 273.433 123.27 273.983 122.96C274.546 122.65 274.985 122.212 275.301 121.646C275.617 121.066 275.775 120.399 275.775 119.644C275.775 118.876 275.617 118.215 275.301 117.663C274.985 117.097 274.546 116.659 273.983 116.348C273.433 116.038 272.808 115.883 272.107 115.883C271.407 115.883 270.781 116.038 270.232 116.348C269.682 116.659 269.243 117.097 268.913 117.663C268.583 118.215 268.418 118.876 268.418 119.644C268.418 120.399 268.583 121.066 268.913 121.646C269.243 122.212 269.682 122.65 270.232 122.96C270.781 123.27 271.407 123.425 272.107 123.425Z" fill="black"/>
<path d="M281.899 125.002L277.839 114.286H279.714L283.321 123.991H282.434L286.185 114.286H287.854L291.523 123.991H290.657L294.346 114.286H296.118L292.038 125.002H290.142L286.7 116.146H287.277L283.794 125.002H281.899Z" fill="black"/>
<path d="M302.069 125.123C300.901 125.123 299.871 124.887 298.978 124.416C298.099 123.944 297.412 123.297 296.917 122.475C296.436 121.652 296.196 120.709 296.196 119.644C296.196 118.579 296.429 117.636 296.896 116.814C297.377 115.991 298.03 115.351 298.854 114.893C299.692 114.421 300.633 114.185 301.678 114.185C302.735 114.185 303.67 114.414 304.48 114.873C305.291 115.331 305.923 115.978 306.376 116.814C306.843 117.636 307.077 118.599 307.077 119.705C307.077 119.786 307.07 119.88 307.056 119.988C307.056 120.096 307.049 120.197 307.036 120.291H297.741V118.896H306.005L305.202 119.381C305.215 118.694 305.071 118.081 304.769 117.541C304.467 117.002 304.048 116.584 303.512 116.288C302.99 115.978 302.378 115.823 301.678 115.823C300.991 115.823 300.379 115.978 299.843 116.288C299.308 116.584 298.889 117.009 298.586 117.562C298.284 118.101 298.133 118.721 298.133 119.422V119.745C298.133 120.46 298.298 121.1 298.628 121.666C298.971 122.218 299.445 122.65 300.05 122.96C300.654 123.27 301.348 123.425 302.131 123.425C302.777 123.425 303.361 123.317 303.883 123.101C304.418 122.886 304.886 122.562 305.284 122.131L306.376 123.384C305.882 123.951 305.263 124.382 304.522 124.678C303.793 124.975 302.976 125.123 302.069 125.123Z" fill="black"/>
<path d="M309.206 125.002V114.286H311.102V117.198L310.916 116.47C311.219 115.728 311.727 115.162 312.441 114.771C313.156 114.381 314.035 114.185 315.079 114.185V116.065C314.997 116.052 314.914 116.045 314.832 116.045C314.763 116.045 314.695 116.045 314.626 116.045C313.568 116.045 312.73 116.355 312.112 116.975C311.493 117.595 311.184 118.492 311.184 119.664V125.002H309.206Z" fill="black"/>
<path d="M321.662 125.123C320.494 125.123 319.464 124.887 318.571 124.416C317.692 123.944 317.005 123.297 316.51 122.475C316.029 121.652 315.789 120.709 315.789 119.644C315.789 118.579 316.022 117.636 316.49 116.814C316.97 115.991 317.623 115.351 318.447 114.893C319.285 114.421 320.227 114.185 321.271 114.185C322.329 114.185 323.263 114.414 324.073 114.873C324.884 115.331 325.516 115.978 325.969 116.814C326.436 117.636 326.67 118.599 326.67 119.705C326.67 119.786 326.663 119.88 326.649 119.988C326.649 120.096 326.643 120.197 326.629 120.291H317.335V118.896H325.598L324.795 119.381C324.808 118.694 324.664 118.081 324.362 117.541C324.06 117.002 323.641 116.584 323.105 116.288C322.583 115.978 321.971 115.823 321.271 115.823C320.584 115.823 319.972 115.978 319.437 116.288C318.901 116.584 318.482 117.009 318.179 117.562C317.877 118.101 317.726 118.721 317.726 119.422V119.745C317.726 120.46 317.891 121.1 318.221 121.666C318.564 122.218 319.038 122.65 319.643 122.96C320.247 123.27 320.941 123.425 321.724 123.425C322.37 123.425 322.954 123.317 323.476 123.101C324.012 122.886 324.479 122.562 324.877 122.131L325.969 123.384C325.475 123.951 324.857 124.382 324.115 124.678C323.386 124.975 322.569 125.123 321.662 125.123Z" fill="black"/>
<path d="M333.312 125.123C332.254 125.123 331.306 124.894 330.468 124.436C329.644 123.977 328.991 123.337 328.51 122.515C328.03 121.693 327.789 120.736 327.789 119.644C327.789 118.552 328.03 117.602 328.51 116.793C328.991 115.971 329.644 115.331 330.468 114.873C331.306 114.414 332.254 114.185 333.312 114.185C334.233 114.185 335.064 114.387 335.806 114.792C336.548 115.196 337.138 115.803 337.578 116.611C338.031 117.42 338.258 118.431 338.258 119.644C338.258 120.857 338.038 121.868 337.599 122.677C337.173 123.486 336.589 124.099 335.847 124.517C335.105 124.921 334.26 125.123 333.312 125.123ZM333.477 123.425C334.164 123.425 334.782 123.27 335.332 122.96C335.895 122.65 336.335 122.212 336.651 121.646C336.98 121.066 337.145 120.399 337.145 119.644C337.145 118.876 336.98 118.215 336.651 117.663C336.335 117.097 335.895 116.659 335.332 116.348C334.782 116.038 334.164 115.883 333.477 115.883C332.776 115.883 332.151 116.038 331.602 116.348C331.052 116.659 330.612 117.097 330.283 117.663C329.953 118.215 329.788 118.876 329.788 119.644C329.788 120.399 329.953 121.066 330.283 121.646C330.612 122.212 331.052 122.65 331.602 122.96C332.151 123.27 332.776 123.425 333.477 123.425ZM337.207 125.002V122.111L337.331 119.624L337.125 117.137V110H339.103V125.002H337.207Z" fill="black"/>
<path d="M323.998 144.078C323.064 144.078 322.219 143.875 321.464 143.471C320.722 143.053 320.131 142.44 319.691 141.631C319.265 140.823 319.052 139.812 319.052 138.599C319.052 137.385 319.272 136.375 319.712 135.566C320.165 134.757 320.763 134.151 321.505 133.746C322.26 133.342 323.092 133.14 323.998 133.14C325.07 133.14 326.018 133.369 326.842 133.827C327.667 134.285 328.319 134.926 328.8 135.748C329.281 136.557 329.521 137.507 329.521 138.599C329.521 139.69 329.281 140.647 328.8 141.47C328.319 142.292 327.667 142.932 326.842 143.39C326.018 143.849 325.07 144.078 323.998 144.078ZM318.207 143.956V128.955H320.186V136.092L319.98 138.578L320.103 141.065V143.956H318.207ZM323.834 142.379C324.534 142.379 325.159 142.224 325.709 141.914C326.272 141.604 326.712 141.166 327.028 140.6C327.358 140.021 327.522 139.353 327.522 138.599C327.522 137.83 327.358 137.17 327.028 136.617C326.712 136.051 326.272 135.613 325.709 135.303C325.159 134.993 324.534 134.838 323.834 134.838C323.147 134.838 322.521 134.993 321.958 135.303C321.409 135.613 320.969 136.051 320.639 136.617C320.323 137.17 320.165 137.83 320.165 138.599C320.165 139.353 320.323 140.021 320.639 140.6C320.969 141.166 321.409 141.604 321.958 141.914C322.521 142.224 323.147 142.379 323.834 142.379Z" fill="black"/>
<path d="M331.809 148C331.287 148 330.778 147.912 330.284 147.737C329.789 147.575 329.363 147.333 329.006 147.009L329.851 145.554C330.126 145.81 330.428 146.005 330.758 146.14C331.087 146.275 331.438 146.342 331.809 146.342C332.29 146.342 332.688 146.221 333.004 145.978C333.32 145.736 333.615 145.304 333.89 144.684L334.57 143.208L334.776 142.966L339.063 133.241H341L335.704 145.028C335.388 145.783 335.03 146.376 334.632 146.807C334.247 147.238 333.821 147.542 333.354 147.717C332.887 147.906 332.372 148 331.809 148ZM334.405 144.3L329.418 133.241H331.479L335.724 142.784L334.405 144.3Z" fill="black"/>
<path d="M367.587 103.714C367.64 103.654 367.697 103.598 367.756 103.545C368.133 103.206 368.631 103 369.176 103C369.762 103 370.292 103.238 370.679 103.624C370.685 103.63 370.691 103.636 370.697 103.642L381.967 115.032C382.36 115.424 382.604 115.968 382.604 116.57C382.604 117.193 382.343 117.754 381.926 118.148L376.449 123.694L376.449 123.702C376.435 123.715 376.421 123.728 376.408 123.741L376.408 123.745C376.029 124.135 375.795 124.67 375.795 125.26C375.795 125.851 376.03 126.387 376.411 126.777L376.404 126.779L377.957 128.355C379.803 130.312 381.484 132.794 381.484 135.803C381.484 138.411 380.451 140.775 378.776 142.501C378.716 142.562 378.655 142.623 378.594 142.683L369.017 152.286C368.964 152.346 368.908 152.402 368.848 152.455C368.471 152.794 367.973 153 367.429 153C366.843 153 366.312 152.762 365.925 152.376C365.919 152.37 365.913 152.364 365.907 152.358L354.637 140.968C354.244 140.576 354 140.032 354 139.43C354 138.807 354.261 138.246 354.678 137.852L360.155 132.306L360.155 132.298C360.169 132.285 360.183 132.272 360.196 132.259L360.196 132.255C360.575 131.865 360.809 131.33 360.809 130.74C360.809 130.149 360.574 129.613 360.193 129.223L360.2 129.221L358.648 127.645C356.496 125.892 355.12 123.206 355.12 120.197C355.12 117.589 356.153 115.225 357.828 113.499C357.888 113.438 357.949 113.377 358.01 113.317L367.587 103.714Z" fill="url(#paint6_linear_1012_5438)"/>
<path d="M393.132 128V109.575H396.393V125.229H404.673V128H393.132Z" fill="#3A3E45"/>
<path d="M414.292 128.319C408.958 128.319 405.633 124.655 405.633 118.794V118.768C405.633 112.92 408.983 109.255 414.292 109.255C419.613 109.255 422.938 112.92 422.938 118.768V118.794C422.938 124.655 419.626 128.319 414.292 128.319ZM414.292 125.459C417.591 125.459 419.626 122.854 419.626 118.794V118.768C419.626 114.682 417.553 112.116 414.292 112.116C411.043 112.116 408.958 114.669 408.958 118.768V118.794C408.958 122.892 411.031 125.459 414.292 125.459Z" fill="#3A3E45"/>
<path d="M433.556 128.319C428.234 128.319 424.922 124.667 424.922 118.717V118.704C424.922 112.856 428.234 109.255 433.492 109.255C437.815 109.255 440.621 111.784 441.317 115.18L441.367 115.384H438.056L438.018 115.244C437.322 113.265 435.742 112.116 433.505 112.116C430.219 112.116 428.247 114.542 428.247 118.679V118.692C428.247 122.918 430.307 125.459 433.594 125.459C436.349 125.459 438.245 123.748 438.308 121.169L438.321 120.888H433.796V118.321H441.506V120.313C441.506 125.319 438.549 128.319 433.556 128.319Z" fill="#3A3E45"/>
<path d="M452.213 128.319C446.878 128.319 443.554 124.655 443.554 118.794V118.768C443.554 112.92 446.904 109.255 452.213 109.255C457.534 109.255 460.858 112.92 460.858 118.768V118.794C460.858 124.655 457.547 128.319 452.213 128.319ZM452.213 125.459C455.512 125.459 457.547 122.854 457.547 118.794V118.768C457.547 114.682 455.474 112.116 452.213 112.116C448.964 112.116 446.878 114.669 446.878 118.768V118.794C446.878 122.892 448.951 125.459 452.213 125.459Z" fill="#3A3E45"/>
<path d="M469.871 128.319C465.687 128.319 462.931 126.327 462.717 123.02L462.704 122.829H465.826L465.851 122.982C466.092 124.565 467.697 125.548 469.985 125.548C472.285 125.548 473.726 124.514 473.726 122.931V122.918C473.726 121.539 472.778 120.798 470.427 120.3L468.468 119.892C464.878 119.138 463.108 117.453 463.108 114.708V114.695C463.121 111.452 465.94 109.255 469.871 109.255C473.853 109.255 476.456 111.375 476.646 114.529L476.659 114.746H473.537L473.511 114.593C473.296 112.984 471.893 112.026 469.846 112.026C467.709 112.039 466.382 113.048 466.382 114.516V114.529C466.382 115.831 467.381 116.597 469.58 117.057L471.552 117.466C475.344 118.257 477 119.815 477 122.688V122.701C477 126.136 474.32 128.319 469.871 128.319Z" fill="#3A3E45"/>
<path d="M398.057 145.654C395.111 145.654 393.165 144.24 393.001 141.907L392.992 141.769H394.974L394.992 141.888C395.174 143.11 396.384 143.872 398.138 143.872C399.893 143.872 401.002 143.073 401.002 141.833V141.824C401.002 140.759 400.284 140.18 398.547 139.794L397.12 139.491C394.547 138.94 393.301 137.746 393.301 135.781V135.771C393.31 133.512 395.283 131.96 398.057 131.96C400.793 131.96 402.666 133.466 402.803 135.689L402.812 135.845H400.83L400.821 135.716C400.639 134.486 399.584 133.742 398.029 133.742C396.402 133.751 395.365 134.532 395.365 135.689V135.698C395.365 136.69 396.111 137.296 397.747 137.654L399.184 137.957C401.893 138.536 403.057 139.647 403.057 141.696V141.705C403.057 144.12 401.166 145.654 398.057 145.654Z" fill="url(#paint7_linear_1012_5438)"/>
<path d="M405.785 148.657C405.403 148.657 404.994 148.611 404.757 148.566V147.013C404.912 147.05 405.139 147.087 405.403 147.087C406.33 147.087 406.839 146.839 407.167 145.902L407.33 145.443L403.848 135.771H405.976L408.385 143.633H408.449L410.858 135.771H412.931L409.367 145.884C408.658 147.886 407.658 148.657 405.785 148.657Z" fill="url(#paint8_linear_1012_5438)"/>
<path d="M417.641 145.626C415.25 145.626 413.849 144.433 413.649 142.669L413.64 142.586H415.586L415.604 142.678C415.786 143.569 416.441 144.093 417.65 144.093C418.832 144.093 419.541 143.597 419.541 142.816V142.807C419.541 142.182 419.196 141.824 418.168 141.576L416.604 141.218C414.786 140.795 413.886 139.914 413.886 138.508V138.499C413.886 136.773 415.377 135.588 417.577 135.588C419.841 135.588 421.205 136.864 421.305 138.508L421.314 138.619H419.468L419.459 138.554C419.341 137.709 418.686 137.122 417.577 137.122C416.523 137.122 415.859 137.627 415.859 138.398V138.407C415.859 139.004 416.25 139.409 417.277 139.657L418.832 140.015C420.787 140.474 421.532 141.255 421.532 142.642V142.651C421.532 144.414 419.896 145.626 417.641 145.626Z" fill="url(#paint9_linear_1012_5438)"/>
<path d="M426.415 145.626C424.524 145.626 423.614 144.818 423.614 142.89V137.351H422.241V135.771H423.614V133.255H425.624V135.771H427.415V137.351H425.624V142.77C425.624 143.753 426.06 144.047 426.887 144.047C427.097 144.047 427.269 144.028 427.415 144.01V145.544C427.188 145.581 426.815 145.626 426.415 145.626Z" fill="url(#paint10_linear_1012_5438)"/>
<path d="M432.888 145.626C430.079 145.626 428.379 143.689 428.379 140.639V140.63C428.379 137.608 430.106 135.588 432.788 135.588C435.47 135.588 437.116 137.535 437.116 140.437V141.108H430.342C430.379 142.935 431.37 144.001 432.934 144.001C434.097 144.001 434.87 143.395 435.116 142.669L435.143 142.596H437.007L436.989 142.697C436.68 144.23 435.207 145.626 432.888 145.626ZM432.797 137.213C431.524 137.213 430.542 138.086 430.37 139.702H435.17C435.007 138.031 434.079 137.213 432.797 137.213Z" fill="url(#paint11_linear_1012_5438)"/>
<path d="M438.644 145.434V135.771H440.607V137.269H440.653C441.062 136.258 442.035 135.588 443.29 135.588C444.608 135.588 445.572 136.277 445.954 137.489H445.999C446.49 136.313 447.617 135.588 448.981 135.588C450.872 135.588 452.109 136.855 452.109 138.793V145.434H450.136V139.271C450.136 138.013 449.472 137.287 448.308 137.287C447.145 137.287 446.335 138.169 446.335 139.39V145.434H444.408V139.124C444.408 138.003 443.708 137.287 442.599 137.287C441.435 137.287 440.607 138.215 440.607 139.464V145.434H438.644Z" fill="url(#paint12_linear_1012_5438)"/>
<path d="M457.591 145.626C455.2 145.626 453.8 144.433 453.6 142.669L453.591 142.586H455.537L455.555 142.678C455.737 143.569 456.391 144.093 457.601 144.093C458.782 144.093 459.492 143.597 459.492 142.816V142.807C459.492 142.182 459.146 141.824 458.119 141.576L456.555 141.218C454.737 140.795 453.836 139.914 453.836 138.508V138.499C453.836 136.773 455.327 135.588 457.528 135.588C459.792 135.588 461.156 136.864 461.256 138.508L461.265 138.619H459.419L459.41 138.554C459.292 137.709 458.637 137.122 457.528 137.122C456.473 137.122 455.809 137.627 455.809 138.398V138.407C455.809 139.004 456.2 139.409 457.228 139.657L458.782 140.015C460.737 140.474 461.483 141.255 461.483 142.642V142.651C461.483 144.414 459.846 145.626 457.591 145.626Z" fill="url(#paint13_linear_1012_5438)"/>
<defs>
<linearGradient id="paint0_linear_1012_5438" x1="291.32" y1="7.55029" x2="291.32" y2="85.5466" gradientUnits="userSpaceOnUse">
<stop stop-color="#2BC3C5"/>
<stop offset="1" stop-color="#269E9F"/>
</linearGradient>
<linearGradient id="paint1_linear_1012_5438" x1="291.32" y1="7.55029" x2="291.32" y2="85.5466" gradientUnits="userSpaceOnUse">
<stop stop-color="#2BC3C5"/>
<stop offset="1" stop-color="#269E9F"/>
</linearGradient>
<linearGradient id="paint2_linear_1012_5438" x1="291.32" y1="7.55029" x2="291.32" y2="85.5466" gradientUnits="userSpaceOnUse">
<stop stop-color="#2BC3C5"/>
<stop offset="1" stop-color="#269E9F"/>
</linearGradient>
<linearGradient id="paint3_linear_1012_5438" x1="291.32" y1="7.55029" x2="291.32" y2="85.5466" gradientUnits="userSpaceOnUse">
<stop stop-color="#2BC3C5"/>
<stop offset="1" stop-color="#269E9F"/>
</linearGradient>
<linearGradient id="paint4_linear_1012_5438" x1="43.1207" y1="0" x2="43.1207" y2="85.5468" gradientUnits="userSpaceOnUse">
<stop stop-color="#389798"/>
<stop offset="1" stop-color="#256667"/>
</linearGradient>
<linearGradient id="paint5_linear_1012_5438" x1="67.5699" y1="42.7734" x2="67.5699" y2="102.876" gradientUnits="userSpaceOnUse">
<stop stop-color="#2BC3C5"/>
<stop offset="1" stop-color="#269E9F"/>
</linearGradient>
<linearGradient id="paint6_linear_1012_5438" x1="367.147" y1="128" x2="375.505" y2="173.382" gradientUnits="userSpaceOnUse">
<stop stop-color="#79E6EE"/>
<stop offset="0.526042" stop-color="#3298CE"/>
<stop offset="0.866875" stop-color="#086BBB"/>
</linearGradient>
<linearGradient id="paint7_linear_1012_5438" x1="367.147" y1="128" x2="375.505" y2="173.382" gradientUnits="userSpaceOnUse">
<stop stop-color="#79E6EE"/>
<stop offset="0.526042" stop-color="#3298CE"/>
<stop offset="0.866875" stop-color="#086BBB"/>
</linearGradient>
<linearGradient id="paint8_linear_1012_5438" x1="367.147" y1="128" x2="375.505" y2="173.382" gradientUnits="userSpaceOnUse">
<stop stop-color="#79E6EE"/>
<stop offset="0.526042" stop-color="#3298CE"/>
<stop offset="0.866875" stop-color="#086BBB"/>
</linearGradient>
<linearGradient id="paint9_linear_1012_5438" x1="367.147" y1="128" x2="375.505" y2="173.382" gradientUnits="userSpaceOnUse">
<stop stop-color="#79E6EE"/>
<stop offset="0.526042" stop-color="#3298CE"/>
<stop offset="0.866875" stop-color="#086BBB"/>
</linearGradient>
<linearGradient id="paint10_linear_1012_5438" x1="367.147" y1="128" x2="375.505" y2="173.382" gradientUnits="userSpaceOnUse">
<stop stop-color="#79E6EE"/>
<stop offset="0.526042" stop-color="#3298CE"/>
<stop offset="0.866875" stop-color="#086BBB"/>
</linearGradient>
<linearGradient id="paint11_linear_1012_5438" x1="367.147" y1="128" x2="375.505" y2="173.382" gradientUnits="userSpaceOnUse">
<stop stop-color="#79E6EE"/>
<stop offset="0.526042" stop-color="#3298CE"/>
<stop offset="0.866875" stop-color="#086BBB"/>
</linearGradient>
<linearGradient id="paint12_linear_1012_5438" x1="367.147" y1="128" x2="375.505" y2="173.382" gradientUnits="userSpaceOnUse">
<stop stop-color="#79E6EE"/>
<stop offset="0.526042" stop-color="#3298CE"/>
<stop offset="0.866875" stop-color="#086BBB"/>
</linearGradient>
<linearGradient id="paint13_linear_1012_5438" x1="367.147" y1="128" x2="375.505" y2="173.382" gradientUnits="userSpaceOnUse">
<stop stop-color="#79E6EE"/>
<stop offset="0.526042" stop-color="#3298CE"/>
<stop offset="0.866875" stop-color="#086BBB"/>
</linearGradient>
</defs>
</svg>
