<svg width="298" height="36" viewBox="0 0 298 36" fill="none" xmlns="http://www.w3.org/2000/svg">
<path fill-rule="evenodd" clip-rule="evenodd" d="M197.311 4.97027C196.33 6.89547 196.33 9.41571 196.33 14.4562V17.3319C196.33 22.3724 196.33 24.8926 197.311 26.8178C198.174 28.5113 199.551 29.8881 201.244 30.751C203.169 31.7319 205.69 31.7319 210.73 31.7319H283.41C288.45 31.7319 290.971 31.7319 292.896 30.751C294.589 29.8881 295.966 28.5113 296.829 26.8178C297.81 24.8926 297.81 22.3724 297.81 17.3319V14.4562C297.81 9.41571 297.81 6.89547 296.829 4.97027C295.966 3.27681 294.589 1.89998 292.896 1.03712C290.971 0.0561829 288.45 0.0561829 283.41 0.0561829H210.73C205.69 0.0561829 203.169 0.0561829 201.244 1.03712C199.551 1.89998 198.174 3.27681 197.311 4.97027ZM288.014 11.1994C287.052 10.684 285.955 10.4263 284.724 10.4263C283.377 10.4263 282.184 10.7149 281.145 11.2922C280.459 11.6667 279.882 12.1532 279.414 12.7517V10.6118H275.98V27.1258H279.587V18.776C279.587 17.6627 279.76 16.7453 280.106 16.0237C280.472 15.2815 280.982 14.7248 281.636 14.3537C282.29 13.9826 283.04 13.7971 283.887 13.7971C285.041 13.7971 285.936 14.1579 286.571 14.8795C287.225 15.6011 287.552 16.6937 287.552 18.1575V27.1258H291.159V17.6627C291.159 15.9928 290.88 14.6321 290.322 13.5806C289.765 12.5085 288.995 11.7148 288.014 11.1994ZM269.658 27.1256V10.6116H273.265V27.1256H269.658ZM271.476 7.89023C270.802 7.89023 270.244 7.66345 269.802 7.20988C269.379 6.75631 269.167 6.20997 269.167 5.57085C269.167 4.91111 269.379 4.36477 269.802 3.93182C270.244 3.47825 270.802 3.25146 271.476 3.25146C272.149 3.25146 272.697 3.46794 273.121 3.90089C273.563 4.31323 273.784 4.83895 273.784 5.47807C273.784 6.15842 273.573 6.73569 273.149 7.20988C272.726 7.66345 272.168 7.89023 271.476 7.89023ZM264.009 11.1994C263.066 10.684 261.979 10.4263 260.748 10.4263C259.228 10.4263 257.891 10.7974 256.737 11.5396C256.028 11.9953 255.443 12.5442 254.98 13.1864C254.609 12.5291 254.127 11.9904 253.533 11.5705C252.475 10.8077 251.225 10.4263 249.782 10.4263C248.512 10.4263 247.377 10.7046 246.376 11.2612C245.727 11.6297 245.179 12.1111 244.731 12.7053V10.6118H241.297V27.1258H244.905V18.7451C244.905 17.6318 245.068 16.7144 245.395 15.9928C245.742 15.2712 246.213 14.7248 246.809 14.3537C247.425 13.9826 248.127 13.7971 248.916 13.7971C250.032 13.7971 250.888 14.1579 251.484 14.8795C252.081 15.6011 252.379 16.6937 252.379 18.1575V27.1258H255.986V18.7451C255.986 17.6318 256.15 16.7144 256.477 15.9928C256.823 15.2712 257.295 14.7248 257.891 14.3537C258.507 13.9826 259.209 13.7971 259.998 13.7971C261.114 13.7971 261.97 14.1579 262.566 14.8795C263.163 15.6011 263.461 16.6937 263.461 18.1575V27.1258H267.068V17.6627C267.068 15.9928 266.799 14.6321 266.26 13.5806C265.721 12.5085 264.971 11.7148 264.009 11.1994ZM230.027 27.3421C228.545 27.3421 227.208 26.9916 226.015 26.2907C224.842 25.5691 223.918 24.5795 223.245 23.3218C222.572 22.0642 222.235 20.5798 222.235 18.8686C222.235 17.1574 222.572 15.673 223.245 14.4154C223.918 13.1578 224.842 12.1785 226.015 11.4775C227.208 10.7766 228.545 10.4261 230.027 10.4261C231.316 10.4261 232.47 10.7353 233.49 11.3538C234.055 11.6853 234.555 12.1149 234.99 12.6427V4.1792H238.569V27.1256H235.135V24.9791C234.684 25.5674 234.155 26.0458 233.548 26.4144C232.528 27.0329 231.354 27.3421 230.027 27.3421ZM230.46 24.0331C231.325 24.0331 232.095 23.827 232.768 23.4146C233.461 23.0023 234.009 22.4044 234.413 21.621C234.837 20.8375 235.048 19.9201 235.048 18.8686C235.048 17.7966 234.837 16.8791 234.413 16.1163C234.009 15.3329 233.461 14.735 232.768 14.3226C232.095 13.9103 231.325 13.7041 230.46 13.7041C229.594 13.7041 228.815 13.9103 228.122 14.3226C227.449 14.735 226.9 15.3329 226.477 16.1163C226.073 16.8791 225.871 17.7966 225.871 18.8686C225.871 19.9201 226.073 20.8375 226.477 21.621C226.9 22.4044 227.449 23.0023 228.122 23.4146C228.815 23.827 229.594 24.0331 230.46 24.0331ZM210.63 5.4781L201.539 27.1257H205.406L207.407 22.1158H217.511L219.518 27.1257H223.443L214.324 5.4781H210.63ZM216.246 18.9615L212.449 9.48756L208.666 18.9615H216.246Z" fill="url(#paint0_linear_2298_119)"/>
<path d="M40.883 28.115V3.20457H45.0813V24.2005H56.9013V28.115H40.883Z" fill="url(#paint1_linear_2298_119)"/>
<path d="M65.4799 28.3641C60.1835 28.3641 56.3081 24.3073 56.3081 18.6135C56.3081 12.9197 60.1835 8.89839 65.4799 8.89839C70.8409 8.89839 74.684 12.9197 74.684 18.6135C74.684 24.3073 70.8409 28.3641 65.4799 28.3641ZM65.4799 24.5564C68.4187 24.5564 70.6148 22.2433 70.6148 18.6135C70.6148 14.9837 68.4187 12.6705 65.4799 12.6705C62.5734 12.6705 60.3773 14.9837 60.3773 18.6135C60.3773 22.2433 62.5734 24.5564 65.4799 24.5564Z" fill="url(#paint2_linear_2298_119)"/>
<path d="M90.5257 9.11191H94.3688V25.2325C94.3688 32.1363 91.107 35.2679 85.0678 35.2679C81.8383 35.2679 78.6411 34.3426 76.6711 32.5633L78.4796 29.2182C79.9975 30.6061 82.4519 31.4957 84.8417 31.4957C88.6526 31.4957 90.3319 29.5741 90.3319 25.7307V24.7343C88.9109 26.4425 86.8763 27.261 84.5511 27.261C79.61 27.261 75.8314 23.56 75.8314 18.0441C75.8314 12.5282 79.61 8.89839 84.5511 8.89839C86.9732 8.89839 89.1047 9.75246 90.5257 11.6385V9.11191ZM85.1647 23.4888C88.2004 23.4888 90.3965 21.2824 90.3965 18.0441C90.3965 14.8413 88.2004 12.6705 85.1647 12.6705C82.0967 12.6705 79.9006 14.8413 79.9006 18.0441C79.9006 21.2824 82.0967 23.4888 85.1647 23.4888Z" fill="url(#paint3_linear_2298_119)"/>
<path d="M104.682 28.3641C99.3853 28.3641 95.5099 24.3073 95.5099 18.6135C95.5099 12.9197 99.3853 8.89839 104.682 8.89839C110.043 8.89839 113.886 12.9197 113.886 18.6135C113.886 24.3073 110.043 28.3641 104.682 28.3641ZM104.682 24.5564C107.621 24.5564 109.817 22.2433 109.817 18.6135C109.817 14.9837 107.621 12.6705 104.682 12.6705C101.775 12.6705 99.5791 14.9837 99.5791 18.6135C99.5791 22.2433 101.775 24.5564 104.682 24.5564Z" fill="url(#paint4_linear_2298_119)"/>
<path d="M137.446 28.115H132.925L128.306 20.8198C128.016 20.8554 127.725 20.8554 127.435 20.8554H122.332V28.115H118.134V3.20457H127.435C133.377 3.20457 137.058 6.54969 137.058 12.0656C137.058 15.8377 135.314 18.6135 132.246 19.9302L137.446 28.115ZM132.828 12.0656C132.828 8.93398 130.922 7.11907 127.241 7.11907H122.332V17.0477H127.241C130.922 17.0477 132.828 15.1972 132.828 12.0656Z" fill="url(#paint5_linear_2298_119)"/>
<path d="M143.693 24.2361H156.45V28.115H139.495V3.20457H155.998V7.08349H143.693V13.5602H154.609V17.3679H143.693V24.2361Z" fill="url(#paint6_linear_2298_119)"/>
<path d="M174.212 23.1329V15.3751H178.184V25.3037C175.827 27.4033 172.532 28.4709 169.335 28.4709C162.327 28.4709 157.16 23.0974 157.16 15.6598C157.16 8.22225 162.327 2.84871 169.4 2.84871C173.178 2.84871 176.343 4.23658 178.475 6.90556L175.827 9.75246C174.05 7.79521 172.016 6.90556 169.594 6.90556C164.782 6.90556 161.391 10.4998 161.391 15.6598C161.391 20.7131 164.782 24.414 169.561 24.414C171.176 24.414 172.758 24.0582 174.212 23.1329Z" fill="url(#paint7_linear_2298_119)"/>
<path d="M181.461 28.115V3.20457H185.659V28.115H181.461Z" fill="url(#paint8_linear_2298_119)"/>
<path fill-rule="evenodd" clip-rule="evenodd" d="M6.47106e-06 16.0638C6.27716e-06 7.19202 7.19202 0 16.0638 0H26.8427C30.2769 0 33.0609 2.784 33.0609 6.21824L33.0609 17.0898C33.0609 20.003 32.2855 22.7351 30.9297 25.0909L33.4636 27.4556C34.9751 28.8661 35.057 31.2349 33.6464 32.7464C32.2359 34.2579 29.8671 34.3397 28.3556 32.9292L25.7904 30.5353C23.2642 32.1909 20.2431 33.1536 16.9972 33.1536H6.21826C2.784 33.1536 0 30.3696 0 26.9354L6.47106e-06 16.0638ZM24.9338 19.4954L22.436 17.1645C20.9246 15.754 18.5558 15.8358 17.1452 17.3473C15.7347 18.8588 15.8165 21.2276 17.328 22.6381L19.7613 24.9089C18.8967 25.2145 17.9664 25.3808 16.9972 25.3808H10.3644C8.93767 25.3808 7.78027 24.2276 7.77347 22.8025L7.77348 16.0638L7.77281 16.0638C7.7728 11.4848 11.4848 7.7728 16.0638 7.7728H22.6966C24.1233 7.7728 25.2807 8.926 25.2875 10.3511L25.2875 17.0898H25.2881C25.2881 17.9264 25.1642 18.7341 24.9338 19.4954Z" fill="url(#paint9_linear_2298_119)"/>
<defs>
<linearGradient id="paint0_linear_2298_119" x1="247.07" y1="0.0561829" x2="247.07" y2="31.7319" gradientUnits="userSpaceOnUse">
<stop stop-color="#704040"/>
<stop offset="1" stop-color="#431A1A"/>
</linearGradient>
<linearGradient id="paint1_linear_2298_119" x1="113.271" y1="2.84871" x2="113.271" y2="35.2679" gradientUnits="userSpaceOnUse">
<stop stop-color="#704040"/>
<stop offset="1" stop-color="#431A1A"/>
</linearGradient>
<linearGradient id="paint2_linear_2298_119" x1="113.271" y1="2.84871" x2="113.271" y2="35.2679" gradientUnits="userSpaceOnUse">
<stop stop-color="#704040"/>
<stop offset="1" stop-color="#431A1A"/>
</linearGradient>
<linearGradient id="paint3_linear_2298_119" x1="113.271" y1="2.84871" x2="113.271" y2="35.2679" gradientUnits="userSpaceOnUse">
<stop stop-color="#704040"/>
<stop offset="1" stop-color="#431A1A"/>
</linearGradient>
<linearGradient id="paint4_linear_2298_119" x1="113.271" y1="2.84871" x2="113.271" y2="35.2679" gradientUnits="userSpaceOnUse">
<stop stop-color="#704040"/>
<stop offset="1" stop-color="#431A1A"/>
</linearGradient>
<linearGradient id="paint5_linear_2298_119" x1="113.271" y1="2.84871" x2="113.271" y2="35.2679" gradientUnits="userSpaceOnUse">
<stop stop-color="#704040"/>
<stop offset="1" stop-color="#431A1A"/>
</linearGradient>
<linearGradient id="paint6_linear_2298_119" x1="113.271" y1="2.84871" x2="113.271" y2="35.2679" gradientUnits="userSpaceOnUse">
<stop stop-color="#704040"/>
<stop offset="1" stop-color="#431A1A"/>
</linearGradient>
<linearGradient id="paint7_linear_2298_119" x1="113.271" y1="2.84871" x2="113.271" y2="35.2679" gradientUnits="userSpaceOnUse">
<stop stop-color="#704040"/>
<stop offset="1" stop-color="#431A1A"/>
</linearGradient>
<linearGradient id="paint8_linear_2298_119" x1="113.271" y1="2.84871" x2="113.271" y2="35.2679" gradientUnits="userSpaceOnUse">
<stop stop-color="#704040"/>
<stop offset="1" stop-color="#431A1A"/>
</linearGradient>
<linearGradient id="paint9_linear_2298_119" x1="17.3265" y1="0" x2="17.3265" y2="33.9358" gradientUnits="userSpaceOnUse">
<stop stop-color="#704040"/>
<stop offset="1" stop-color="#431A1A"/>
</linearGradient>
</defs>
</svg>
