<svg width="3862" height="1554" viewBox="0 0 3862 1554" fill="none" xmlns="http://www.w3.org/2000/svg">
<path d="M426.651 22.9723C428.316 21.1267 430.082 19.3741 431.94 17.7231C443.789 7.19352 459.394 0.797852 476.493 0.797852C494.88 0.797852 511.541 8.19421 523.66 20.174C523.854 20.3654 524.047 20.558 524.238 20.7516L877.88 374.561C890.226 386.73 897.88 403.647 897.88 422.351C897.88 441.694 889.695 459.126 876.599 471.371L704.745 643.63L704.737 643.888C704.3 644.287 703.868 644.691 703.442 645.101L703.458 645.222C691.548 657.331 684.2 673.942 684.2 692.269C684.2 710.639 691.581 727.284 703.54 739.401L703.313 739.48L752.039 788.426C809.977 849.231 862.723 926.307 862.723 1019.8C862.723 1100.81 830.309 1174.24 777.743 1227.85C775.865 1229.76 773.961 1231.65 772.032 1233.52L471.51 1531.83C469.846 1533.67 468.08 1535.42 466.222 1537.08C454.373 1547.6 438.768 1554 421.669 1554C403.282 1554 386.621 1546.6 374.501 1534.62C374.308 1534.43 374.115 1534.24 373.924 1534.05L20.2816 1180.24C7.9356 1168.07 0.282227 1151.15 0.282227 1132.45C0.282227 1113.1 8.46715 1095.67 21.5625 1083.43L193.417 911.169L193.425 910.91C193.862 910.511 194.294 910.107 194.72 909.697L194.704 909.577C206.614 897.467 213.962 880.856 213.962 862.529C213.962 844.16 206.58 827.514 194.622 815.398L194.849 815.318L146.123 766.372C78.6181 711.901 35.4389 628.491 35.4389 534.995C35.4389 453.989 67.8531 380.553 120.419 326.951C122.297 325.036 124.201 323.146 126.13 321.282L426.651 22.9723Z" fill="url(#paint0_linear_811_210)"/>
<path d="M1230.06 747.689V175.323H1332.39V661.616H1592.2V747.689H1230.06Z" fill="#3A3E45"/>
<path d="M1894.05 757.605C1726.66 757.605 1622.35 643.766 1622.35 461.704V460.911C1622.35 279.246 1727.46 165.407 1894.05 165.407C2061.04 165.407 2165.36 279.246 2165.36 460.911V461.704C2165.36 643.766 2061.44 757.605 1894.05 757.605ZM1894.05 668.755C1997.58 668.755 2061.44 587.839 2061.44 461.704V460.911C2061.44 333.983 1996.39 254.257 1894.05 254.257C1792.11 254.257 1726.66 333.587 1726.66 460.911V461.704C1726.66 589.029 1791.71 668.755 1894.05 668.755Z" fill="#3A3E45"/>
<path d="M2498.54 757.605C2331.55 757.605 2227.63 644.163 2227.63 459.324V458.928C2227.63 277.262 2331.55 165.407 2496.56 165.407C2632.21 165.407 2720.27 243.944 2742.09 349.453L2743.67 355.799H2639.75L2638.56 351.436C2616.75 289.955 2567.16 254.257 2496.96 254.257C2393.83 254.257 2331.95 329.62 2331.95 458.135V458.531C2331.95 589.822 2396.6 668.755 2499.73 668.755C2586.2 668.755 2645.7 615.604 2647.68 535.481L2648.08 526.755H2506.08V447.028H2748.04V508.906C2748.04 664.392 2655.22 757.605 2498.54 757.605Z" fill="#3A3E45"/>
<path d="M3084 757.605C2916.61 757.605 2812.29 643.766 2812.29 461.704V460.911C2812.29 279.246 2917.41 165.407 3084 165.407C3250.99 165.407 3355.31 279.246 3355.31 460.911V461.704C3355.31 643.766 3251.38 757.605 3084 757.605ZM3084 668.755C3187.52 668.755 3251.38 587.839 3251.38 461.704V460.911C3251.38 333.983 3186.33 254.257 3084 254.257C2982.06 254.257 2916.61 333.587 2916.61 460.911V461.704C2916.61 589.029 2981.66 668.755 3084 668.755Z" fill="#3A3E45"/>
<path d="M3638.12 757.605C3506.83 757.605 3420.36 695.728 3413.61 592.995L3413.22 587.046H3511.19L3511.98 591.805C3519.52 640.99 3569.89 671.532 3641.69 671.532C3713.88 671.532 3759.1 639.403 3759.1 590.219V589.822C3759.1 546.984 3729.35 523.978 3655.57 508.509L3594.09 495.816C3481.44 472.414 3425.91 420.056 3425.91 334.777V334.38C3426.31 233.631 3514.76 165.407 3638.12 165.407C3763.06 165.407 3844.77 231.251 3850.72 329.223L3851.12 335.966H3753.15L3752.35 331.207C3745.61 281.229 3701.58 251.48 3637.32 251.48C3570.29 251.877 3528.64 283.212 3528.64 328.827V329.223C3528.64 369.682 3559.98 393.481 3628.99 407.76L3690.87 420.453C3809.87 445.045 3861.83 493.436 3861.83 582.682V583.079C3861.83 689.778 3777.74 757.605 3638.12 757.605Z" fill="#3A3E45"/>
<path d="M1384.58 1296.09C1292.14 1296.09 1231.09 1252.16 1225.95 1179.69L1225.66 1175.41H1287.86L1288.43 1179.12C1294.14 1217.06 1332.08 1240.74 1387.15 1240.74C1442.21 1240.74 1477.02 1215.92 1477.02 1177.41V1177.12C1477.02 1144.02 1454.48 1126.05 1399.99 1114.07L1355.19 1104.65C1274.45 1087.53 1235.37 1050.44 1235.37 989.387V989.102C1235.65 918.916 1297.56 870.699 1384.58 870.699C1470.46 870.699 1529.23 917.489 1533.51 986.534L1533.8 991.385H1471.6L1471.32 987.39C1465.61 949.159 1432.51 926.049 1383.73 926.049C1332.66 926.334 1300.13 950.585 1300.13 986.534V986.82C1300.13 1017.63 1323.53 1036.46 1374.88 1047.59L1419.96 1057.01C1504.98 1074.98 1541.5 1109.5 1541.5 1173.13V1173.41C1541.5 1248.45 1482.16 1296.09 1384.58 1296.09Z" fill="url(#paint1_linear_811_210)"/>
<path d="M1627.09 1389.39C1615.11 1389.39 1602.27 1387.96 1594.85 1386.54V1338.32C1599.7 1339.46 1606.84 1340.6 1615.11 1340.6C1644.21 1340.6 1660.19 1332.9 1670.46 1303.8L1675.6 1289.53L1566.32 989.102H1633.09L1708.69 1233.33H1710.69L1786.3 989.102H1851.35L1739.51 1303.23C1717.25 1365.42 1685.87 1389.39 1627.09 1389.39Z" fill="url(#paint2_linear_811_210)"/>
<path d="M1999.14 1295.24C1924.1 1295.24 1880.16 1258.15 1873.89 1203.37L1873.6 1200.8H1934.66L1935.23 1203.65C1940.93 1231.33 1961.48 1247.59 1999.42 1247.59C2036.51 1247.59 2058.77 1232.19 2058.77 1207.93V1207.65C2058.77 1188.25 2047.93 1177.12 2015.69 1169.42L1966.61 1158.29C1909.55 1145.17 1881.31 1117.78 1881.31 1074.12V1073.84C1881.31 1020.2 1928.1 983.396 1997.14 983.396C2068.18 983.396 2110.98 1023.05 2114.12 1074.12L2114.4 1077.55H2056.49L2056.2 1075.55C2052.49 1049.3 2031.95 1031.04 1997.14 1031.04C1964.04 1031.04 1943.22 1046.73 1943.22 1070.7V1070.99C1943.22 1089.53 1955.49 1102.08 1987.73 1109.79L2036.51 1120.91C2097.85 1135.18 2121.25 1159.43 2121.25 1202.51V1202.8C2121.25 1257.58 2069.89 1295.24 1999.14 1295.24Z" fill="url(#paint3_linear_811_210)"/>
<path d="M2274.46 1295.24C2215.12 1295.24 2186.59 1270.13 2186.59 1210.22V1038.18H2143.5V989.102H2186.59V910.927H2249.64V989.102H2305.85V1038.18H2249.64V1206.51C2249.64 1237.04 2263.33 1246.17 2289.3 1246.17C2295.86 1246.17 2301.28 1245.6 2305.85 1245.02V1292.67C2298.71 1293.81 2287.02 1295.24 2274.46 1295.24Z" fill="url(#paint4_linear_811_210)"/>
<path d="M2477.6 1295.24C2389.44 1295.24 2336.09 1235.04 2336.09 1140.32V1140.03C2336.09 1046.16 2390.3 983.396 2474.46 983.396C2558.63 983.396 2610.27 1043.88 2610.27 1134.04V1154.87H2397.71C2398.86 1211.64 2429.95 1244.74 2479.03 1244.74C2515.55 1244.74 2539.8 1225.91 2547.5 1203.37L2548.36 1201.09H2606.85L2606.28 1204.23C2596.58 1251.87 2550.36 1295.24 2477.6 1295.24ZM2474.75 1033.9C2434.81 1033.9 2403.99 1061 2398.57 1111.21H2549.21C2544.08 1059.29 2514.98 1033.9 2474.75 1033.9Z" fill="url(#paint5_linear_811_210)"/>
<path d="M2658.2 1289.25V989.102H2719.83V1035.61H2721.26C2734.09 1004.22 2764.62 983.396 2804 983.396C2845.37 983.396 2875.61 1004.79 2887.59 1042.45H2889.02C2904.42 1005.94 2939.8 983.396 2982.6 983.396C3041.94 983.396 3080.75 1022.77 3080.75 1082.97V1289.25H3018.83V1097.8C3018.83 1058.72 2998.01 1036.18 2961.49 1036.18C2924.97 1036.18 2899.57 1063.57 2899.57 1101.51V1289.25H2839.09V1093.24C2839.09 1058.43 2817.12 1036.18 2782.31 1036.18C2745.79 1036.18 2719.83 1064.99 2719.83 1103.8V1289.25H2658.2Z" fill="url(#paint6_linear_811_210)"/>
<path d="M3252.79 1295.24C3177.75 1295.24 3133.81 1258.15 3127.54 1203.37L3127.25 1200.8H3188.31L3188.88 1203.65C3194.58 1231.33 3215.13 1247.59 3253.07 1247.59C3290.16 1247.59 3312.42 1232.19 3312.42 1207.93V1207.65C3312.42 1188.25 3301.57 1177.12 3269.33 1169.42L3220.26 1158.29C3163.2 1145.17 3134.95 1117.78 3134.95 1074.12V1073.84C3134.95 1020.2 3181.74 983.396 3250.79 983.396C3321.83 983.396 3364.63 1023.05 3367.77 1074.12L3368.05 1077.55H3310.13L3309.85 1075.55C3306.14 1049.3 3285.6 1031.04 3250.79 1031.04C3217.69 1031.04 3196.87 1046.73 3196.87 1070.7V1070.99C3196.87 1089.53 3209.13 1102.08 3241.37 1109.79L3290.16 1120.91C3351.5 1135.18 3374.9 1159.43 3374.9 1202.51V1202.8C3374.9 1257.58 3323.54 1295.24 3252.79 1295.24Z" fill="url(#paint7_linear_811_210)"/>
<defs>
<linearGradient id="paint0_linear_811_210" x1="80.9974" y1="102.381" x2="1443.39" y2="862.595" gradientUnits="userSpaceOnUse">
<stop stop-color="#79E6EE"/>
<stop offset="0.526042" stop-color="#3298CE"/>
<stop offset="0.866875" stop-color="#086BBB"/>
</linearGradient>
<linearGradient id="paint1_linear_811_210" x1="414.651" y1="747.689" x2="671.825" y2="2158.36" gradientUnits="userSpaceOnUse">
<stop stop-color="#79E6EE"/>
<stop offset="0.526042" stop-color="#3298CE"/>
<stop offset="0.866875" stop-color="#086BBB"/>
</linearGradient>
<linearGradient id="paint2_linear_811_210" x1="414.651" y1="747.689" x2="671.825" y2="2158.36" gradientUnits="userSpaceOnUse">
<stop stop-color="#79E6EE"/>
<stop offset="0.526042" stop-color="#3298CE"/>
<stop offset="0.866875" stop-color="#086BBB"/>
</linearGradient>
<linearGradient id="paint3_linear_811_210" x1="414.651" y1="747.689" x2="671.825" y2="2158.36" gradientUnits="userSpaceOnUse">
<stop stop-color="#79E6EE"/>
<stop offset="0.526042" stop-color="#3298CE"/>
<stop offset="0.866875" stop-color="#086BBB"/>
</linearGradient>
<linearGradient id="paint4_linear_811_210" x1="414.651" y1="747.689" x2="671.825" y2="2158.36" gradientUnits="userSpaceOnUse">
<stop stop-color="#79E6EE"/>
<stop offset="0.526042" stop-color="#3298CE"/>
<stop offset="0.866875" stop-color="#086BBB"/>
</linearGradient>
<linearGradient id="paint5_linear_811_210" x1="414.651" y1="747.689" x2="671.825" y2="2158.36" gradientUnits="userSpaceOnUse">
<stop stop-color="#79E6EE"/>
<stop offset="0.526042" stop-color="#3298CE"/>
<stop offset="0.866875" stop-color="#086BBB"/>
</linearGradient>
<linearGradient id="paint6_linear_811_210" x1="414.651" y1="747.689" x2="671.825" y2="2158.36" gradientUnits="userSpaceOnUse">
<stop stop-color="#79E6EE"/>
<stop offset="0.526042" stop-color="#3298CE"/>
<stop offset="0.866875" stop-color="#086BBB"/>
</linearGradient>
<linearGradient id="paint7_linear_811_210" x1="414.651" y1="747.689" x2="671.825" y2="2158.36" gradientUnits="userSpaceOnUse">
<stop stop-color="#79E6EE"/>
<stop offset="0.526042" stop-color="#3298CE"/>
<stop offset="0.866875" stop-color="#086BBB"/>
</linearGradient>
</defs>
</svg>
