<svg width="189" height="27" viewBox="0 0 189 27" fill="none" xmlns="http://www.w3.org/2000/svg">
<path fill-rule="evenodd" clip-rule="evenodd" d="M128.022 3.7201C127.477 4.78966 127.477 6.18979 127.477 8.99005V14.263C127.477 17.0633 127.477 18.4634 128.022 19.533C128.502 20.4738 129.267 21.2387 130.207 21.7181C131.277 22.263 132.677 22.263 135.477 22.263H177.136L179.581 17.689C179.63 17.5959 179.63 17.4839 179.579 17.3914L175.535 10.0705C175.42 9.86282 175.571 9.60821 175.808 9.60821H177.703C177.818 9.60821 177.924 9.67176 177.978 9.77345L180.586 14.6741C180.705 14.898 181.027 14.8935 181.14 14.6663L183.565 9.78128C183.618 9.67526 183.726 9.60821 183.844 9.60821H185.68C185.914 9.60821 186.064 9.85533 185.957 10.0628L179.662 22.263H180.862C183.662 22.263 185.062 22.263 186.132 21.7181C187.072 21.2387 187.837 20.4738 188.317 19.533C188.862 18.4634 188.862 17.0633 188.862 14.263V8.99005C188.862 6.18979 188.862 4.78966 188.317 3.7201C187.837 2.77929 187.072 2.01439 186.132 1.53502C185.062 0.990051 183.662 0.990051 180.862 0.990051H135.477C132.677 0.990051 131.277 0.990051 130.207 1.53502C129.267 2.01439 128.502 2.77929 128.022 3.7201ZM173.02 19.35H174.667C174.839 19.35 174.978 19.2105 174.978 19.0383V4.21844C174.978 4.04632 174.839 3.90679 174.667 3.90679L173.03 3.90717C172.858 3.90717 172.718 4.04754 172.718 4.21965V9.96626C172.718 10.2466 172.367 10.393 172.146 10.2205C171.392 9.63229 170.563 9.33816 169.657 9.33816C168.344 9.33816 167.254 9.82825 166.387 10.8084C165.513 11.7819 165.077 12.9955 165.077 14.4491C165.077 15.936 165.513 17.1763 166.387 18.1698C167.267 19.1433 168.374 19.63 169.707 19.63C170.604 19.63 171.426 19.3523 172.173 18.7969C172.388 18.6372 172.718 18.7802 172.718 19.0478C172.718 19.2147 172.853 19.35 173.02 19.35ZM167.377 14.4491C167.377 15.3826 167.627 16.1427 168.127 16.7295C168.641 17.323 169.287 17.6197 170.067 17.6197C170.901 17.6197 171.574 17.333 172.088 16.7595C172.601 16.1661 172.858 15.4126 172.858 14.4991C172.858 13.5856 172.601 12.8321 172.088 12.2387C171.574 11.6586 170.908 11.3685 170.087 11.3685C169.314 11.3685 168.667 11.6619 168.147 12.2487C167.634 12.8421 167.377 13.5756 167.377 14.4491ZM134.666 9.63663C134.666 9.80874 134.806 9.94827 134.978 9.94827H141.016C141.188 9.94827 141.327 9.80874 141.327 9.63663V4.21882C141.327 4.0467 141.467 3.90717 141.639 3.90717H143.346C143.518 3.90717 143.658 4.0467 143.658 4.21882V19.0383C143.658 19.2105 143.518 19.35 143.346 19.35H141.639C141.467 19.35 141.327 19.2105 141.327 19.0383V12.4503C141.327 12.2782 141.188 12.1387 141.016 12.1387H134.978C134.806 12.1387 134.666 12.2782 134.666 12.4503V19.0383C134.666 19.2105 134.527 19.35 134.355 19.35H132.647C132.475 19.35 132.336 19.2105 132.336 19.0383V4.21882C132.336 4.0467 132.475 3.90717 132.647 3.90717H134.355C134.527 3.90717 134.666 4.0467 134.666 4.21882V9.63663ZM152.266 9.91986C152.266 9.74774 152.406 9.60821 152.578 9.60821H154.215C154.387 9.60821 154.527 9.74774 154.527 9.91986V19.0383C154.527 19.2105 154.387 19.35 154.215 19.35H152.575C152.404 19.35 152.266 19.2118 152.266 19.0413C152.266 18.7712 151.938 18.6252 151.72 18.7848C150.951 19.3483 150.136 19.63 149.276 19.63C147.929 19.63 146.815 19.1433 145.935 18.1698C145.062 17.1763 144.625 15.936 144.625 14.4491C144.625 12.9888 145.062 11.7719 145.935 10.7984C146.809 9.82492 147.902 9.33816 149.216 9.33816C150.115 9.33816 150.942 9.63222 151.694 10.2203C151.915 10.393 152.266 10.2466 152.266 9.96626V9.91986ZM146.925 14.4491C146.925 15.3826 147.175 16.1427 147.675 16.7295C148.189 17.323 148.836 17.6197 149.616 17.6197C150.449 17.6197 151.123 17.333 151.636 16.7595C152.15 16.1661 152.406 15.4126 152.406 14.4991C152.406 13.5856 152.15 12.8321 151.636 12.2387C151.123 11.6586 150.456 11.3685 149.636 11.3685C148.862 11.3685 148.216 11.6619 147.695 12.2487C147.182 12.8421 146.925 13.5756 146.925 14.4491ZM156.143 9.60821C155.97 9.60821 155.831 9.74774 155.831 9.91986V19.0383C155.831 19.2105 155.97 19.35 156.143 19.35H157.78C157.952 19.35 158.091 19.2105 158.091 19.0383V14.6491C158.091 13.4356 158.245 12.5854 158.551 12.0987C158.865 11.6052 159.395 11.3585 160.142 11.3585C160.828 11.3585 161.302 11.5452 161.562 11.9186C161.829 12.2854 161.962 12.9488 161.962 13.909V19.0383C161.962 19.2105 162.102 19.35 162.274 19.35H163.911C164.083 19.35 164.222 19.2105 164.222 19.0383V13.3789C164.222 12.0053 163.949 11.0151 163.402 10.4084C162.769 9.69489 161.885 9.33816 160.752 9.33816C159.96 9.33816 159.233 9.58916 158.57 10.0911C158.382 10.2332 158.091 10.1083 158.091 9.87298C158.091 9.72675 157.973 9.60821 157.827 9.60821H156.143Z" fill="#319795"/>
<path d="M27.9249 11.5257C27.9249 8.95641 28.8667 6.74967 30.7504 4.90546C32.6261 3.06126 34.8801 2.13916 37.5124 2.13916C40.1133 2.13916 42.3436 3.06914 44.2036 4.92911C46.0715 6.78908 47.0054 9.0234 47.0054 11.6321C47.0054 14.2565 46.0675 16.483 44.1918 18.3114C42.3082 20.1477 40.0344 21.0659 37.3706 21.0659C35.0141 21.0659 32.898 20.2502 31.0223 18.6188C28.9574 16.814 27.9249 14.4496 27.9249 11.5257ZM30.7031 11.5612C30.7031 13.5787 31.3809 15.2377 32.7364 16.5381C34.0841 17.8386 35.6407 18.4888 37.4061 18.4888C39.3212 18.4888 40.9368 17.8267 42.253 16.5027C43.5692 15.1629 44.2272 13.5315 44.2272 11.6084C44.2272 9.66178 43.577 8.03037 42.2766 6.7142C40.9841 5.39016 39.3842 4.72814 37.477 4.72814C35.5776 4.72814 33.9738 5.39016 32.6655 6.7142C31.3572 8.02249 30.7031 9.63814 30.7031 11.5612Z" fill="#285E61"/>
<path d="M47.2976 9.60474C47.2976 9.39249 47.4697 9.22043 47.6819 9.22043H49.6634C49.8259 9.22043 49.9575 9.3521 49.9575 9.51452C49.9575 9.77989 50.286 9.91374 50.4858 9.73913C50.7647 9.49552 51.022 9.31474 51.2579 9.19679C51.6441 8.99976 52.1012 8.90124 52.6293 8.90124C53.235 8.90124 53.8643 9.07172 54.5171 9.41267C54.6953 9.50573 54.7586 9.72589 54.6687 9.9057L53.8122 11.6187C53.7064 11.8304 53.4372 11.8944 53.2293 11.7815C52.8572 11.5794 52.4917 11.4784 52.1327 11.4784C50.6826 11.4784 49.9575 12.5739 49.9575 14.7649V20.3506C49.9575 20.5628 49.7855 20.7349 49.5732 20.7349H47.6819C47.4697 20.7349 47.2976 20.5628 47.2976 20.3506V9.60474Z" fill="#285E61"/>
<path d="M63.6307 1.15213C63.6307 0.939881 63.8027 0.767822 64.015 0.767822H65.9181C66.1303 0.767822 66.3024 0.939881 66.3024 1.15213V20.3506C66.3024 20.5628 66.1303 20.7349 65.9181 20.7349H63.9879C63.7906 20.7349 63.6307 20.575 63.6307 20.3777C63.6307 20.0614 63.2406 19.8925 62.9868 20.0811C62.1037 20.7377 61.1322 21.0659 60.0723 21.0659C58.496 21.0659 57.1878 20.4906 56.1474 19.3399C55.115 18.1656 54.5988 16.6997 54.5988 14.9422C54.5988 13.2241 55.115 11.7897 56.1474 10.6391C57.172 9.48051 58.4606 8.90124 60.0132 8.90124C61.0705 8.90124 62.0406 9.24084 62.9233 9.92004C63.1973 10.1309 63.6307 9.94988 63.6307 9.60412V1.15213ZM57.3178 14.9422C57.3178 16.0456 57.6133 16.944 58.2044 17.6376C58.8113 18.339 59.5758 18.6897 60.4979 18.6897C61.483 18.6897 62.279 18.3508 62.8859 17.673C63.4927 16.9716 63.7962 16.081 63.7962 15.0013C63.7962 13.9216 63.4927 13.031 62.8859 12.3296C62.279 11.6439 61.4909 11.3011 60.5215 11.3011C59.6073 11.3011 58.8428 11.6479 58.2281 12.3414C57.6212 13.0428 57.3178 13.9098 57.3178 14.9422Z" fill="#285E61"/>
<path d="M78.337 15.2272C78.3331 15.4366 78.1622 15.6042 77.9528 15.6042H70.4925C70.2689 15.6042 70.0908 15.7949 70.126 16.0156C70.2465 16.7708 70.5379 17.3863 71.0004 17.8622C71.5442 18.4139 72.2417 18.6897 73.0929 18.6897C73.7549 18.6897 74.3026 18.5321 74.7361 18.2168C75.1092 17.9405 75.5277 17.4582 75.9916 16.77C76.1053 16.6014 76.3288 16.5445 76.5063 16.6436L78.0934 17.529C78.2816 17.634 78.3473 17.8737 78.2319 18.0557C77.9463 18.5059 77.648 18.9025 77.3369 19.2453C76.9507 19.6631 76.537 20.0098 76.0956 20.2857C75.6543 20.5536 75.1774 20.7507 74.6652 20.8768C74.1529 21.0029 73.5973 21.0659 72.9983 21.0659C71.2802 21.0659 69.901 20.5142 68.8606 19.4109C67.8203 18.2996 67.3002 16.8258 67.3002 14.9895C67.3002 13.1689 67.8046 11.6951 68.8134 10.5681C69.83 9.45687 71.1777 8.90124 72.8564 8.90124C74.5509 8.90124 75.8907 9.44111 76.8758 10.5208C77.8531 11.5927 78.3418 13.0783 78.3418 14.9777L78.337 15.2272ZM75.1016 13.429C75.3532 13.429 75.5383 13.1898 75.4458 12.9557C75.0099 11.8526 74.1665 11.3011 72.9155 11.3011C72.5924 11.3011 72.289 11.3523 72.0052 11.4548C71.7215 11.5493 71.4614 11.6912 71.225 11.8803C70.9964 12.0616 70.7994 12.2823 70.6339 12.5424C70.5514 12.6721 70.4786 12.8106 70.4157 12.958C70.3168 13.1895 70.5017 13.429 70.7535 13.429H75.1016Z" fill="#285E61"/>
<path d="M79.4341 9.60474C79.4341 9.39249 79.6061 9.22043 79.8184 9.22043H81.7999C81.9623 9.22043 82.094 9.3521 82.094 9.51452C82.094 9.77989 82.4225 9.91374 82.6223 9.73913C82.9011 9.49552 83.1585 9.31474 83.3944 9.19679C83.7806 8.99976 84.2377 8.90124 84.7657 8.90124C85.3715 8.90124 86.0008 9.07172 86.6536 9.41267C86.8318 9.50573 86.8951 9.72589 86.8052 9.9057L85.9487 11.6187C85.8429 11.8304 85.5737 11.8944 85.3657 11.7815C84.9936 11.5794 84.6281 11.4784 84.2692 11.4784C82.8191 11.4784 82.094 12.5739 82.094 14.7649V20.3506C82.094 20.5628 81.9219 20.7349 81.7097 20.7349H79.8184C79.6061 20.7349 79.4341 20.5628 79.4341 20.3506V9.60474Z" fill="#285E61"/>
<path d="M91.3681 2.48199C91.5804 2.48199 91.7524 2.65405 91.7524 2.86629V17.7616C91.7524 17.9739 91.9245 18.1459 92.1367 18.1459H96.7352C96.9475 18.1459 97.1195 18.318 97.1195 18.5302V20.3506C97.1195 20.5628 96.9475 20.7349 96.7352 20.7349H89.3823C89.17 20.7349 88.9979 20.5628 88.9979 20.3506V2.86629C88.9979 2.65405 89.17 2.48199 89.3823 2.48199H91.3681Z" fill="url(#paint0_linear_1039_2753)"/>
<path d="M100.531 9.22043C100.743 9.22043 100.915 9.39249 100.915 9.60474V20.3506C100.915 20.5628 100.743 20.7349 100.531 20.7349H98.6397C98.4274 20.7349 98.2554 20.5628 98.2554 20.3506V9.60474C98.2554 9.39249 98.4274 9.22043 98.6397 9.22043H100.531ZM97.8534 4.43259C97.8534 3.9676 98.0229 3.56566 98.3618 3.22676C98.7007 2.88787 99.1066 2.71842 99.5794 2.71842C100.06 2.71842 100.47 2.88787 100.809 3.22676C101.148 3.55778 101.317 3.96366 101.317 4.44441C101.317 4.92517 101.148 5.33499 100.809 5.67388C100.478 6.01278 100.072 6.18222 99.5913 6.18222C99.1105 6.18222 98.7007 6.01278 98.3618 5.67388C98.0229 5.33499 97.8534 4.92123 97.8534 4.43259Z" fill="url(#paint1_linear_1039_2753)"/>
<path d="M102.832 9.60474C102.832 9.39249 103.004 9.22043 103.216 9.22043H105.191C105.363 9.22043 105.504 9.36055 105.504 9.53339C105.504 9.81156 105.848 9.95918 106.069 9.79125C106.853 9.19791 107.713 8.90124 108.648 8.90124C109.988 8.90124 111.032 9.32289 111.781 10.1662C112.427 10.8834 112.75 12.0537 112.75 13.6773V20.3506C112.75 20.5628 112.578 20.7349 112.366 20.7349H110.463C110.251 20.7349 110.079 20.5628 110.079 20.3506V14.3038C110.079 13.1689 109.921 12.3847 109.606 11.9513C109.298 11.5099 108.739 11.2893 107.927 11.2893C107.044 11.2893 106.418 11.5809 106.047 12.1641C105.685 12.7394 105.504 13.7443 105.504 15.1786V20.3506C105.504 20.5628 105.332 20.7349 105.119 20.7349H103.216C103.004 20.7349 102.832 20.5628 102.832 20.3506V9.60474Z" fill="url(#paint2_linear_1039_2753)"/>
<path d="M116.7 0.767822C116.913 0.767822 117.085 0.939881 117.085 1.15213V12.0207C117.085 12.3624 117.497 12.5342 117.74 12.2933L120.72 9.33213C120.792 9.26059 120.889 9.22043 120.991 9.22043H123.452C123.798 9.22043 123.968 9.64085 123.719 9.88101L119.654 13.8119C119.511 13.9499 119.497 14.174 119.621 14.3289L124.267 20.1099C124.469 20.3614 124.29 20.7349 123.967 20.7349H121.504C121.386 20.7349 121.274 20.6806 121.202 20.5876L117.778 16.2176C117.636 16.0361 117.367 16.0198 117.204 16.1829L117.197 16.1892C117.125 16.2612 117.085 16.359 117.085 16.4609V20.3506C117.085 20.5628 116.913 20.7349 116.7 20.7349H114.809C114.597 20.7349 114.425 20.5628 114.425 20.3506V1.15213C114.425 0.939881 114.597 0.767822 114.809 0.767822H116.7Z" fill="url(#paint3_linear_1039_2753)"/>
<path d="M0 11.0411C0 8.01896 1.10782 5.42323 3.32346 3.25394C5.52984 1.08465 8.18119 0 11.2775 0C14.3368 0 16.9603 1.09392 19.1482 3.28175C21.3453 5.46958 22.4438 8.09776 22.4438 11.1663C22.4438 14.2534 21.3406 16.8723 19.1343 19.023C16.9186 21.183 14.2441 22.263 11.1107 22.263C8.33879 22.263 5.84967 21.3035 3.6433 19.3846C1.21443 17.2616 0 14.4805 0 11.0411ZM3.26784 11.0829C3.26784 13.4561 4.0651 15.4075 5.65962 16.9372C7.24488 18.4668 9.07579 19.2316 11.1524 19.2316C13.4051 19.2316 15.3056 18.4529 16.8537 16.8954C18.4019 15.3195 19.176 13.4005 19.176 11.1385C19.176 8.84867 18.4112 6.92968 16.8815 5.38151C15.3612 3.82407 13.4793 3.04535 11.2358 3.04535C9.00163 3.04535 7.11509 3.82407 5.57619 5.38151C4.03729 6.92041 3.26784 8.82086 3.26784 11.0829Z" fill="url(#paint4_linear_1039_2753)"/>
<path fill-rule="evenodd" clip-rule="evenodd" d="M17.6948 26.7727C19.3972 26.7727 20.9223 26.1141 22.2701 24.7967C22.334 24.7228 22.4008 24.6483 22.4694 24.5717C22.9315 24.0562 23.6419 23.1761 24.0275 21.9606C24.2841 21.1516 24.5126 20.1468 24.5126 18.9749C24.5126 18.1727 24.3572 17.0673 24.0557 16.0769C23.6948 14.8914 22.9417 13.9129 22.301 13.2952C22.2906 13.2833 22.2803 13.2714 22.2701 13.2595C20.9021 11.8408 19.3516 11.1315 17.6188 11.1315C15.6224 11.1315 13.9656 11.8763 12.6482 13.3659C11.3207 14.8454 10.657 16.6898 10.657 18.8989C10.657 21.1587 11.3207 23.0436 12.6482 24.5535C13.9859 26.033 15.668 26.7727 17.6948 26.7727ZM15.2931 22.3646C14.5331 21.4728 14.1531 20.3176 14.1531 18.8989C14.1531 17.5714 14.5432 16.4567 15.3235 15.5548C16.1139 14.663 17.0969 14.2172 18.2724 14.2172C19.5188 14.2172 20.5322 14.658 21.3125 15.5396C22.0928 16.4415 22.4829 17.5866 22.4829 18.9749C22.4829 20.3632 22.0928 21.5083 21.3125 22.4102C20.5322 23.2817 19.5087 23.7174 18.242 23.7174C17.0563 23.7174 16.0734 23.2665 15.2931 22.3646Z" fill="url(#paint5_linear_1039_2753)"/>
<defs>
<linearGradient id="paint0_linear_1039_2753" x1="76.1385" y1="0.767822" x2="76.1385" y2="21.0659" gradientUnits="userSpaceOnUse">
<stop stop-color="#2BC3C5"/>
<stop offset="1" stop-color="#269E9F"/>
</linearGradient>
<linearGradient id="paint1_linear_1039_2753" x1="76.1385" y1="0.767822" x2="76.1385" y2="21.0659" gradientUnits="userSpaceOnUse">
<stop stop-color="#2BC3C5"/>
<stop offset="1" stop-color="#269E9F"/>
</linearGradient>
<linearGradient id="paint2_linear_1039_2753" x1="76.1385" y1="0.767822" x2="76.1385" y2="21.0659" gradientUnits="userSpaceOnUse">
<stop stop-color="#2BC3C5"/>
<stop offset="1" stop-color="#269E9F"/>
</linearGradient>
<linearGradient id="paint3_linear_1039_2753" x1="76.1385" y1="0.767822" x2="76.1385" y2="21.0659" gradientUnits="userSpaceOnUse">
<stop stop-color="#2BC3C5"/>
<stop offset="1" stop-color="#269E9F"/>
</linearGradient>
<linearGradient id="paint4_linear_1039_2753" x1="11.2219" y1="0" x2="11.2219" y2="22.263" gradientUnits="userSpaceOnUse">
<stop stop-color="#389798"/>
<stop offset="1" stop-color="#256667"/>
</linearGradient>
<linearGradient id="paint5_linear_1039_2753" x1="17.5848" y1="11.1315" x2="17.5848" y2="26.7727" gradientUnits="userSpaceOnUse">
<stop stop-color="#2BC3C5"/>
<stop offset="1" stop-color="#269E9F"/>
</linearGradient>
</defs>
</svg>
