<svg width="189" height="25" viewBox="0 0 189 25" fill="none" xmlns="http://www.w3.org/2000/svg">
<path fill-rule="evenodd" clip-rule="evenodd" d="M128.936 2.73005C128.391 3.79961 128.391 5.19974 128.391 7.99999V13.0044C128.391 15.8047 128.391 17.2048 128.936 18.2744C129.415 19.2152 130.18 19.9801 131.121 20.4595C132.19 21.0044 133.59 21.0044 136.391 21.0044H177.422L179.836 16.4881C179.885 16.3962 179.884 16.2856 179.834 16.1943L175.841 8.96583C175.728 8.76074 175.877 8.50934 176.111 8.50934H177.982C178.096 8.50934 178.2 8.57209 178.254 8.6725L180.829 13.5113C180.946 13.7324 181.265 13.7279 181.376 13.5036L183.77 8.68023C183.822 8.57555 183.929 8.50934 184.046 8.50934H185.859C186.089 8.50934 186.238 8.75335 186.132 8.95815L179.917 21.0044H181C183.8 21.0044 185.2 21.0044 186.27 20.4595C187.211 19.9801 187.976 19.2152 188.455 18.2744C189 17.2048 189 15.8047 189 13.0044V8C189 5.19974 189 3.79961 188.455 2.73005C187.976 1.78924 187.211 1.02433 186.27 0.544967C185.2 0 183.8 0 181 0H136.391C133.59 0 132.19 0 131.121 0.544967C130.18 1.02433 129.415 1.78924 128.936 2.73005ZM173.358 18.1281H174.984C175.154 18.1281 175.292 17.9904 175.292 17.8204V3.18761C175.292 3.01767 175.154 2.8799 174.984 2.8799L173.368 2.88028C173.199 2.88028 173.06 3.01887 173.06 3.18881V8.86287C173.06 9.13972 172.713 9.28426 172.495 9.11394C171.751 8.53312 170.932 8.2427 170.038 8.2427C168.741 8.2427 167.665 8.72661 166.809 9.69441C165.946 10.6556 165.515 11.8539 165.515 13.2891C165.515 14.7573 165.946 15.9818 166.809 16.9628C167.678 17.924 168.771 18.4047 170.087 18.4047C170.973 18.4047 171.784 18.1304 172.522 17.582C172.734 17.4244 173.06 17.5655 173.06 17.8298C173.06 17.9945 173.194 18.1281 173.358 18.1281ZM167.786 13.2891C167.786 14.2108 168.033 14.9614 168.527 15.5407C169.034 16.1267 169.673 16.4197 170.443 16.4197C171.266 16.4197 171.931 16.1366 172.438 15.5704C172.945 14.9844 173.198 14.2405 173.198 13.3385C173.198 12.4365 172.945 11.6926 172.438 11.1066C171.931 10.5338 171.273 10.2474 170.463 10.2474C169.699 10.2474 169.06 10.5371 168.547 11.1165C168.04 11.7024 167.786 12.4266 167.786 13.2891ZM135.489 8.5374C135.489 8.70735 135.626 8.84511 135.796 8.84511H141.758C141.928 8.84511 142.066 8.70735 142.066 8.5374V3.18799C142.066 3.01804 142.204 2.88028 142.373 2.88028H144.059C144.229 2.88028 144.367 3.01804 144.367 3.18799V17.8204C144.367 17.9904 144.229 18.1281 144.059 18.1281H142.373C142.204 18.1281 142.066 17.9904 142.066 17.8204V11.3156C142.066 11.1456 141.928 11.0079 141.758 11.0079H135.796C135.626 11.0079 135.489 11.1456 135.489 11.3156V17.8204C135.489 17.9904 135.351 18.1281 135.181 18.1281H133.495C133.325 18.1281 133.188 17.9904 133.188 17.8204V3.18799C133.188 3.01804 133.325 2.88028 133.495 2.88028H135.181C135.351 2.88028 135.489 3.01804 135.489 3.18799V8.5374ZM152.866 8.81706C152.866 8.64711 153.004 8.50934 153.174 8.50934H154.791C154.961 8.50934 155.098 8.64711 155.098 8.81706V17.8204C155.098 17.9904 154.961 18.1281 154.791 18.1281H153.171C153.003 18.1281 152.866 17.9917 152.866 17.8233C152.866 17.5566 152.542 17.4125 152.327 17.5701C151.567 18.1265 150.763 18.4047 149.914 18.4047C148.584 18.4047 147.484 17.924 146.615 16.9628C145.753 15.9818 145.322 14.7573 145.322 13.2891C145.322 11.8473 145.753 10.6458 146.615 9.68454C147.478 8.72332 148.557 8.2427 149.854 8.2427C150.743 8.2427 151.559 8.53305 152.302 9.11375C152.52 9.2842 152.866 9.13972 152.866 8.86287V8.81706ZM147.593 13.2891C147.593 14.2108 147.84 14.9614 148.334 15.5407C148.841 16.1267 149.479 16.4197 150.249 16.4197C151.072 16.4197 151.737 16.1366 152.244 15.5704C152.751 14.9844 153.005 14.2405 153.005 13.3385C153.005 12.4365 152.751 11.6926 152.244 11.1066C151.737 10.5338 151.079 10.2474 150.269 10.2474C149.505 10.2474 148.867 10.5371 148.353 11.1165C147.846 11.7024 147.593 12.4266 147.593 13.2891ZM156.694 8.50934C156.524 8.50934 156.386 8.64711 156.386 8.81706V17.8204C156.386 17.9904 156.524 18.1281 156.694 18.1281H158.31C158.48 18.1281 158.618 17.9904 158.618 17.8204V13.4866C158.618 12.2884 158.769 11.449 159.072 10.9684C159.382 10.4812 159.905 10.2376 160.642 10.2376C161.321 10.2376 161.788 10.4219 162.045 10.7906C162.308 11.1527 162.44 11.8078 162.44 12.7558V17.8204C162.44 17.9904 162.578 18.1281 162.748 18.1281H164.364C164.534 18.1281 164.672 17.9904 164.672 17.8204V12.2324C164.672 10.8762 164.402 9.89851 163.862 9.29939C163.236 8.59493 162.364 8.2427 161.245 8.2427C160.463 8.2427 159.745 8.49053 159.091 8.98618C158.905 9.12647 158.618 9.00315 158.618 8.77077C158.618 8.62639 158.501 8.50934 158.357 8.50934H156.694Z" fill="url(#paint0_linear_2104_1679)"/>
<path d="M27.2985 19.2381V2.60493H30.1018V16.6244H37.9942V19.2381H27.2985Z" fill="url(#paint1_linear_2104_1679)"/>
<path d="M43.7223 19.4045C40.1858 19.4045 37.5981 16.6956 37.5981 12.8938C37.5981 9.09188 40.1858 6.40681 43.7223 6.40681C47.3019 6.40681 49.8681 9.09188 49.8681 12.8938C49.8681 16.6956 47.3019 19.4045 43.7223 19.4045ZM43.7223 16.862C45.6846 16.862 47.151 15.3175 47.151 12.8938C47.151 10.4701 45.6846 8.92555 43.7223 8.92555C41.7816 8.92555 40.3152 10.4701 40.3152 12.8938C40.3152 15.3175 41.7816 16.862 43.7223 16.862Z" fill="url(#paint2_linear_2104_1679)"/>
<path d="M60.4459 6.54938H63.012V17.3134C63.012 21.9232 60.834 24.0143 56.8016 24.0143C54.6452 24.0143 52.5103 23.3965 51.1949 22.2084L52.4025 19.9748C53.416 20.9015 55.0549 21.4955 56.6506 21.4955C59.1952 21.4955 60.3165 20.2124 60.3165 17.6461V16.9808C59.3677 18.1213 58.0091 18.6679 56.4565 18.6679C53.1572 18.6679 50.6343 16.1966 50.6343 12.5136C50.6343 8.8305 53.1572 6.40681 56.4565 6.40681C58.0738 6.40681 59.4971 6.97709 60.4459 8.23646V6.54938ZM56.8663 16.1491C58.8933 16.1491 60.3596 14.6759 60.3596 12.5136C60.3596 10.375 58.8933 8.92555 56.8663 8.92555C54.8177 8.92555 53.3513 10.375 53.3513 12.5136C53.3513 14.6759 54.8177 16.1491 56.8663 16.1491Z" fill="url(#paint3_linear_2104_1679)"/>
<path d="M69.8982 19.4045C66.3617 19.4045 63.774 16.6956 63.774 12.8938C63.774 9.09188 66.3617 6.40681 69.8982 6.40681C73.4778 6.40681 76.0439 9.09188 76.0439 12.8938C76.0439 16.6956 73.4778 19.4045 69.8982 19.4045ZM69.8982 16.862C71.8605 16.862 73.3268 15.3175 73.3268 12.8938C73.3268 10.4701 71.8605 8.92555 69.8982 8.92555C67.9574 8.92555 66.491 10.4701 66.491 12.8938C66.491 15.3175 67.9574 16.862 69.8982 16.862Z" fill="url(#paint4_linear_2104_1679)"/>
<path d="M91.7755 19.2381H88.7566L85.6729 14.367C85.4788 14.3908 85.2848 14.3908 85.0907 14.3908H81.6836V19.2381H78.8802V2.60493H85.0907C89.0585 2.60493 91.5168 4.83853 91.5168 8.5216C91.5168 11.0403 90.3523 12.8938 88.3037 13.7729L91.7755 19.2381ZM88.6919 8.5216C88.6919 6.43057 87.4196 5.21872 84.9613 5.21872H81.6836V11.8482H84.9613C87.4196 11.8482 88.6919 10.6126 88.6919 8.5216Z" fill="url(#paint5_linear_2104_1679)"/>
<path d="M95.947 16.6481H104.465V19.2381H93.1437V2.60493H104.163V5.19496H95.947V9.51959H103.236V12.0621H95.947V16.6481Z" fill="url(#paint6_linear_2104_1679)"/>
<path d="M116.325 15.9115V10.7314H118.977V17.361C117.403 18.7629 115.203 19.4758 113.069 19.4758C108.389 19.4758 104.939 15.8877 104.939 10.9215C104.939 5.95533 108.389 2.36731 113.112 2.36731C115.635 2.36731 117.748 3.29402 119.171 5.07615L117.403 6.97709C116.217 5.67019 114.858 5.07615 113.241 5.07615C110.028 5.07615 107.764 7.47608 107.764 10.9215C107.764 14.2957 110.028 16.7669 113.22 16.7669C114.298 16.7669 115.354 16.5293 116.325 15.9115Z" fill="url(#paint7_linear_2104_1679)"/>
<path d="M121.165 19.2381V2.60493H123.968V19.2381H121.165Z" fill="url(#paint8_linear_2104_1679)"/>
<path fill-rule="evenodd" clip-rule="evenodd" d="M6.5356e-05 11.1913C6.52265e-05 5.2674 4.80232 0.465149 10.7262 0.465149H17.9235C20.2166 0.465149 22.0755 2.32408 22.0755 4.61719L22.0755 11.8764C22.0755 13.8216 21.5577 15.6458 20.6524 17.2188L22.3444 18.7978C23.3537 19.7396 23.4083 21.3213 22.4665 22.3306C21.5246 23.3398 19.9429 23.3945 18.9337 22.4526L17.2209 20.8542C15.534 21.9596 13.5168 22.6025 11.3494 22.6025H4.15212C1.85899 22.6025 6.10352e-05 20.7436 6.10352e-05 18.4504L6.5356e-05 11.1913ZM16.6488 13.4826L14.9811 11.9262C13.9718 10.9844 12.3901 11.039 11.4483 12.0483C10.5064 13.0575 10.5611 14.6392 11.5703 15.5811L13.1951 17.0973C12.6178 17.3014 11.9966 17.4124 11.3494 17.4124H6.92057C5.96792 17.4124 5.19511 16.6424 5.19057 15.6908L5.19057 11.1913L5.19012 11.1913C5.19012 8.13377 7.66872 5.65521 10.7262 5.65521H15.155C16.1077 5.65521 16.8805 6.42522 16.885 7.3768L16.885 11.8764L16.8855 11.8764C16.8855 12.435 16.8027 12.9743 16.6488 13.4826Z" fill="url(#paint9_linear_2104_1679)"/>
<defs>
<linearGradient id="paint0_linear_2104_1679" x1="158.695" y1="0" x2="158.695" y2="21.0044" gradientUnits="userSpaceOnUse">
<stop stop-color="#704040"/>
<stop offset="1" stop-color="#431A1A"/>
</linearGradient>
<linearGradient id="paint1_linear_2104_1679" x1="75.6334" y1="2.36731" x2="75.6334" y2="24.0143" gradientUnits="userSpaceOnUse">
<stop stop-color="#704040"/>
<stop offset="1" stop-color="#431A1A"/>
</linearGradient>
<linearGradient id="paint2_linear_2104_1679" x1="75.6334" y1="2.36731" x2="75.6334" y2="24.0143" gradientUnits="userSpaceOnUse">
<stop stop-color="#704040"/>
<stop offset="1" stop-color="#431A1A"/>
</linearGradient>
<linearGradient id="paint3_linear_2104_1679" x1="75.6334" y1="2.36731" x2="75.6334" y2="24.0143" gradientUnits="userSpaceOnUse">
<stop stop-color="#704040"/>
<stop offset="1" stop-color="#431A1A"/>
</linearGradient>
<linearGradient id="paint4_linear_2104_1679" x1="75.6334" y1="2.36731" x2="75.6334" y2="24.0143" gradientUnits="userSpaceOnUse">
<stop stop-color="#704040"/>
<stop offset="1" stop-color="#431A1A"/>
</linearGradient>
<linearGradient id="paint5_linear_2104_1679" x1="75.6334" y1="2.36731" x2="75.6334" y2="24.0143" gradientUnits="userSpaceOnUse">
<stop stop-color="#704040"/>
<stop offset="1" stop-color="#431A1A"/>
</linearGradient>
<linearGradient id="paint6_linear_2104_1679" x1="75.6334" y1="2.36731" x2="75.6334" y2="24.0143" gradientUnits="userSpaceOnUse">
<stop stop-color="#704040"/>
<stop offset="1" stop-color="#431A1A"/>
</linearGradient>
<linearGradient id="paint7_linear_2104_1679" x1="75.6334" y1="2.36731" x2="75.6334" y2="24.0143" gradientUnits="userSpaceOnUse">
<stop stop-color="#704040"/>
<stop offset="1" stop-color="#431A1A"/>
</linearGradient>
<linearGradient id="paint8_linear_2104_1679" x1="75.6334" y1="2.36731" x2="75.6334" y2="24.0143" gradientUnits="userSpaceOnUse">
<stop stop-color="#704040"/>
<stop offset="1" stop-color="#431A1A"/>
</linearGradient>
<linearGradient id="paint9_linear_2104_1679" x1="11.5693" y1="0.465149" x2="11.5693" y2="23.1248" gradientUnits="userSpaceOnUse">
<stop stop-color="#704040"/>
<stop offset="1" stop-color="#431A1A"/>
</linearGradient>
</defs>
</svg>
