<svg width="253" height="36" viewBox="0 0 253 36" fill="none" xmlns="http://www.w3.org/2000/svg">
<g filter="url(#filter0_dd_1016_1799)">
<path d="M33.9326 16.2586C33.9326 13.3792 34.9881 10.9061 37.0991 8.83926C39.2013 6.77243 41.7274 5.73902 44.6775 5.73902C47.5922 5.73902 50.0919 6.78127 52.1764 8.86576C54.2697 10.9503 55.3163 13.4543 55.3163 16.3779C55.3163 19.3191 54.2653 21.8144 52.1631 23.8635C50.0521 25.9215 47.5039 26.9505 44.5185 26.9505C41.8775 26.9505 39.506 26.0363 37.4038 24.208C35.0897 22.1853 33.9326 19.5355 33.9326 16.2586ZM37.0461 16.2984C37.0461 18.5595 37.8057 20.4188 39.3249 21.8762C40.8353 23.3336 42.5797 24.0622 44.5582 24.0622C46.7046 24.0622 48.5152 23.3203 49.9903 21.8364C51.4653 20.3349 52.2028 18.5065 52.2028 16.3514C52.2028 14.1697 51.4742 12.3414 50.0168 10.8663C48.5682 9.38247 46.7752 8.64053 44.6377 8.64053C42.5091 8.64053 40.7116 9.38247 39.2454 10.8663C37.7792 12.3326 37.0461 14.1432 37.0461 16.2984Z" fill="#2C7A7B"/>
<path d="M55.6439 14.1058C55.6439 13.8679 55.8367 13.6751 56.0745 13.6751H58.2953C58.4773 13.6751 58.6249 13.8227 58.6249 14.0047C58.6249 14.3021 58.993 14.4521 59.217 14.2564C59.5294 13.9834 59.8179 13.7808 60.0822 13.6486C60.515 13.4278 61.0273 13.3174 61.6191 13.3174C62.298 13.3174 63.0033 13.5084 63.7349 13.8905C63.9346 13.9949 64.0055 14.2416 63.9048 14.4431L62.9449 16.3629C62.8263 16.6001 62.5246 16.6719 62.2916 16.5453C61.8745 16.3189 61.4649 16.2057 61.0627 16.2057C59.4375 16.2057 58.6249 17.4334 58.6249 19.8888V26.1488C58.6249 26.3867 58.432 26.5795 58.1942 26.5795H56.0745C55.8367 26.5795 55.6439 26.3867 55.6439 26.1488V14.1058Z" fill="#2C7A7B"/>
<path d="M73.9485 4.63284C73.9485 4.39498 74.1414 4.20215 74.3792 4.20215H76.5121C76.75 4.20215 76.9428 4.39498 76.9428 4.63284V26.1488C76.9428 26.3867 76.75 26.5795 76.5121 26.5795H74.3488C74.1278 26.5795 73.9485 26.4003 73.9485 26.1792C73.9485 25.8248 73.5114 25.6354 73.2269 25.8469C72.2372 26.5826 71.1484 26.9505 69.9606 26.9505C68.1941 26.9505 66.7279 26.3057 65.562 25.0162C64.4049 23.7001 63.8264 22.0572 63.8264 20.0876C63.8264 18.1621 64.4049 16.5545 65.562 15.265C66.7102 13.9666 68.1543 13.3174 69.8944 13.3174C71.0794 13.3174 72.1665 13.698 73.1558 14.4592C73.4629 14.6955 73.9485 14.4926 73.9485 14.1051V4.63284ZM66.8736 20.0876C66.8736 21.3241 67.2048 22.3311 67.8673 23.1083C68.5474 23.8944 69.4042 24.2875 70.4376 24.2875C71.5416 24.2875 72.4337 23.9077 73.1138 23.1481C73.794 22.362 74.134 21.3639 74.134 20.1538C74.134 18.9438 73.794 17.9457 73.1138 17.1596C72.4337 16.3911 71.5505 16.0069 70.4641 16.0069C69.4395 16.0069 68.5827 16.3956 67.8938 17.1728C67.2137 17.9589 66.8736 18.9305 66.8736 20.0876Z" fill="#2C7A7B"/>
<path d="M90.4302 20.4069C90.4258 20.6416 90.2343 20.8295 89.9996 20.8295H81.6387C81.3881 20.8295 81.1885 21.0432 81.2279 21.2906C81.3629 22.1369 81.6896 22.8267 82.2079 23.3601C82.8173 23.9783 83.599 24.2875 84.553 24.2875C85.2949 24.2875 85.9088 24.1108 86.3945 23.7575C86.8127 23.4478 87.2817 22.9073 87.8016 22.136C87.929 21.947 88.1795 21.8833 88.3785 21.9944L90.1571 22.9866C90.368 23.1043 90.4417 23.3729 90.3123 23.5769C89.9923 24.0815 89.658 24.5259 89.3093 24.9102C88.8765 25.3783 88.4128 25.7669 87.9182 26.0761C87.4235 26.3764 86.8892 26.5972 86.3151 26.7385C85.7409 26.8798 85.1182 26.9505 84.447 26.9505C82.5215 26.9505 80.9757 26.3322 79.8098 25.0957C78.6439 23.8503 78.061 22.1986 78.061 20.1406C78.061 18.1002 78.6263 16.4485 79.7569 15.1855C80.8963 13.9401 82.4066 13.3174 84.288 13.3174C86.187 13.3174 87.6885 13.9224 88.7926 15.1325C89.8878 16.3337 90.4355 17.9987 90.4355 20.1273L90.4302 20.4069ZM86.8041 18.3917C87.0862 18.3917 87.2936 18.1236 87.1899 17.8613C86.7014 16.625 85.7562 16.0069 84.3542 16.0069C83.9921 16.0069 83.652 16.0643 83.3341 16.1792C83.0161 16.2851 82.7246 16.4441 82.4596 16.6561C82.2035 16.8593 81.9827 17.1066 81.7972 17.3981C81.7047 17.5434 81.6231 17.6987 81.5526 17.8638C81.4418 18.1234 81.6491 18.3917 81.9312 18.3917H86.8041Z" fill="#2C7A7B"/>
<path d="M91.6597 14.1058C91.6597 13.8679 91.8525 13.6751 92.0904 13.6751H94.3111C94.4931 13.6751 94.6407 13.8227 94.6407 14.0047C94.6407 14.3021 95.0088 14.4521 95.2328 14.2564C95.5452 13.9834 95.8337 13.7808 96.098 13.6486C96.5308 13.4278 97.0431 13.3174 97.6349 13.3174C98.3138 13.3174 99.0191 13.5084 99.7507 13.8905C99.9504 13.9949 100.021 14.2416 99.9206 14.4431L98.9607 16.3629C98.8421 16.6001 98.5404 16.6719 98.3074 16.5453C97.8903 16.3189 97.4807 16.2057 97.0785 16.2057C95.4533 16.2057 94.6407 17.4334 94.6407 19.8888V26.1488C94.6407 26.3867 94.4478 26.5795 94.21 26.5795H92.0904C91.8525 26.5795 91.6597 26.3867 91.6597 26.1488V14.1058Z" fill="#2C7A7B"/>
<path d="M105.034 6.12324C105.272 6.12324 105.465 6.31607 105.465 6.55393V23.2473C105.465 23.4852 105.658 23.678 105.896 23.678H111.049C111.287 23.678 111.48 23.8709 111.48 24.1087V26.1488C111.48 26.3867 111.287 26.5795 111.049 26.5795H102.809C102.571 26.5795 102.378 26.3867 102.378 26.1488V6.55393C102.378 6.31607 102.571 6.12324 102.809 6.12324H105.034Z" fill="url(#paint0_linear_1016_1799)"/>
<path d="M115.303 13.6751C115.541 13.6751 115.734 13.8679 115.734 14.1058V26.1488C115.734 26.3867 115.541 26.5795 115.303 26.5795H113.184C112.946 26.5795 112.753 26.3867 112.753 26.1488V14.1058C112.753 13.8679 112.946 13.6751 113.184 13.6751H115.303ZM112.303 8.30931C112.303 7.78818 112.492 7.33772 112.872 6.95792C113.252 6.57812 113.707 6.38822 114.237 6.38822C114.776 6.38822 115.235 6.57812 115.615 6.95792C115.995 7.32889 116.184 7.78377 116.184 8.32256C116.184 8.86134 115.995 9.32064 115.615 9.70044C115.244 10.0802 114.789 10.2701 114.25 10.2701C113.711 10.2701 113.252 10.0802 112.872 9.70044C112.492 9.32064 112.303 8.85693 112.303 8.30931Z" fill="url(#paint1_linear_1016_1799)"/>
<path d="M117.882 14.1058C117.882 13.8679 118.075 13.6751 118.313 13.6751H120.525C120.719 13.6751 120.876 13.8321 120.876 14.0258C120.876 14.3376 121.262 14.503 121.51 14.3148C122.388 13.6499 123.352 13.3174 124.4 13.3174C125.902 13.3174 127.072 13.7899 127.911 14.735C128.636 15.5388 128.998 16.8504 128.998 18.6699V26.1488C128.998 26.3867 128.805 26.5795 128.567 26.5795H126.434C126.196 26.5795 126.003 26.3867 126.003 26.1488V19.3721C126.003 18.1002 125.827 17.2214 125.474 16.7356C125.129 16.241 124.502 15.9937 123.592 15.9937C122.603 15.9937 121.901 16.3205 121.486 16.9741C121.079 17.6189 120.876 18.745 120.876 20.3526V26.1488C120.876 26.3867 120.683 26.5795 120.445 26.5795H118.313C118.075 26.5795 117.882 26.3867 117.882 26.1488V14.1058Z" fill="url(#paint2_linear_1016_1799)"/>
<path d="M133.425 4.20215C133.662 4.20215 133.855 4.39498 133.855 4.63284V16.8134C133.855 17.1964 134.318 17.3889 134.59 17.1189L137.929 13.8003C138.01 13.7201 138.119 13.6751 138.233 13.6751H140.991C141.379 13.6751 141.569 14.1463 141.291 14.4154L136.735 18.8208C136.575 18.9755 136.559 19.2267 136.698 19.4002L141.904 25.8791C142.131 26.1609 141.93 26.5795 141.568 26.5795H138.808C138.676 26.5795 138.551 26.5187 138.469 26.4145L134.632 21.5169C134.473 21.3135 134.171 21.2952 133.988 21.478L133.981 21.4851C133.901 21.5658 133.855 21.6754 133.855 21.7896V26.1488C133.855 26.3867 133.662 26.5795 133.425 26.5795H131.305C131.067 26.5795 130.874 26.3867 130.874 26.1488V4.63284C130.874 4.39498 131.067 4.20215 131.305 4.20215H133.425Z" fill="url(#paint3_linear_1016_1799)"/>
<path d="M3 14.374C3 10.987 4.24155 8.07789 6.72465 5.64673C9.19737 3.21558 12.1688 2 15.6389 2C19.0674 2 22.0077 3.22597 24.4596 5.6779C26.9219 8.12984 28.1531 11.0753 28.1531 14.5142C28.1531 17.9739 26.9167 20.909 24.444 23.3194C21.9609 25.7401 18.9635 26.9505 15.4519 26.9505C12.3454 26.9505 9.55581 25.8752 7.08309 23.7246C4.36103 21.3454 3 18.2285 3 14.374ZM6.66232 14.4207C6.66232 17.0804 7.55582 19.2674 9.34282 20.9817C11.1194 22.696 13.1714 23.5531 15.4986 23.5531C18.0233 23.5531 20.1532 22.6804 21.8882 20.935C23.6233 19.1687 24.4908 17.0181 24.4908 14.483C24.4908 11.9168 23.6337 9.76619 21.9194 8.03114C20.2155 6.28569 18.1064 5.41297 15.5921 5.41297C13.0883 5.41297 10.974 6.28569 9.24932 8.03114C7.52465 9.7558 6.66232 11.8857 6.66232 14.4207Z" fill="url(#paint4_linear_1016_1799)"/>
<path fill-rule="evenodd" clip-rule="evenodd" d="M22.8307 32.0045C24.7387 32.0045 26.4479 31.2663 27.9584 29.7899C28.03 29.7071 28.1048 29.6236 28.1818 29.5378C28.6996 28.96 29.4958 27.9737 29.9279 26.6115C30.2155 25.7048 30.4716 24.5787 30.4716 23.2653C30.4716 22.3663 30.2974 21.1274 29.9596 20.0175C29.5551 18.6889 28.7111 17.5923 27.993 16.9C27.9814 16.8867 27.9699 16.8733 27.9584 16.86C26.4252 15.2701 24.6876 14.4751 22.7456 14.4751C20.5082 14.4751 18.6514 15.3098 17.175 16.9793C15.6872 18.6374 14.9434 20.7044 14.9434 23.1802C14.9434 25.7128 15.6872 27.8251 17.175 29.5173C18.6741 31.1754 20.5594 32.0045 22.8307 32.0045ZM20.1391 27.0642C19.2874 26.0648 18.8615 24.7701 18.8615 23.1802C18.8615 21.6924 19.2987 20.4432 20.1732 19.4324C21.0591 18.433 22.1607 17.9333 23.4781 17.9333C24.875 17.9333 26.0107 18.4273 26.8851 19.4154C27.7596 20.4261 28.1969 21.7094 28.1969 23.2653C28.1969 24.8212 27.7596 26.1046 26.8851 27.1153C26.0107 28.092 24.8636 28.5804 23.444 28.5804C22.1152 28.5804 21.0136 28.075 20.1391 27.0642Z" fill="url(#paint5_linear_1016_1799)"/>
</g>
<g filter="url(#filter1_dd_1016_1799)">
<path d="M155.03 5.142C155.224 5.142 155.398 5.26506 155.461 5.4484L160.566 20.1957C160.707 20.6054 161.29 20.6038 161.43 20.1932L166.016 6.69535C166.298 5.8661 167.479 5.87378 167.75 6.70661L172.138 20.2C172.272 20.611 172.852 20.6219 173.001 20.2162L178.433 5.44025C178.499 5.26113 178.671 5.142 178.862 5.142H181.429C181.75 5.142 181.971 5.46303 181.855 5.76086L173.286 27.725C172.98 28.5074 171.864 28.495 171.576 27.7061L167.25 15.8421C167.106 15.4457 166.544 15.442 166.394 15.8364L161.88 27.719C161.581 28.5056 160.461 28.5011 160.169 27.7122L152.029 5.75367C151.919 5.45699 152.139 5.142 152.457 5.142H155.03Z" fill="url(#paint6_linear_1016_1799)"/>
<path d="M192.053 22.0988C192.048 22.3464 191.845 22.5447 191.597 22.5447H182.733C182.468 22.5447 182.256 22.7701 182.298 23.0311C182.441 23.924 182.787 24.6518 183.337 25.2144C183.983 25.8667 184.812 26.1929 185.823 26.1929C186.609 26.1929 187.26 26.0065 187.775 25.6338C188.218 25.307 188.715 24.7368 189.267 23.923C189.402 23.7237 189.667 23.6565 189.878 23.7736L191.764 24.8205C191.987 24.9446 192.065 25.228 191.928 25.4432C191.589 25.9756 191.234 26.4445 190.865 26.8498C190.406 27.3437 189.914 27.7538 189.39 28.0799C188.866 28.3967 188.299 28.6297 187.691 28.7788C187.082 28.9279 186.422 29.0024 185.71 29.0024C183.669 29.0024 182.031 28.3501 180.795 27.0455C179.559 25.7316 178.941 23.989 178.941 21.8178C178.941 19.6652 179.54 17.9227 180.739 16.5901C181.946 15.2762 183.548 14.6192 185.542 14.6192C187.555 14.6192 189.147 15.2575 190.317 16.5342C191.478 17.8015 192.059 19.5581 192.059 21.8038L192.053 22.0988ZM188.209 19.9727C188.508 19.9727 188.728 19.6899 188.618 19.4131C188.1 18.1089 187.098 17.4567 185.612 17.4567C185.228 17.4567 184.868 17.5173 184.531 17.6384C184.194 17.7503 183.885 17.918 183.604 18.1416C183.332 18.356 183.098 18.6169 182.901 18.9244C182.803 19.0778 182.717 19.2416 182.642 19.4158C182.525 19.6896 182.744 19.9727 183.044 19.9727H188.209Z" fill="url(#paint7_linear_1016_1799)"/>
<path d="M196.204 5.00244C196.456 5.00244 196.66 5.20588 196.66 5.45683V15.4503C196.66 15.8591 197.175 16.0731 197.501 15.8238C198.549 15.0208 199.702 14.6192 200.958 14.6192C202.803 14.6192 204.338 15.3041 205.565 16.674C206.791 18.0345 207.404 19.7305 207.404 21.7619C207.404 23.8586 206.787 25.5918 205.551 26.9617C204.324 28.3222 202.774 29.0024 200.902 29.0024C199.635 29.0024 198.476 28.6142 197.425 27.8378C197.124 27.6149 196.66 27.8148 196.66 28.1887C196.66 28.422 196.47 28.6111 196.236 28.6111H193.957C193.705 28.6111 193.5 28.4076 193.5 28.1567V5.45683C193.5 5.20588 193.705 5.00244 193.957 5.00244H196.204ZM204.174 21.9017C204.174 20.5971 203.818 19.5348 203.107 18.7147C202.386 17.8761 201.482 17.4567 200.396 17.4567C199.235 17.4567 198.289 17.8621 197.559 18.6728C196.838 19.4742 196.478 20.5179 196.478 21.8038C196.478 23.1271 196.833 24.1847 197.545 24.9768C198.257 25.7875 199.193 26.1929 200.354 26.1929C201.45 26.1929 202.358 25.7875 203.079 24.9768C203.809 24.1568 204.174 23.1317 204.174 21.9017Z" fill="url(#paint8_linear_1016_1799)"/>
<path d="M224.991 8.06009C225.133 8.13872 225.219 8.28886 225.219 8.45058V11.0747C225.219 11.4603 224.762 11.6755 224.447 11.4508C222.796 10.2736 221.097 9.68503 219.348 9.68503C217.12 9.68503 215.242 10.4818 213.716 12.0752C212.181 13.6594 211.413 15.5977 211.413 17.89C211.413 20.1545 212.181 22.0648 213.716 23.621C215.252 25.1772 217.134 25.9553 219.362 25.9553C220.514 25.9553 221.492 25.7689 222.298 25.3962C222.747 25.2098 223.21 24.9582 223.688 24.6413C223.937 24.4795 224.191 24.3007 224.452 24.1049C224.762 23.8722 225.219 24.0855 225.219 24.4719V27.1578C225.219 27.3216 225.13 27.4734 224.986 27.5512C223.183 28.5187 221.295 29.0024 219.32 29.0024C216.221 29.0024 213.576 27.9261 211.385 25.7736C209.203 23.6023 208.112 20.9838 208.112 17.918C208.112 15.169 209.025 12.7182 210.851 10.5656C213.098 7.92848 216.006 6.6099 219.573 6.6099C221.439 6.6099 223.245 7.09329 224.991 8.06009Z" fill="url(#paint9_linear_1016_1799)"/>
<path d="M236.829 15.4508C236.829 15.2 237.033 14.9966 237.285 14.9966H239.546C239.799 14.9966 240.003 15.2001 240.003 15.451V28.1567C240.003 28.4076 239.799 28.6111 239.546 28.6111H237.262C237.023 28.6111 236.829 28.4179 236.829 28.1796C236.829 27.8021 236.367 27.5981 236.061 27.8212C234.981 28.6087 233.837 29.0024 232.629 29.0024C230.738 29.0024 229.174 28.3222 227.938 26.9617C226.712 25.5732 226.099 23.8399 226.099 21.7619C226.099 19.7211 226.712 18.0205 227.938 16.66C229.165 15.2995 230.701 14.6192 232.545 14.6192C233.794 14.6192 234.942 15.0208 235.989 15.8238C236.314 16.0733 236.829 15.8594 236.829 15.4508ZM229.329 21.7619C229.329 23.0665 229.68 24.1288 230.382 24.9489C231.103 25.7782 232.011 26.1929 233.107 26.1929C234.277 26.1929 235.223 25.7922 235.944 24.9908C236.665 24.1614 237.025 23.1084 237.025 21.8318C237.025 20.5552 236.665 19.5022 235.944 18.6728C235.223 17.8621 234.287 17.4567 233.135 17.4567C232.049 17.4567 231.141 17.8667 230.41 18.6868C229.689 19.5161 229.329 20.5412 229.329 21.7619Z" fill="url(#paint10_linear_1016_1799)"/>
<path d="M244.538 5.00244C244.79 5.00244 244.994 5.20588 244.994 5.45683V28.1567C244.994 28.4076 244.79 28.6111 244.538 28.6111H242.291C242.039 28.6111 241.834 28.4076 241.834 28.1567V5.45683C241.834 5.20588 242.039 5.00244 242.291 5.00244H244.538Z" fill="url(#paint11_linear_1016_1799)"/>
<path d="M249.543 5.00244C249.796 5.00244 250 5.20588 250 5.45683V28.1567C250 28.4076 249.796 28.6111 249.543 28.6111H247.296C247.044 28.6111 246.84 28.4076 246.84 28.1567V5.45683C246.84 5.20588 247.044 5.00244 247.296 5.00244H249.543Z" fill="url(#paint12_linear_1016_1799)"/>
</g>
<defs>
<filter id="filter0_dd_1016_1799" x="0" y="0" width="145" height="36.0044" filterUnits="userSpaceOnUse" color-interpolation-filters="sRGB">
<feFlood flood-opacity="0" result="BackgroundImageFix"/>
<feColorMatrix in="SourceAlpha" type="matrix" values="0 0 0 0 0 0 0 0 0 0 0 0 0 0 0 0 0 0 127 0" result="hardAlpha"/>
<feOffset dy="1"/>
<feGaussianBlur stdDeviation="1"/>
<feColorMatrix type="matrix" values="0 0 0 0 0 0 0 0 0 0 0 0 0 0 0 0 0 0 0.06 0"/>
<feBlend mode="normal" in2="BackgroundImageFix" result="effect1_dropShadow_1016_1799"/>
<feColorMatrix in="SourceAlpha" type="matrix" values="0 0 0 0 0 0 0 0 0 0 0 0 0 0 0 0 0 0 127 0" result="hardAlpha"/>
<feOffset dy="1"/>
<feGaussianBlur stdDeviation="1.5"/>
<feColorMatrix type="matrix" values="0 0 0 0 0 0 0 0 0 0 0 0 0 0 0 0 0 0 0.1 0"/>
<feBlend mode="normal" in2="effect1_dropShadow_1016_1799" result="effect2_dropShadow_1016_1799"/>
<feBlend mode="normal" in="SourceGraphic" in2="effect2_dropShadow_1016_1799" result="shape"/>
</filter>
<filter id="filter1_dd_1016_1799" x="149" y="3.00244" width="104" height="30" filterUnits="userSpaceOnUse" color-interpolation-filters="sRGB">
<feFlood flood-opacity="0" result="BackgroundImageFix"/>
<feColorMatrix in="SourceAlpha" type="matrix" values="0 0 0 0 0 0 0 0 0 0 0 0 0 0 0 0 0 0 127 0" result="hardAlpha"/>
<feOffset dy="1"/>
<feGaussianBlur stdDeviation="1"/>
<feColorMatrix type="matrix" values="0 0 0 0 0 0 0 0 0 0 0 0 0 0 0 0 0 0 0.06 0"/>
<feBlend mode="normal" in2="BackgroundImageFix" result="effect1_dropShadow_1016_1799"/>
<feColorMatrix in="SourceAlpha" type="matrix" values="0 0 0 0 0 0 0 0 0 0 0 0 0 0 0 0 0 0 127 0" result="hardAlpha"/>
<feOffset dy="1"/>
<feGaussianBlur stdDeviation="1.5"/>
<feColorMatrix type="matrix" values="0 0 0 0 0 0 0 0 0 0 0 0 0 0 0 0 0 0 0.1 0"/>
<feBlend mode="normal" in2="effect1_dropShadow_1016_1799" result="effect2_dropShadow_1016_1799"/>
<feBlend mode="normal" in="SourceGraphic" in2="effect2_dropShadow_1016_1799" result="shape"/>
</filter>
<linearGradient id="paint0_linear_1016_1799" x1="87.9663" y1="4.20215" x2="87.9663" y2="26.9505" gradientUnits="userSpaceOnUse">
<stop stop-color="#2BC3C5"/>
<stop offset="1" stop-color="#269E9F"/>
</linearGradient>
<linearGradient id="paint1_linear_1016_1799" x1="87.9663" y1="4.20215" x2="87.9663" y2="26.9505" gradientUnits="userSpaceOnUse">
<stop stop-color="#2BC3C5"/>
<stop offset="1" stop-color="#269E9F"/>
</linearGradient>
<linearGradient id="paint2_linear_1016_1799" x1="87.9663" y1="4.20215" x2="87.9663" y2="26.9505" gradientUnits="userSpaceOnUse">
<stop stop-color="#2BC3C5"/>
<stop offset="1" stop-color="#269E9F"/>
</linearGradient>
<linearGradient id="paint3_linear_1016_1799" x1="87.9663" y1="4.20215" x2="87.9663" y2="26.9505" gradientUnits="userSpaceOnUse">
<stop stop-color="#2BC3C5"/>
<stop offset="1" stop-color="#269E9F"/>
</linearGradient>
<linearGradient id="paint4_linear_1016_1799" x1="15.5766" y1="2" x2="15.5766" y2="26.9505" gradientUnits="userSpaceOnUse">
<stop stop-color="#389798"/>
<stop offset="1" stop-color="#256667"/>
</linearGradient>
<linearGradient id="paint5_linear_1016_1799" x1="22.7075" y1="14.4751" x2="22.7075" y2="32.0045" gradientUnits="userSpaceOnUse">
<stop stop-color="#2BC3C5"/>
<stop offset="1" stop-color="#269E9F"/>
</linearGradient>
<linearGradient id="paint6_linear_1016_1799" x1="149.976" y1="2.50329" x2="249.896" y2="30.2389" gradientUnits="userSpaceOnUse">
<stop stop-color="#2BC3C5"/>
<stop offset="0.0969881" stop-color="#2AB7B8"/>
<stop offset="1" stop-color="#208284"/>
</linearGradient>
<linearGradient id="paint7_linear_1016_1799" x1="149.976" y1="2.50329" x2="249.896" y2="30.2389" gradientUnits="userSpaceOnUse">
<stop stop-color="#2BC3C5"/>
<stop offset="0.0969881" stop-color="#2AB7B8"/>
<stop offset="1" stop-color="#208284"/>
</linearGradient>
<linearGradient id="paint8_linear_1016_1799" x1="149.976" y1="2.50329" x2="249.896" y2="30.2389" gradientUnits="userSpaceOnUse">
<stop stop-color="#2BC3C5"/>
<stop offset="0.0969881" stop-color="#2AB7B8"/>
<stop offset="1" stop-color="#208284"/>
</linearGradient>
<linearGradient id="paint9_linear_1016_1799" x1="149.976" y1="2.50329" x2="249.896" y2="30.2389" gradientUnits="userSpaceOnUse">
<stop stop-color="#2BC3C5"/>
<stop offset="0.0969881" stop-color="#2AB7B8"/>
<stop offset="1" stop-color="#208284"/>
</linearGradient>
<linearGradient id="paint10_linear_1016_1799" x1="149.976" y1="2.50329" x2="249.896" y2="30.2389" gradientUnits="userSpaceOnUse">
<stop stop-color="#2BC3C5"/>
<stop offset="0.0969881" stop-color="#2AB7B8"/>
<stop offset="1" stop-color="#208284"/>
</linearGradient>
<linearGradient id="paint11_linear_1016_1799" x1="149.976" y1="2.50329" x2="249.896" y2="30.2389" gradientUnits="userSpaceOnUse">
<stop stop-color="#2BC3C5"/>
<stop offset="0.0969881" stop-color="#2AB7B8"/>
<stop offset="1" stop-color="#208284"/>
</linearGradient>
<linearGradient id="paint12_linear_1016_1799" x1="149.976" y1="2.50329" x2="249.896" y2="30.2389" gradientUnits="userSpaceOnUse">
<stop stop-color="#2BC3C5"/>
<stop offset="0.0969881" stop-color="#2AB7B8"/>
<stop offset="1" stop-color="#208284"/>
</linearGradient>
</defs>
</svg>
